  0
SECTION
  2
HEADER
  9
$ACADVER
  1
AC1024
  9
$ACADMAINTVER
 70
     6
  9
$DWGCODEPAGE
  3
UNDEFINED
  9
$INSBASE
 10
0.0
 20
0.0
 30
0.0
  9
$EXTMIN
 10
1.000000000000000E+20
 20
1.000000000000000E+20
 30
1.000000000000000E+20
  9
$EXTMAX
 10
-1.000000000000000E+20
 20
-1.000000000000000E+20
 30
-1.000000000000000E+20
  9
$LIMMIN
 10
0.0
 20
0.0
  9
$LIMMAX
 10
12.0
 20
9.0
  9
$ORTHOMODE
 70
     0
  9
$REGENMODE
 70
     1
  9
$FILLMODE
 70
     1
  9
$QTEXTMODE
 70
     0
  9
$MIRRTEXT
 70
     1
  9
$LTSCALE
 40
1.0
  9
$ATTMODE
 70
     1
  9
$TEXTSIZE
 40
0.2
  9
$TRACEWID
 40
0.05
  9
$TEXTSTYLE
  7
Standard
  9
$CLAYER
  8
0
  9
$CELTYPE
  6
ByLayer
  9
$CECOLOR
 62
   256
  9
$CELTSCALE
 40
1.0
  9
$DISPSILH
 70
     0
  9
$DIMSCALE
 40
1.0
  9
$DIMASZ
 40
0.18
  9
$DIMEXO
 40
0.0625
  9
$DIMDLI
 40
0.38
  9
$DIMRND
 40
0.0
  9
$DIMDLE
 40
0.0
  9
$DIMEXE
 40
0.18
  9
$DIMTP
 40
0.0
  9
$DIMTM
 40
0.0
  9
$DIMTXT
 40
0.18
  9
$DIMCEN
 40
0.09
  9
$DIMTSZ
 40
0.0
  9
$DIMTOL
 70
     0
  9
$DIMLIM
 70
     0
  9
$DIMTIH
 70
     1
  9
$DIMTOH
 70
     1
  9
$DIMSE1
 70
     0
  9
$DIMSE2
 70
     0
  9
$DIMTAD
 70
     0
  9
$DIMZIN
 70
     0
  9
$DIMBLK
  1

  9
$DIMASO
 70
     1
  9
$DIMSHO
 70
     1
  9
$DIMPOST
  1

  9
$DIMAPOST
  1

  9
$DIMALT
 70
     0
  9
$DIMALTD
 70
     2
  9
$DIMALTF
 40
25.4
  9
$DIMLFAC
 40
1.0
  9
$DIMTOFL
 70
     0
  9
$DIMTVP
 40
0.0
  9
$DIMTIX
 70
     0
  9
$DIMSOXD
 70
     0
  9
$DIMSAH
 70
     0
  9
$DIMBLK1
  1

  9
$DIMBLK2
  1

  9
$DIMSTYLE
  2
Standard
  9
$DIMCLRD
 70
     0
  9
$DIMCLRE
 70
     0
  9
$DIMCLRT
 70
     0
  9
$DIMTFAC
 40
1.0
  9
$DIMGAP
 40
0.09
  9
$DIMJUST
 70
     0
  9
$DIMSD1
 70
     0
  9
$DIMSD2
 70
     0
  9
$DIMTOLJ
 70
     1
  9
$DIMTZIN
 70
     0
  9
$DIMALTZ
 70
     0
  9
$DIMALTTZ
 70
     0
  9
$DIMUPT
 70
     0
  9
$DIMDEC
 70
     4
  9
$DIMTDEC
 70
     4
  9
$DIMALTU
 70
     2
  9
$DIMALTTD
 70
     2
  9
$DIMTXSTY
  7
Standard
  9
$DIMAUNIT
 70
     0
  9
$DIMADEC
 70
     0
  9
$DIMALTRND
 40
0.0
  9
$DIMAZIN
 70
     0
  9
$DIMDSEP
 70
    46
  9
$DIMATFIT
 70
     3
  9
$DIMFRAC
 70
     0
  9
$DIMLDRBLK
  1

  9
$DIMLUNIT
 70
     2
  9
$DIMLWD
 70
    -2
  9
$DIMLWE
 70
    -2
  9
$DIMTMOVE
 70
     0
  9
$DIMFXL
 40
1.0
  9
$DIMFXLON
 70
     0
  9
$DIMJOGANG
 40
0.7853981633974483
  9
$DIMTFILL
 70
     0
  9
$DIMTFILLCLR
 70
     0
  9
$DIMARCSYM
 70
     0
  9
$DIMLTYPE
  6

  9
$DIMLTEX1
  6

  9
$DIMLTEX2
  6

  9
$DIMTXTDIRECTION
 70
     0
  9
$LUNITS
 70
     2
  9
$LUPREC
 70
     4
  9
$SKETCHINC
 40
0.1
  9
$FILLETRAD
 40
0.5
  9
$AUNITS
 70
     0
  9
$AUPREC
 70
     0
  9
$MENU
  1
.
  9
$ELEVATION
 40
0.0
  9
$PELEVATION
 40
0.0
  9
$THICKNESS
 40
0.0
  9
$LIMCHECK
 70
     0
  9
$CHAMFERA
 40
0.5
  9
$CHAMFERB
 40
0.5
  9
$CHAMFERC
 40
1.0
  9
$CHAMFERD
 40
0.0
  9
$SKPOLY
 70
     0
  9
$TDCREATE
 40
2458629.869884248
  9
$TDUCREATE
 40
2458630.203217593
  9
$TDUPDATE
 40
2458629.869884248
  9
$TDUUPDATE
 40
2458630.203217593
  9
$TDINDWG
 40
0.0000000116
  9
$TDUSRTIMER
 40
0.0000000116
  9
$USRTIMER
 70
     1
  9
$ANGBASE
 50
0.0
  9
$ANGDIR
 70
     0
  9
$PDMODE
 70
     0
  9
$PDSIZE
 40
0.0
  9
$PLINEWID
 40
0.0
  9
$SPLFRAME
 70
     0
  9
$SPLINETYPE
 70
     6
  9
$SPLINESEGS
 70
     8
  9
$HANDSEED
  5
110
  9
$SURFTAB1
 70
     6
  9
$SURFTAB2
 70
     6
  9
$SURFTYPE
 70
     6
  9
$SURFU
 70
     6
  9
$SURFV
 70
     6
  9
$UCSBASE
  2

  9
$UCSNAME
  2

  9
$UCSORG
 10
0.0
 20
0.0
 30
0.0
  9
$UCSXDIR
 10
1.0
 20
0.0
 30
0.0
  9
$UCSYDIR
 10
0.0
 20
1.0
 30
0.0
  9
$UCSORTHOREF
  2

  9
$UCSORTHOVIEW
 70
     0
  9
$UCSORGTOP
 10
0.0
 20
0.0
 30
0.0
  9
$UCSORGBOTTOM
 10
0.0
 20
0.0
 30
0.0
  9
$UCSORGLEFT
 10
0.0
 20
0.0
 30
0.0
  9
$UCSORGRIGHT
 10
0.0
 20
0.0
 30
0.0
  9
$UCSORGFRONT
 10
0.0
 20
0.0
 30
0.0
  9
$UCSORGBACK
 10
0.0
 20
0.0
 30
0.0
  9
$PUCSBASE
  2

  9
$PUCSNAME
  2

  9
$PUCSORG
 10
0.0
 20
0.0
 30
0.0
  9
$PUCSXDIR
 10
1.0
 20
0.0
 30
0.0
  9
$PUCSYDIR
 10
0.0
 20
1.0
 30
0.0
  9
$PUCSORTHOREF
  2

  9
$PUCSORTHOVIEW
 70
     0
  9
$PUCSORGTOP
 10
0.0
 20
0.0
 30
0.0
  9
$PUCSORGBOTTOM
 10
0.0
 20
0.0
 30
0.0
  9
$PUCSORGLEFT
 10
0.0
 20
0.0
 30
0.0
  9
$PUCSORGRIGHT
 10
0.0
 20
0.0
 30
0.0
  9
$PUCSORGFRONT
 10
0.0
 20
0.0
 30
0.0
  9
$PUCSORGBACK
 10
0.0
 20
0.0
 30
0.0
  9
$USERI1
 70
     0
  9
$USERI2
 70
     0
  9
$USERI3
 70
     0
  9
$USERI4
 70
     0
  9
$USERI5
 70
     0
  9
$USERR1
 40
0.0
  9
$USERR2
 40
0.0
  9
$USERR3
 40
0.0
  9
$USERR4
 40
0.0
  9
$USERR5
 40
0.0
  9
$WORLDVIEW
 70
     1
  9
$SHADEDGE
 70
     3
  9
$SHADEDIF
 70
    70
  9
$TILEMODE
 70
     1
  9
$MAXACTVP
 70
    64
  9
$PINSBASE
 10
0.0
 20
0.0
 30
0.0
  9
$PLIMCHECK
 70
     0
  9
$PEXTMIN
 10
1.000000000000000E+20
 20
1.000000000000000E+20
 30
1.000000000000000E+20
  9
$PEXTMAX
 10
-1.000000000000000E+20
 20
-1.000000000000000E+20
 30
-1.000000000000000E+20
  9
$PLIMMIN
 10
0.0
 20
0.0
  9
$PLIMMAX
 10
12.0
 20
9.0
  9
$UNITMODE
 70
     0
  9
$VISRETAIN
 70
     1
  9
$PLINEGEN
 70
     0
  9
$PSLTSCALE
 70
     1
  9
$TREEDEPTH
 70
  3020
  9
$CMLSTYLE
  2
Standard
  9
$CMLJUST
 70
     0
  9
$CMLSCALE
 40
1.0
  9
$PROXYGRAPHICS
 70
     1
  9
$MEASUREMENT
 70
     0
  9
$CELWEIGHT
370
    -1
  9
$ENDCAPS
280
     0
  9
$JOINSTYLE
280
     0
  9
$LWDISPLAY
290
     1
  9
$INSUNITS
 70
     1
  9
$HYPERLINKBASE
  1

  9
$STYLESHEET
  1

  9
$XEDIT
290
     1
  9
$CEPSNTYPE
380
     0
  9
$PSTYLEMODE
290
     1
  9
$FINGERPRINTGUID
  2
{A9C7B5EF-9073-6779-D48F-53D8E7BC1CE4}
  9
$VERSIONGUID
  2
{FAEB1C32-E019-11D5-929B-00C0DF256EC4}
  9
$EXTNAMES
290
     1
  9
$PSVPSCALE
 40
0.0
  9
$OLESTARTUP
290
     0
  9
$SORTENTS
280
   127
  9
$INDEXCTL
280
     0
  9
$HIDETEXT
280
     1
  9
$XCLIPFRAME
280
     2
  9
$HALOGAP
280
     0
  9
$OBSCOLOR
 70
   257
  9
$OBSLTYPE
280
     0
  9
$INTERSECTIONDISPLAY
280
     0
  9
$INTERSECTIONCOLOR
 70
   257
  9
$DIMASSOC
280
     2
  9
$PROJECTNAME
  1

  9
$CAMERADISPLAY
290
     0
  9
$LENSLENGTH
 40
50.0
  9
$CAMERAHEIGHT
 40
0.0
  9
$STEPSPERSEC
 40
2.0
  9
$STEPSIZE
 40
6.0
  9
$3DDWFPREC
 40
2.0
  9
$PSOLWIDTH
 40
0.25
  9
$PSOLHEIGHT
 40
4.0
  9
$LOFTANG1
 40
1.570796326794897
  9
$LOFTANG2
 40
1.570796326794897
  9
$LOFTMAG1
 40
0.0
  9
$LOFTMAG2
 40
0.0
  9
$LOFTPARAM
 70
     7
  9
$LOFTNORMALS
280
     1
  9
$LATITUDE
 40
37.795
  9
$LONGITUDE
 40
-122.394
  9
$NORTHDIRECTION
 40
0.0
  9
$TIMEZONE
 70
 -8000
  9
$LIGHTGLYPHDISPLAY
280
     1
  9
$TILEMODELIGHTSYNCH
280
     1
  9
$CMATERIAL
347
3C
  9
$SOLIDHIST
280
     1
  9
$SHOWHIST
280
     1
  9
$DWFFRAME
280
     2
  9
$DGNFRAME
280
     2
  9
$REALWORLDSCALE
290
     1
  9
$INTERFERECOLOR
 62
   256
  9
$CSHADOW
280
     0
  9
$SHADOWPLANELOCATION
 40
0.0
  0
ENDSEC
  0
SECTION
  2
CLASSES
  0
CLASS
  1
ACDBDICTIONARYWDFLT
  2
AcDbDictionaryWithDefault
  3
ObjectDBX Classes
 90
        0
 91
        4
280
     0
281
     0
  0
CLASS
  1
VISUALSTYLE
  2
AcDbVisualStyle
  3
ObjectDBX Classes
 90
     4095
 91
        4
280
     0
281
     0
  0
CLASS
  1
MATERIAL
  2
AcDbMaterial
  3
ObjectDBX Classes
 90
     1153
 91
        4
280
     0
281
     0
  0
CLASS
  1
SUN
  2
AcDbSun
  3
SCENEOE
 90
     1024
 91
        4
280
     0
281
     0
  0
ENDSEC
  0
SECTION
  2
TABLES
  0
TABLE
  2
VPORT
  5
8
330
0
100
AcDbSymbolTable
 70
     1
  0
VPORT
  5
29
330
8
100
AcDbSymbolTableRecord
100
AcDbViewportTableRecord
  2
*Active
 70
     0
 10
0.0
 20
0.0
 11
1.0
 21
1.0
 12
0.0
 22
0.0
 13
0.0
 23
0.0
 14
0.5
 24
0.5
 15
0.5
 25
0.5
 16
0.0
 26
0.0
 36
1.0
 17
267.5550632280235
 27
-327.5217240173092
 37
0.0
 40
147.4538499514191
 41
1.000000000079887
 42
50.0
 43
0.0
 44
0.0
 50
0.0
 51
0.0
 71
     0
 72
   100
 73
     1
 74
     3
 75
     0
 76
     0
 77
     0
 78
     0
281
     0
 65
     1
110
0.0
120
0.0
130
0.0
111
1.0
121
0.0
131
0.0
112
0.0
122
1.0
132
0.0
 79
     0
146
0.0
 60
     3
 61
     5
292
     1
282
     1
141
0.0
142
0.0
 63
   250
361
3F
  0
ENDTAB
  0
TABLE
  2
LTYPE
  5
5
330
0
100
AcDbSymbolTable
 70
     1
  0
LTYPE
  5
14
330
5
100
AcDbSymbolTableRecord
100
AcDbLinetypeTableRecord
  2
ByBlock
 70
     0
  3

 72
    65
 73
     0
 40
0.0
  0
LTYPE
  5
15
330
5
100
AcDbSymbolTableRecord
100
AcDbLinetypeTableRecord
  2
ByLayer
 70
     0
  3

 72
    65
 73
     0
 40
0.0
  0
LTYPE
  5
16
330
5
100
AcDbSymbolTableRecord
100
AcDbLinetypeTableRecord
  2
Continuous
 70
     0
  3
Solid line
 72
    65
 73
     0
 40
0.0
  0
ENDTAB
  0
TABLE
  2
LAYER
  5
2
330
0
100
AcDbSymbolTable
 70
     2
  0
LAYER
  5
10
330
2
100
AcDbSymbolTableRecord
100
AcDbLayerTableRecord
  2
0
 70
     0
 62
     7
  6
Continuous
370
    -3
390
F
347
3E
  0
LAYER
  5
40
330
2
100
AcDbSymbolTableRecord
100
AcDbLayerTableRecord
  2
Layer 1
 70
     0
 62
     7
  6
Continuous
370
    -3
390
F
347
3E
  0
ENDTAB
  0
TABLE
  2
STYLE
  5
3
330
0
100
AcDbSymbolTable
 70
     1
  0
STYLE
  5
11
330
3
100
AcDbSymbolTableRecord
100
AcDbTextStyleTableRecord
  2
Standard
 70
     0
 40
0.0
 41
1.0
 50
0.0
 71
     0
 42
0.2
  3
txt
  4

  0
ENDTAB
  0
TABLE
  2
VIEW
  5
6
330
0
100
AcDbSymbolTable
 70
     0
  0
ENDTAB
  0
TABLE
  2
UCS
  5
7
330
0
100
AcDbSymbolTable
 70
     0
  0
ENDTAB
  0
TABLE
  2
APPID
  5
9
330
0
100
AcDbSymbolTable
 70
     1
  0
APPID
  5
12
330
9
100
AcDbSymbolTableRecord
100
AcDbRegAppTableRecord
  2
ACAD
 70
     0
  0
ENDTAB
  0
TABLE
  2
DIMSTYLE
  5
A
330
0
100
AcDbSymbolTable
 70
     1
100
AcDbDimStyleTable
  0
DIMSTYLE
105
27
330
A
100
AcDbSymbolTableRecord
100
AcDbDimStyleTableRecord
  2
Standard
 70
     0
178
     0
340
11
  0
ENDTAB
  0
TABLE
  2
BLOCK_RECORD
  5
1
330
0
100
AcDbSymbolTable
 70
    42
  0
BLOCK_RECORD
  5
1F
330
1
100
AcDbSymbolTableRecord
100
AcDbBlockTableRecord
  2
*Model_Space
340
22
 70
     0
280
     1
281
     0
  0
BLOCK_RECORD
  5
1B
330
1
100
AcDbSymbolTableRecord
100
AcDbBlockTableRecord
  2
*Paper_Space
340
1E
 70
     0
280
     1
281
     0
  0
BLOCK_RECORD
  5
23
330
1
100
AcDbSymbolTableRecord
100
AcDbBlockTableRecord
  2
*Paper_Space0
340
26
 70
     0
280
     1
281
     0
  0
BLOCK_RECORD
  5
41
330
1
100
AcDbSymbolTableRecord
100
AcDbBlockTableRecord
  2
block 2
340
0
102
{BLKREFS
331
42
102
}
 70
     0
280
     1
281
     0
  0
BLOCK_RECORD
  5
46
330
1
100
AcDbSymbolTableRecord
100
AcDbBlockTableRecord
  2
block 3
340
0
102
{BLKREFS
331
47
102
}
 70
     0
280
     1
281
     0
  0
BLOCK_RECORD
  5
4B
330
1
100
AcDbSymbolTableRecord
100
AcDbBlockTableRecord
  2
block 4
340
0
102
{BLKREFS
331
4C
102
}
 70
     0
280
     1
281
     0
  0
BLOCK_RECORD
  5
50
330
1
100
AcDbSymbolTableRecord
100
AcDbBlockTableRecord
  2
block 5
340
0
102
{BLKREFS
331
51
102
}
 70
     0
280
     1
281
     0
  0
BLOCK_RECORD
  5
55
330
1
100
AcDbSymbolTableRecord
100
AcDbBlockTableRecord
  2
block 6
340
0
102
{BLKREFS
331
56
102
}
 70
     0
280
     1
281
     0
  0
BLOCK_RECORD
  5
5A
330
1
100
AcDbSymbolTableRecord
100
AcDbBlockTableRecord
  2
block 7
340
0
102
{BLKREFS
331
5B
102
}
 70
     0
280
     1
281
     0
  0
BLOCK_RECORD
  5
5F
330
1
100
AcDbSymbolTableRecord
100
AcDbBlockTableRecord
  2
block 8
340
0
102
{BLKREFS
331
60
102
}
 70
     0
280
     1
281
     0
  0
BLOCK_RECORD
  5
64
330
1
100
AcDbSymbolTableRecord
100
AcDbBlockTableRecord
  2
block 9
340
0
102
{BLKREFS
331
65
102
}
 70
     0
280
     1
281
     0
  0
BLOCK_RECORD
  5
69
330
1
100
AcDbSymbolTableRecord
100
AcDbBlockTableRecord
  2
block 10
340
0
102
{BLKREFS
331
6A
102
}
 70
     0
280
     1
281
     0
  0
BLOCK_RECORD
  5
6E
330
1
100
AcDbSymbolTableRecord
100
AcDbBlockTableRecord
  2
block 11
340
0
102
{BLKREFS
331
6F
102
}
 70
     0
280
     1
281
     0
  0
BLOCK_RECORD
  5
73
330
1
100
AcDbSymbolTableRecord
100
AcDbBlockTableRecord
  2
block 12
340
0
102
{BLKREFS
331
74
102
}
 70
     0
280
     1
281
     0
  0
BLOCK_RECORD
  5
78
330
1
100
AcDbSymbolTableRecord
100
AcDbBlockTableRecord
  2
block 13
340
0
102
{BLKREFS
331
79
102
}
 70
     0
280
     1
281
     0
  0
BLOCK_RECORD
  5
7D
330
1
100
AcDbSymbolTableRecord
100
AcDbBlockTableRecord
  2
block 14
340
0
102
{BLKREFS
331
7E
102
}
 70
     0
280
     1
281
     0
  0
BLOCK_RECORD
  5
82
330
1
100
AcDbSymbolTableRecord
100
AcDbBlockTableRecord
  2
block 15
340
0
102
{BLKREFS
331
83
102
}
 70
     0
280
     1
281
     0
  0
BLOCK_RECORD
  5
87
330
1
100
AcDbSymbolTableRecord
100
AcDbBlockTableRecord
  2
block 16
340
0
102
{BLKREFS
331
88
102
}
 70
     0
280
     1
281
     0
  0
BLOCK_RECORD
  5
8C
330
1
100
AcDbSymbolTableRecord
100
AcDbBlockTableRecord
  2
block 17
340
0
102
{BLKREFS
331
8D
102
}
 70
     0
280
     1
281
     0
  0
BLOCK_RECORD
  5
91
330
1
100
AcDbSymbolTableRecord
100
AcDbBlockTableRecord
  2
block 18
340
0
102
{BLKREFS
331
92
102
}
 70
     0
280
     1
281
     0
  0
BLOCK_RECORD
  5
96
330
1
100
AcDbSymbolTableRecord
100
AcDbBlockTableRecord
  2
block 19
340
0
102
{BLKREFS
331
97
102
}
 70
     0
280
     1
281
     0
  0
BLOCK_RECORD
  5
9B
330
1
100
AcDbSymbolTableRecord
100
AcDbBlockTableRecord
  2
block 20
340
0
102
{BLKREFS
331
9C
102
}
 70
     0
280
     1
281
     0
  0
BLOCK_RECORD
  5
A0
330
1
100
AcDbSymbolTableRecord
100
AcDbBlockTableRecord
  2
block 21
340
0
102
{BLKREFS
331
A1
102
}
 70
     0
280
     1
281
     0
  0
BLOCK_RECORD
  5
A5
330
1
100
AcDbSymbolTableRecord
100
AcDbBlockTableRecord
  2
block 22
340
0
102
{BLKREFS
331
A6
102
}
 70
     0
280
     1
281
     0
  0
BLOCK_RECORD
  5
AA
330
1
100
AcDbSymbolTableRecord
100
AcDbBlockTableRecord
  2
block 23
340
0
102
{BLKREFS
331
AB
102
}
 70
     0
280
     1
281
     0
  0
BLOCK_RECORD
  5
AF
330
1
100
AcDbSymbolTableRecord
100
AcDbBlockTableRecord
  2
block 24
340
0
102
{BLKREFS
331
B0
102
}
 70
     0
280
     1
281
     0
  0
BLOCK_RECORD
  5
B4
330
1
100
AcDbSymbolTableRecord
100
AcDbBlockTableRecord
  2
block 25
340
0
102
{BLKREFS
331
B5
102
}
 70
     0
280
     1
281
     0
  0
BLOCK_RECORD
  5
B9
330
1
100
AcDbSymbolTableRecord
100
AcDbBlockTableRecord
  2
block 26
340
0
102
{BLKREFS
331
BA
102
}
 70
     0
280
     1
281
     0
  0
BLOCK_RECORD
  5
BE
330
1
100
AcDbSymbolTableRecord
100
AcDbBlockTableRecord
  2
block 27
340
0
102
{BLKREFS
331
BF
102
}
 70
     0
280
     1
281
     0
  0
BLOCK_RECORD
  5
C3
330
1
100
AcDbSymbolTableRecord
100
AcDbBlockTableRecord
  2
block 28
340
0
102
{BLKREFS
331
C4
102
}
 70
     0
280
     1
281
     0
  0
BLOCK_RECORD
  5
C8
330
1
100
AcDbSymbolTableRecord
100
AcDbBlockTableRecord
  2
block 29
340
0
102
{BLKREFS
331
C9
102
}
 70
     0
280
     1
281
     0
  0
BLOCK_RECORD
  5
CD
330
1
100
AcDbSymbolTableRecord
100
AcDbBlockTableRecord
  2
block 30
340
0
102
{BLKREFS
331
CE
102
}
 70
     0
280
     1
281
     0
  0
BLOCK_RECORD
  5
D2
330
1
100
AcDbSymbolTableRecord
100
AcDbBlockTableRecord
  2
block 31
340
0
102
{BLKREFS
331
D3
102
}
 70
     0
280
     1
281
     0
  0
BLOCK_RECORD
  5
D7
330
1
100
AcDbSymbolTableRecord
100
AcDbBlockTableRecord
  2
block 32
340
0
102
{BLKREFS
331
D8
102
}
 70
     0
280
     1
281
     0
  0
BLOCK_RECORD
  5
DC
330
1
100
AcDbSymbolTableRecord
100
AcDbBlockTableRecord
  2
block 33
340
0
102
{BLKREFS
331
DD
102
}
 70
     0
280
     1
281
     0
  0
BLOCK_RECORD
  5
E1
330
1
100
AcDbSymbolTableRecord
100
AcDbBlockTableRecord
  2
block 34
340
0
102
{BLKREFS
331
E2
102
}
 70
     0
280
     1
281
     0
  0
BLOCK_RECORD
  5
E6
330
1
100
AcDbSymbolTableRecord
100
AcDbBlockTableRecord
  2
block 35
340
0
102
{BLKREFS
331
E7
102
}
 70
     0
280
     1
281
     0
  0
BLOCK_RECORD
  5
EB
330
1
100
AcDbSymbolTableRecord
100
AcDbBlockTableRecord
  2
block 36
340
0
102
{BLKREFS
331
EC
102
}
 70
     0
280
     1
281
     0
  0
BLOCK_RECORD
  5
F0
330
1
100
AcDbSymbolTableRecord
100
AcDbBlockTableRecord
  2
block 37
340
0
102
{BLKREFS
331
F1
102
}
 70
     0
280
     1
281
     0
  0
BLOCK_RECORD
  5
F5
330
1
100
AcDbSymbolTableRecord
100
AcDbBlockTableRecord
  2
block 38
340
0
102
{BLKREFS
331
F6
102
}
 70
     0
280
     1
281
     0
  0
BLOCK_RECORD
  5
FA
330
1
100
AcDbSymbolTableRecord
100
AcDbBlockTableRecord
  2
block 39
340
0
102
{BLKREFS
331
FB
102
}
 70
     0
280
     1
281
     0
  0
BLOCK_RECORD
  5
FF
330
1
100
AcDbSymbolTableRecord
100
AcDbBlockTableRecord
  2
block 40
340
0
102
{BLKREFS
331
100
102
}
 70
     0
280
     1
281
     0
  0
BLOCK_RECORD
  5
104
330
1
100
AcDbSymbolTableRecord
100
AcDbBlockTableRecord
  2
block 41
340
0
102
{BLKREFS
331
105
102
}
 70
     0
280
     1
281
     0
  0
BLOCK_RECORD
  5
109
330
1
100
AcDbSymbolTableRecord
100
AcDbBlockTableRecord
  2
block 42
340
0
102
{BLKREFS
331
10A
102
}
 70
     0
280
     1
281
     0
  0
ENDTAB
  0
ENDSEC
  0
SECTION
  2
BLOCKS
  0
BLOCK
  5
20
330
1F
100
AcDbEntity
  8
0
100
AcDbBlockBegin
  2
*Model_Space
 70
     0
 10
0.0
 20
0.0
 30
0.0
  3
*Model_Space
  1

  0
ENDBLK
  5
21
330
1F
100
AcDbEntity
  8
0
100
AcDbBlockEnd
  0
BLOCK
  5
1C
330
1B
100
AcDbEntity
 67
     1
  8
0
100
AcDbBlockBegin
  2
*Paper_Space
 70
     0
 10
0.0
 20
0.0
 30
0.0
  3
*Paper_Space
  1

  0
ENDBLK
  5
1D
330
1B
100
AcDbEntity
 67
     1
  8
0
100
AcDbBlockEnd
  0
BLOCK
  5
24
330
23
100
AcDbEntity
  8
0
100
AcDbBlockBegin
  2
*Paper_Space0
 70
     0
 10
0.0
 20
0.0
 30
0.0
  3
*Paper_Space0
  1

  0
ENDBLK
  5
25
330
23
100
AcDbEntity
  8
0
100
AcDbBlockEnd
  0
BLOCK
  5
43
330
41
100
AcDbEntity
  8
0
100
AcDbBlockBegin
  2
block 2
 70
     0
 10
0.0
 20
0.0
 30
0.0
  3
block 2
  1

  0
SPLINE
  5
45
330
41
100
AcDbEntity
  8
Layer 1
 62
     7
420
 16777215
370
    25
100
AcDbSpline
210
0.0
220
0.0
230
1.0
 70
    11
 71
     3
 72
    29
 73
    25
 74
     0
 42
0.0000000001
 43
0.0000000001
 12
1.0
 22
0.0
 32
0.0
 13
1.0
 23
0.0
 33
0.0
 40
0.0
 40
0.0
 40
0.0
 40
0.0
 40
1.0
 40
1.0
 40
1.0
 40
2.0
 40
2.0
 40
2.0
 40
3.0
 40
3.0
 40
3.0
 40
4.0
 40
4.0
 40
4.0
 40
5.0
 40
5.0
 40
5.0
 40
6.0
 40
6.0
 40
6.0
 40
7.0
 40
7.0
 40
7.0
 40
8.0
 40
8.0
 40
8.0
 40
8.0
 10
202.7291030027167
 20
-377.6272990228456
 30
0.0
 10
202.3444100529584
 20
-375.2114904426144
 30
0.0
 10
200.9808775319594
 20
-373.0610990061273
 30
0.0
 10
198.9598310174026
 20
-371.6828788684454
 30
0.0
 10
200.9808776208251
 20
-370.3046587752523
 30
0.0
 10
202.3444101097809
 20
-368.1542673184484
 30
0.0
 10
202.7291030235408
 20
-365.738458732483
 30
0.0
 10
205.1449116095024
 20
-365.3537658187217
 30
0.0
 10
207.2953030663051
 20
-363.9902333297682
 30
0.0
 10
208.673523234103
 20
-361.9691868357506
 30
0.0
 10
210.0517434018996
 20
-363.9902333297682
 30
0.0
 10
212.2021348587013
 20
-365.353765818723
 30
0.0
 10
214.6179434446625
 20
-365.7384587324842
 30
0.0
 10
215.0026363584232
 20
-368.1542673184484
 30
0.0
 10
216.3661688473792
 20
-370.304658775253
 30
0.0
 10
218.387215341399
 20
-371.6828789430512
 30
0.0
 10
216.3661688473795
 20
-373.0610991108494
 30
0.0
 10
215.0026363584238
 20
-375.2114905676534
 30
0.0
 10
214.6179434446635
 20
-377.6272991536175
 30
0.0
 10
212.2021348587023
 20
-378.0119920673781
 30
0.0
 10
210.0517434019002
 20
-379.3755245563335
 30
0.0
 10
208.6735232341026
 20
-381.3965710503505
 30
0.0
 10
207.2953030663047
 20
-379.3755245563335
 30
0.0
 10
205.1449116095024
 20
-378.0119920673781
 30
0.0
 10
202.7291030027167
 20
-377.6272990228456
 30
0.0
  0
ENDBLK
  5
44
330
41
100
AcDbEntity
  8
0
100
AcDbBlockEnd
  0
BLOCK
  5
48
330
46
100
AcDbEntity
  8
0
100
AcDbBlockBegin
  2
block 3
 70
     0
 10
0.0
 20
0.0
 30
0.0
  3
block 3
  1

  0
SPLINE
  5
4A
330
46
100
AcDbEntity
  8
Layer 1
 62
     7
420
 16777215
370
    25
100
AcDbSpline
210
0.0
220
0.0
230
1.0
 70
    11
 71
     3
 72
    29
 73
    25
 74
     0
 42
0.0000000001
 43
0.0000000001
 12
1.0
 22
0.0
 32
0.0
 13
1.0
 23
0.0
 33
0.0
 40
0.0
 40
0.0
 40
0.0
 40
0.0
 40
1.0
 40
1.0
 40
1.0
 40
2.0
 40
2.0
 40
2.0
 40
3.0
 40
3.0
 40
3.0
 40
4.0
 40
4.0
 40
4.0
 40
5.0
 40
5.0
 40
5.0
 40
6.0
 40
6.0
 40
6.0
 40
7.0
 40
7.0
 40
7.0
 40
8.0
 40
8.0
 40
8.0
 40
8.0
 10
202.7291030235408
 20
-348.1865291782549
 30
0.0
 10
202.3444101097809
 20
-345.7707205922907
 30
0.0
 10
200.9808776208251
 20
-343.6203291354861
 30
0.0
 10
198.9598311268056
 20
-342.2421089676886
 30
0.0
 10
200.9808776208251
 20
-340.8638887998891
 30
0.0
 10
202.3444101097809
 20
-338.7134973430851
 30
0.0
 10
202.7291030235408
 20
-336.2976887571203
 30
0.0
 10
205.1449116095024
 20
-335.9129958433597
 30
0.0
 10
207.2953030663051
 20
-334.5494633544056
 30
0.0
 10
208.673523234103
 20
-332.528416860388
 30
0.0
 10
210.0517434018996
 20
-334.5494633544056
 30
0.0
 10
212.2021348587013
 20
-335.9129958433604
 30
0.0
 10
214.6179434446625
 20
-336.2976887571223
 30
0.0
 10
215.0026363584232
 20
-338.7134973430857
 30
0.0
 10
216.3661688473795
 20
-340.8638887998903
 30
0.0
 10
218.387215341399
 20
-342.2421089676886
 30
0.0
 10
216.3661688473795
 20
-343.6203291354861
 30
0.0
 10
215.0026363584238
 20
-345.7707205922907
 30
0.0
 10
214.6179434446638
 20
-348.1865291782549
 30
0.0
 10
212.2021348587023
 20
-348.5712220920161
 30
0.0
 10
210.0517434019002
 20
-349.9347545809703
 30
0.0
 10
208.673523234103
 20
-351.9558010749878
 30
0.0
 10
207.2953030663051
 20
-349.9347545809703
 30
0.0
 10
205.1449116095027
 20
-348.5712220920155
 30
0.0
 10
202.7291030235408
 20
-348.1865291782549
 30
0.0
  0
ENDBLK
  5
49
330
46
100
AcDbEntity
  8
0
100
AcDbBlockEnd
  0
BLOCK
  5
4D
330
4B
100
AcDbEntity
  8
0
100
AcDbBlockBegin
  2
block 4
 70
     0
 10
0.0
 20
0.0
 30
0.0
  3
block 4
  1

  0
SPLINE
  5
4F
330
4B
100
AcDbEntity
  8
Layer 1
 62
     7
420
 16777215
370
    25
100
AcDbSpline
210
0.0
220
0.0
230
1.0
 70
    11
 71
     3
 72
    29
 73
    25
 74
     0
 42
0.0000000001
 43
0.0000000001
 12
1.0
 22
0.0
 32
0.0
 13
1.0
 23
0.0
 33
0.0
 40
0.0
 40
0.0
 40
0.0
 40
0.0
 40
1.0
 40
1.0
 40
1.0
 40
2.0
 40
2.0
 40
2.0
 40
3.0
 40
3.0
 40
3.0
 40
4.0
 40
4.0
 40
4.0
 40
5.0
 40
5.0
 40
5.0
 40
6.0
 40
6.0
 40
6.0
 40
7.0
 40
7.0
 40
7.0
 40
8.0
 40
8.0
 40
8.0
 40
8.0
 10
202.7291030235408
 20
-318.7457592028923
 30
0.0
 10
202.3444101097809
 20
-316.3299506169288
 30
0.0
 10
200.9808776208251
 20
-314.1795591601235
 30
0.0
 10
198.9598311268056
 20
-312.8013389923253
 30
0.0
 10
200.9808776208251
 20
-311.4231188245277
 30
0.0
 10
202.3444101097809
 20
-309.2727273677225
 30
0.0
 10
202.7291030235408
 20
-306.8569187817583
 30
0.0
 10
205.1449116095024
 20
-306.4722258679977
 30
0.0
 10
207.2953030663051
 20
-305.108693379043
 30
0.0
 10
208.673523234103
 20
-303.0876468850254
 30
0.0
 10
210.0517434018996
 20
-305.1086933790436
 30
0.0
 10
212.2021348587013
 20
-306.4722258679984
 30
0.0
 10
214.6179434446625
 20
-306.856918781759
 30
0.0
 10
215.0026363584232
 20
-309.2727273677231
 30
0.0
 10
216.3661688473792
 20
-311.4231188245277
 30
0.0
 10
218.387215341399
 20
-312.8013389923253
 30
0.0
 10
216.3661688473795
 20
-314.1795591601235
 30
0.0
 10
215.0026363584238
 20
-316.3299506169288
 30
0.0
 10
214.6179434446638
 20
-318.7457592028923
 30
0.0
 10
212.2021347336627
 20
-319.1304521734759
 30
0.0
 10
210.0517432971788
 20
-320.493984694474
 30
0.0
 10
208.6735231594971
 20
-322.5150312090285
 30
0.0
 10
207.2953030663051
 20
-320.493984605607
 30
0.0
 10
205.1449116095024
 20
-319.1304521166529
 30
0.0
 10
202.7291030235408
 20
-318.7457592028923
 30
0.0
  0
ENDBLK
  5
4E
330
4B
100
AcDbEntity
  8
0
100
AcDbBlockEnd
  0
BLOCK
  5
52
330
50
100
AcDbEntity
  8
0
100
AcDbBlockBegin
  2
block 5
 70
     0
 10
0.0
 20
0.0
 30
0.0
  3
block 5
  1

  0
SPLINE
  5
54
330
50
100
AcDbEntity
  8
Layer 1
 62
     7
420
 16777215
370
    25
100
AcDbSpline
210
0.0
220
0.0
230
1.0
 70
    11
 71
     3
 72
    29
 73
    25
 74
     0
 42
0.0000000001
 43
0.0000000001
 12
1.0
 22
0.0
 32
0.0
 13
1.0
 23
0.0
 33
0.0
 40
0.0
 40
0.0
 40
0.0
 40
0.0
 40
1.0
 40
1.0
 40
1.0
 40
2.0
 40
2.0
 40
2.0
 40
3.0
 40
3.0
 40
3.0
 40
4.0
 40
4.0
 40
4.0
 40
5.0
 40
5.0
 40
5.0
 40
6.0
 40
6.0
 40
6.0
 40
7.0
 40
7.0
 40
7.0
 40
8.0
 40
8.0
 40
8.0
 40
8.0
 10
202.7291030027167
 20
-289.3049890967578
 30
0.0
 10
202.3444100529587
 20
-286.8891805165259
 30
0.0
 10
200.9808775319594
 20
-284.7387890800401
 30
0.0
 10
198.9598310174026
 20
-283.3605689423568
 30
0.0
 10
200.9808776208251
 20
-281.9823488491645
 30
0.0
 10
202.3444101097809
 20
-279.8319573923592
 30
0.0
 10
202.7291030235408
 20
-277.4161488063957
 30
0.0
 10
205.1449116095024
 20
-277.0314558926351
 30
0.0
 10
207.2953030663051
 20
-275.6679234036803
 30
0.0
 10
208.673523234103
 20
-273.6468769096641
 30
0.0
 10
210.0517434018996
 20
-275.667923403681
 30
0.0
 10
212.2021348587013
 20
-277.0314558926357
 30
0.0
 10
214.6179434446625
 20
-277.416148806397
 30
0.0
 10
215.0026363584232
 20
-279.8319573923611
 30
0.0
 10
216.3661688473795
 20
-281.9823488491651
 30
0.0
 10
218.387215341399
 20
-283.3605690169627
 30
0.0
 10
216.3661687585135
 20
-284.738789289483
 30
0.0
 10
215.0026363016013
 20
-286.889180766605
 30
0.0
 10
214.6179434238397
 20
-289.3049893583021
 30
0.0
 10
212.2021348587023
 20
-289.6896821412909
 30
0.0
 10
210.0517434019002
 20
-291.0532146302463
 30
0.0
 10
208.673523234103
 20
-293.0742611242626
 30
0.0
 10
207.2953030663051
 20
-291.053214630245
 30
0.0
 10
205.1449116095024
 20
-289.6896821412909
 30
0.0
 10
202.7291030027167
 20
-289.3049890967578
 30
0.0
  0
ENDBLK
  5
53
330
50
100
AcDbEntity
  8
0
100
AcDbBlockEnd
  0
BLOCK
  5
57
330
55
100
AcDbEntity
  8
0
100
AcDbBlockBegin
  2
block 6
 70
     0
 10
0.0
 20
0.0
 30
0.0
  3
block 6
  1

  0
SPLINE
  5
59
330
55
100
AcDbEntity
  8
Layer 1
 62
     7
420
 16777215
370
    25
100
AcDbSpline
210
0.0
220
0.0
230
1.0
 70
    11
 71
     3
 72
    41
 73
    37
 74
     0
 42
0.0000000001
 43
0.0000000001
 12
1.0
 22
0.0
 32
0.0
 13
1.0
 23
0.0
 33
0.0
 40
0.0
 40
0.0
 40
0.0
 40
0.0
 40
1.0
 40
1.0
 40
1.0
 40
2.0
 40
2.0
 40
2.0
 40
3.0
 40
3.0
 40
3.0
 40
4.0
 40
4.0
 40
4.0
 40
5.0
 40
5.0
 40
5.0
 40
6.0
 40
6.0
 40
6.0
 40
7.0
 40
7.0
 40
7.0
 40
8.0
 40
8.0
 40
8.0
 40
9.0
 40
9.0
 40
9.0
 40
10.0
 40
10.0
 40
10.0
 40
11.0
 40
11.0
 40
11.0
 40
12.0
 40
12.0
 40
12.0
 40
12.0
 10
217.917581460799
 20
-391.8795907449755
 30
0.0
 10
216.8670502900833
 20
-394.9040825001555
 30
0.0
 10
218.4672615165721
 20
-398.2075412852699
 30
0.0
 10
221.4917532717524
 20
-399.2580724559846
 30
0.0
 10
224.5162450269327
 20
-400.3086036267007
 30
0.0
 10
227.8197038120464
 20
-398.7083924002122
 30
0.0
 10
228.8702349827618
 20
-395.6839006450316
 30
0.0
 10
229.2981603321748
 20
-394.4518984663148
 30
0.0
 10
229.2981603122026
 20
-393.111592747732
 30
0.0
 10
228.8702349260732
 20
-391.8795905817684
 30
0.0
 10
231.8947267912028
 20
-392.9301218624312
 30
0.0
 10
235.1981855763165
 20
-391.329910635942
 30
0.0
 10
236.2487167470322
 20
-388.3054188807608
 30
0.0
 10
237.299247917748
 20
-385.2809271255796
 30
0.0
 10
235.6990366912582
 20
-381.9774683404652
 30
0.0
 10
232.674544936077
 20
-380.9269371697505
 30
0.0
 10
231.4425427573605
 20
-380.4990118203368
 30
0.0
 10
230.1022370387783
 20
-380.4990118403097
 30
0.0
 10
228.8702348728154
 20
-380.9269372264375
 30
0.0
 10
229.920766170205
 20
-377.9024454585673
 30
0.0
 10
228.3205549929422
 20
-374.5989866496062
 30
0.0
 10
225.2960632534156
 20
-373.5484554338204
 30
0.0
 10
222.2715715138886
 20
-372.4979242180346
 30
0.0
 10
218.968112704928
 20
-374.0981353952964
 30
0.0
 10
217.9175814891422
 20
-377.122627134824
 30
0.0
 10
217.4896561213699
 20
-378.3546293071661
 30
0.0
 10
217.4896561213699
 20
-379.6949350257522
 30
0.0
 10
217.9175814891422
 20
-380.9269371980937
 30
0.0
 10
214.8930897496146
 20
-379.8764059823105
 30
0.0
 10
211.5896309406557
 20
-381.4766171595749
 30
0.0
 10
210.5390997248725
 20
-384.5011088991018
 30
0.0
 10
209.4885685090892
 20
-387.5256006386301
 30
0.0
 10
211.0887796863537
 20
-390.8290594475887
 30
0.0
 10
214.1132714258813
 20
-391.8795906633726
 30
0.0
 10
215.3452735982212
 20
-392.307516031142
 30
0.0
 10
216.6855793168037
 20
-392.307516031142
 30
0.0
 10
217.917581460799
 20
-391.8795907449755
 30
0.0
  0
ENDBLK
  5
58
330
55
100
AcDbEntity
  8
0
100
AcDbBlockEnd
  0
BLOCK
  5
5C
330
5A
100
AcDbEntity
  8
0
100
AcDbBlockBegin
  2
block 7
 70
     0
 10
0.0
 20
0.0
 30
0.0
  3
block 7
  1

  0
SPLINE
  5
5E
330
5A
100
AcDbEntity
  8
Layer 1
 62
     7
420
 16777215
370
    25
100
AcDbSpline
210
0.0
220
0.0
230
1.0
 70
    11
 71
     3
 72
    41
 73
    37
 74
     0
 42
0.0000000001
 43
0.0000000001
 12
1.0
 22
0.0
 32
0.0
 13
1.0
 23
0.0
 33
0.0
 40
0.0
 40
0.0
 40
0.0
 40
0.0
 40
1.0
 40
1.0
 40
1.0
 40
2.0
 40
2.0
 40
2.0
 40
3.0
 40
3.0
 40
3.0
 40
4.0
 40
4.0
 40
4.0
 40
5.0
 40
5.0
 40
5.0
 40
6.0
 40
6.0
 40
6.0
 40
7.0
 40
7.0
 40
7.0
 40
8.0
 40
8.0
 40
8.0
 40
9.0
 40
9.0
 40
9.0
 40
10.0
 40
10.0
 40
10.0
 40
11.0
 40
11.0
 40
11.0
 40
12.0
 40
12.0
 40
12.0
 40
12.0
 10
217.9175814891435
 20
-362.4388206880093
 30
0.0
 10
216.867050273359
 20
-365.4633124275357
 30
0.0
 10
218.4672614506225
 20
-368.7667712364949
 30
0.0
 10
221.4917531901485
 20
-369.8173024522788
 30
0.0
 10
224.5162449296752
 20
-370.8678336680626
 30
0.0
 10
227.8197037386335
 20
-369.2676224907995
 30
0.0
 10
228.8702349544176
 20
-366.2431307512732
 30
0.0
 10
229.2981603221887
 20
-365.011128578933
 30
0.0
 10
229.2981603221887
 20
-363.6708228603501
 30
0.0
 10
228.8702349544176
 20
-362.4388206880093
 30
0.0
 10
231.8947266939449
 20
-363.4893519037938
 30
0.0
 10
235.1981855029039
 20
-361.8891407265294
 30
0.0
 10
236.2487167186877
 20
-358.8646489870025
 30
0.0
 10
237.2992479344716
 20
-355.8401572474755
 30
0.0
 10
235.6990367572078
 20
-352.5366984385162
 30
0.0
 10
232.6745450176805
 20
-351.4861672227317
 30
0.0
 10
231.442542845341
 20
-351.0582418549616
 30
0.0
 10
230.1022371267585
 20
-351.058241854961
 30
0.0
 10
228.8702349544186
 20
-351.4861672227317
 30
0.0
 10
229.920766170205
 20
-348.4616754832047
 30
0.0
 10
228.3205549929422
 20
-345.1582166742435
 30
0.0
 10
225.2960632534156
 20
-344.1076854584584
 30
0.0
 10
222.2715715138886
 20
-343.057154242672
 30
0.0
 10
218.968112704928
 20
-344.6573654199338
 30
0.0
 10
217.9175814891422
 20
-347.6818571594615
 30
0.0
 10
217.4896561213699
 20
-348.9138593318036
 30
0.0
 10
217.4896561213699
 20
-350.2541650503896
 30
0.0
 10
217.9175814891422
 20
-351.4861672227317
 30
0.0
 10
214.8930896523571
 20
-350.4356360236724
 30
0.0
 10
211.589630867243
 20
-352.0358472501629
 30
0.0
 10
210.5390996965283
 20
-355.0603390053441
 30
0.0
 10
209.4885685258132
 20
-358.084830760526
 30
0.0
 10
211.0887797523037
 20
-361.3882895456397
 30
0.0
 10
214.1132715074849
 20
-362.4388207163539
 30
0.0
 10
215.3452736862016
 20
-362.8667460657662
 30
0.0
 10
216.6855794047838
 20
-362.8667460457946
 30
0.0
 10
217.9175814891435
 20
-362.4388206880093
 30
0.0
  0
ENDBLK
  5
5D
330
5A
100
AcDbEntity
  8
0
100
AcDbBlockEnd
  0
BLOCK
  5
61
330
5F
100
AcDbEntity
  8
0
100
AcDbBlockBegin
  2
block 8
 70
     0
 10
0.0
 20
0.0
 30
0.0
  3
block 8
  1

  0
SPLINE
  5
63
330
5F
100
AcDbEntity
  8
Layer 1
 62
     7
420
 16777215
370
    25
100
AcDbSpline
210
0.0
220
0.0
230
1.0
 70
    11
 71
     3
 72
    29
 73
    25
 74
     0
 42
0.0000000001
 43
0.0000000001
 12
1.0
 22
0.0
 32
0.0
 13
1.0
 23
0.0
 33
0.0
 40
0.0
 40
0.0
 40
0.0
 40
0.0
 40
1.0
 40
1.0
 40
1.0
 40
2.0
 40
2.0
 40
2.0
 40
3.0
 40
3.0
 40
3.0
 40
4.0
 40
4.0
 40
4.0
 40
5.0
 40
5.0
 40
5.0
 40
6.0
 40
6.0
 40
6.0
 40
7.0
 40
7.0
 40
7.0
 40
8.0
 40
8.0
 40
8.0
 40
8.0
 10
232.169872998897
 20
-377.6272991536175
 30
0.0
 10
231.7851800851371
 20
-375.2114905676534
 30
0.0
 10
230.4216475961813
 20
-373.0610991108494
 30
0.0
 10
228.4006011021621
 20
-371.6828789430512
 30
0.0
 10
230.4216475961817
 20
-370.3046587752523
 30
0.0
 10
231.7851800851371
 20
-368.1542673184471
 30
0.0
 10
232.169872998897
 20
-365.738458732483
 30
0.0
 10
234.5856817098985
 20
-365.3537657618999
 30
0.0
 10
236.7360731463827
 20
-363.9902332409013
 30
0.0
 10
238.1142932840644
 20
-361.9691867263473
 30
0.0
 10
239.4925133772558
 20
-363.9902333297682
 30
0.0
 10
241.6429048340575
 20
-365.353765818723
 30
0.0
 10
244.0587134200188
 20
-365.7384587324842
 30
0.0
 10
244.4434063337794
 20
-368.1542673184484
 30
0.0
 10
245.8069388227357
 20
-370.304658775253
 30
0.0
 10
247.8279853167552
 20
-371.6828789430512
 30
0.0
 10
245.8069388227357
 20
-373.0610991108494
 30
0.0
 10
244.4434063337803
 20
-375.2114905676534
 30
0.0
 10
244.0587134200204
 20
-377.6272991536175
 30
0.0
 10
241.6429048340585
 20
-378.0119920673781
 30
0.0
 10
239.4925133772564
 20
-379.3755245563335
 30
0.0
 10
238.1142932094589
 20
-381.3965710503505
 30
0.0
 10
236.7360730416613
 20
-379.3755245563335
 30
0.0
 10
234.5856815848589
 20
-378.0119920673781
 30
0.0
 10
232.169872998897
 20
-377.6272991536175
 30
0.0
  0
ENDBLK
  5
62
330
5F
100
AcDbEntity
  8
0
100
AcDbBlockEnd
  0
BLOCK
  5
66
330
64
100
AcDbEntity
  8
0
100
AcDbBlockBegin
  2
block 9
 70
     0
 10
0.0
 20
0.0
 30
0.0
  3
block 9
  1

  0
SPLINE
  5
68
330
64
100
AcDbEntity
  8
Layer 1
 62
     7
420
 16777215
370
    25
100
AcDbSpline
210
0.0
220
0.0
230
1.0
 70
    11
 71
     3
 72
    41
 73
    37
 74
     0
 42
0.0000000001
 43
0.0000000001
 12
1.0
 22
0.0
 32
0.0
 13
1.0
 23
0.0
 33
0.0
 40
0.0
 40
0.0
 40
0.0
 40
0.0
 40
1.0
 40
1.0
 40
1.0
 40
2.0
 40
2.0
 40
2.0
 40
3.0
 40
3.0
 40
3.0
 40
4.0
 40
4.0
 40
4.0
 40
5.0
 40
5.0
 40
5.0
 40
6.0
 40
6.0
 40
6.0
 40
7.0
 40
7.0
 40
7.0
 40
8.0
 40
8.0
 40
8.0
 40
9.0
 40
9.0
 40
9.0
 40
10.0
 40
10.0
 40
10.0
 40
11.0
 40
11.0
 40
11.0
 40
12.0
 40
12.0
 40
12.0
 40
12.0
 10
217.9175814891435
 20
-332.9980507126473
 30
0.0
 10
216.867050273359
 20
-336.0225424521731
 30
0.0
 10
218.4672614506225
 20
-339.3260012611317
 30
0.0
 10
221.4917531901485
 20
-340.3765324769169
 30
0.0
 10
224.5162449296752
 20
-341.4270636927
 30
0.0
 10
227.8197037386335
 20
-339.8268525154376
 30
0.0
 10
228.8702349544176
 20
-336.8023607759112
 30
0.0
 10
229.2981603221887
 20
-335.5703586035704
 30
0.0
 10
229.2981603221887
 20
-334.2300528849876
 30
0.0
 10
228.8702349544176
 20
-332.9980507126473
 30
0.0
 10
231.8947266939449
 20
-334.0485819284306
 30
0.0
 10
235.1981855029039
 20
-332.4483707511661
 30
0.0
 10
236.2487167186877
 20
-329.4238790116392
 30
0.0
 10
237.2992479344716
 20
-326.3993872721122
 30
0.0
 10
235.6990367572075
 20
-323.0959284631529
 30
0.0
 10
232.6745450176805
 20
-322.0453972473691
 30
0.0
 10
231.442542845341
 20
-321.6174718795983
 30
0.0
 10
230.1022371267585
 20
-321.6174718795983
 30
0.0
 10
228.8702349544186
 20
-322.0453972473691
 30
0.0
 10
229.920766170205
 20
-319.0209055078427
 30
0.0
 10
228.3205549929422
 20
-315.7174466988822
 30
0.0
 10
225.2960632534156
 20
-314.6669154830957
 30
0.0
 10
222.2715715138886
 20
-313.6163842673093
 30
0.0
 10
218.968112704928
 20
-315.2165954445719
 30
0.0
 10
217.9175814891422
 20
-318.2410871840988
 30
0.0
 10
217.4896561213699
 20
-319.4730893564409
 30
0.0
 10
217.4896561213699
 20
-320.813395075027
 30
0.0
 10
217.9175814891422
 20
-322.0453972473691
 30
0.0
 10
214.8930897496149
 20
-320.9948660315858
 30
0.0
 10
211.589630940656
 20
-322.5950772088503
 30
0.0
 10
210.5390997248728
 20
-325.6195689483779
 30
0.0
 10
209.4885685090892
 20
-328.6440606879049
 30
0.0
 10
211.0887796863543
 20
-331.9475194968635
 30
0.0
 10
214.1132714258816
 20
-332.9980507126473
 30
0.0
 10
215.3452735982215
 20
-333.4259760804175
 30
0.0
 10
216.685579316804
 20
-333.4259760804175
 30
0.0
 10
217.9175814891435
 20
-332.9980507126473
 30
0.0
  0
ENDBLK
  5
67
330
64
100
AcDbEntity
  8
0
100
AcDbBlockEnd
  0
BLOCK
  5
6B
330
69
100
AcDbEntity
  8
0
100
AcDbBlockBegin
  2
block 10
 70
     0
 10
0.0
 20
0.0
 30
0.0
  3
block 10
  1

  0
SPLINE
  5
6D
330
69
100
AcDbEntity
  8
Layer 1
 62
     7
420
 16777215
370
    25
100
AcDbSpline
210
0.0
220
0.0
230
1.0
 70
    11
 71
     3
 72
    29
 73
    25
 74
     0
 42
0.0000000001
 43
0.0000000001
 12
1.0
 22
0.0
 32
0.0
 13
1.0
 23
0.0
 33
0.0
 40
0.0
 40
0.0
 40
0.0
 40
0.0
 40
1.0
 40
1.0
 40
1.0
 40
2.0
 40
2.0
 40
2.0
 40
3.0
 40
3.0
 40
3.0
 40
4.0
 40
4.0
 40
4.0
 40
5.0
 40
5.0
 40
5.0
 40
6.0
 40
6.0
 40
6.0
 40
7.0
 40
7.0
 40
7.0
 40
8.0
 40
8.0
 40
8.0
 40
8.0
 10
232.169872998897
 20
-348.1865291782555
 30
0.0
 10
231.7851800851371
 20
-345.7707205922914
 30
0.0
 10
230.4216475961817
 20
-343.6203291354861
 30
0.0
 10
228.4006011021621
 20
-342.2421089676886
 30
0.0
 10
230.4216475961813
 20
-340.8638887998891
 30
0.0
 10
231.7851800851371
 20
-338.7134973430851
 30
0.0
 10
232.169872998897
 20
-336.2976887571203
 30
0.0
 10
234.5856815848589
 20
-335.9129958433597
 30
0.0
 10
236.7360730416613
 20
-334.5494633544056
 30
0.0
 10
238.1142932094589
 20
-332.528416860388
 30
0.0
 10
239.4925133772561
 20
-334.5494633544056
 30
0.0
 10
241.6429048340575
 20
-335.9129958433604
 30
0.0
 10
244.0587134200191
 20
-336.2976887571216
 30
0.0
 10
244.4434063906018
 20
-338.7134974681259
 30
0.0
 10
245.8069389116014
 20
-340.8638889046118
 30
0.0
 10
247.8279854261582
 20
-342.2421090422931
 30
0.0
 10
245.8069388227357
 20
-343.6203291354861
 30
0.0
 10
244.4434063337803
 20
-345.7707205922907
 30
0.0
 10
244.0587134200204
 20
-348.1865291782549
 30
0.0
 10
241.6429048340585
 20
-348.5712220920155
 30
0.0
 10
239.4925133772561
 20
-349.9347545809703
 30
0.0
 10
238.1142932094589
 20
-351.9558010749878
 30
0.0
 10
236.7360730416613
 20
-349.9347545809703
 30
0.0
 10
234.5856815848589
 20
-348.5712220920155
 30
0.0
 10
232.169872998897
 20
-348.1865291782555
 30
0.0
  0
ENDBLK
  5
6C
330
69
100
AcDbEntity
  8
0
100
AcDbBlockEnd
  0
BLOCK
  5
70
330
6E
100
AcDbEntity
  8
0
100
AcDbBlockBegin
  2
block 11
 70
     0
 10
0.0
 20
0.0
 30
0.0
  3
block 11
  1

  0
SPLINE
  5
72
330
6E
100
AcDbEntity
  8
Layer 1
 62
     7
420
 16777215
370
    25
100
AcDbSpline
210
0.0
220
0.0
230
1.0
 70
    11
 71
     3
 72
    41
 73
    37
 74
     0
 42
0.0000000001
 43
0.0000000001
 12
1.0
 22
0.0
 32
0.0
 13
1.0
 23
0.0
 33
0.0
 40
0.0
 40
0.0
 40
0.0
 40
0.0
 40
1.0
 40
1.0
 40
1.0
 40
2.0
 40
2.0
 40
2.0
 40
3.0
 40
3.0
 40
3.0
 40
4.0
 40
4.0
 40
4.0
 40
5.0
 40
5.0
 40
5.0
 40
6.0
 40
6.0
 40
6.0
 40
7.0
 40
7.0
 40
7.0
 40
8.0
 40
8.0
 40
8.0
 40
9.0
 40
9.0
 40
9.0
 40
10.0
 40
10.0
 40
10.0
 40
11.0
 40
11.0
 40
11.0
 40
12.0
 40
12.0
 40
12.0
 40
12.0
 10
217.9175814891432
 20
-303.5572807372841
 30
0.0
 10
216.867050273359
 20
-306.5817724768104
 30
0.0
 10
218.4672614506225
 20
-309.8852312857691
 30
0.0
 10
221.4917531901485
 20
-310.9357625015535
 30
0.0
 10
224.5162449296752
 20
-311.9862937173374
 30
0.0
 10
227.8197037386335
 20
-310.3860825400743
 30
0.0
 10
228.8702349544176
 20
-307.361590800548
 30
0.0
 10
229.2981603221887
 20
-306.1295886282071
 30
0.0
 10
229.2981603221887
 20
-304.7892829096243
 30
0.0
 10
228.8702349544176
 20
-303.5572807372841
 30
0.0
 10
231.8947266939449
 20
-304.6078119530679
 30
0.0
 10
235.1981855029039
 20
-303.0076007758042
 30
0.0
 10
236.2487167186877
 20
-299.9831090362772
 30
0.0
 10
237.2992479344716
 20
-296.9586172967496
 30
0.0
 10
235.6990367572075
 20
-293.6551584877909
 30
0.0
 10
232.6745450176805
 20
-292.6046272720064
 30
0.0
 10
231.442542845341
 20
-292.1767019042364
 30
0.0
 10
230.1022371267585
 20
-292.1767019042364
 30
0.0
 10
228.8702349544186
 20
-292.6046272720064
 30
0.0
 10
229.920766170205
 20
-289.5801355324795
 30
0.0
 10
228.3205549929422
 20
-286.2766767235189
 30
0.0
 10
225.2960632534156
 20
-285.2261455077337
 30
0.0
 10
222.2715715138886
 20
-284.1756142919473
 30
0.0
 10
218.968112704928
 20
-285.7758254692098
 30
0.0
 10
217.9175814891422
 20
-288.8003172087368
 30
0.0
 10
217.4896561213699
 20
-290.0323193810789
 30
0.0
 10
217.4896561213699
 20
-291.372625099665
 30
0.0
 10
217.9175814891422
 20
-292.6046272720064
 30
0.0
 10
214.8930897496149
 20
-291.5540960562232
 30
0.0
 10
211.589630940656
 20
-293.1543072334877
 30
0.0
 10
210.5390997248728
 20
-296.1787989730159
 30
0.0
 10
209.4885685090896
 20
-299.2032907125429
 30
0.0
 10
211.0887796863543
 20
-302.5067495215015
 30
0.0
 10
214.1132714258816
 20
-303.5572807372847
 30
0.0
 10
215.3452735982212
 20
-303.9852061050555
 30
0.0
 10
216.6855793168037
 20
-303.9852061050555
 30
0.0
 10
217.9175814891432
 20
-303.5572807372841
 30
0.0
  0
ENDBLK
  5
71
330
6E
100
AcDbEntity
  8
0
100
AcDbBlockEnd
  0
BLOCK
  5
75
330
73
100
AcDbEntity
  8
0
100
AcDbBlockBegin
  2
block 12
 70
     0
 10
0.0
 20
0.0
 30
0.0
  3
block 12
  1

  0
SPLINE
  5
77
330
73
100
AcDbEntity
  8
Layer 1
 62
     7
420
 16777215
370
    25
100
AcDbSpline
210
0.0
220
0.0
230
1.0
 70
    11
 71
     3
 72
    29
 73
    25
 74
     0
 42
0.0000000001
 43
0.0000000001
 12
1.0
 22
0.0
 32
0.0
 13
1.0
 23
0.0
 33
0.0
 40
0.0
 40
0.0
 40
0.0
 40
0.0
 40
1.0
 40
1.0
 40
1.0
 40
2.0
 40
2.0
 40
2.0
 40
3.0
 40
3.0
 40
3.0
 40
4.0
 40
4.0
 40
4.0
 40
5.0
 40
5.0
 40
5.0
 40
6.0
 40
6.0
 40
6.0
 40
7.0
 40
7.0
 40
7.0
 40
8.0
 40
8.0
 40
8.0
 40
8.0
 10
232.169872998897
 20
-318.7457592028923
 30
0.0
 10
231.7851800851371
 20
-316.3299506169288
 30
0.0
 10
230.4216475961813
 20
-314.1795591601235
 30
0.0
 10
228.4006011021621
 20
-312.8013389923253
 30
0.0
 10
230.4216475961813
 20
-311.4231188245277
 30
0.0
 10
231.7851800851371
 20
-309.2727273677225
 30
0.0
 10
232.169872998897
 20
-306.8569187817583
 30
0.0
 10
234.5856815848589
 20
-306.4722258679977
 30
0.0
 10
236.7360730416613
 20
-305.1086933790436
 30
0.0
 10
238.1142932094589
 20
-303.087646885026
 30
0.0
 10
239.4925134819775
 20
-305.1086934679093
 30
0.0
 10
241.6429049590974
 20
-306.4722259248208
 30
0.0
 10
244.0587135507909
 20
-306.8569188025834
 30
0.0
 10
244.4434063337794
 20
-309.2727273677231
 30
0.0
 10
245.8069388227354
 20
-311.4231188245277
 30
0.0
 10
247.8279853167552
 20
-312.8013389923253
 30
0.0
 10
245.8069388227357
 20
-314.1795591601235
 30
0.0
 10
244.4434063337803
 20
-316.3299506169288
 30
0.0
 10
244.05871342002
 20
-318.7457592028929
 30
0.0
 10
241.6429048340585
 20
-319.1304521166529
 30
0.0
 10
239.4925133772564
 20
-320.4939846056076
 30
0.0
 10
238.1142932094589
 20
-322.5150310996252
 30
0.0
 10
236.7360730416613
 20
-320.4939846056083
 30
0.0
 10
234.5856815848589
 20
-319.1304521166529
 30
0.0
 10
232.169872998897
 20
-318.7457592028923
 30
0.0
  0
ENDBLK
  5
76
330
73
100
AcDbEntity
  8
0
100
AcDbBlockEnd
  0
BLOCK
  5
7A
330
78
100
AcDbEntity
  8
0
100
AcDbBlockBegin
  2
block 13
 70
     0
 10
0.0
 20
0.0
 30
0.0
  3
block 13
  1

  0
SPLINE
  5
7C
330
78
100
AcDbEntity
  8
Layer 1
 62
     7
420
 16777215
370
    25
100
AcDbSpline
210
0.0
220
0.0
230
1.0
 70
    11
 71
     3
 72
    41
 73
    37
 74
     0
 42
0.0000000001
 43
0.0000000001
 12
1.0
 22
0.0
 32
0.0
 13
1.0
 23
0.0
 33
0.0
 40
0.0
 40
0.0
 40
0.0
 40
0.0
 40
1.0
 40
1.0
 40
1.0
 40
2.0
 40
2.0
 40
2.0
 40
3.0
 40
3.0
 40
3.0
 40
4.0
 40
4.0
 40
4.0
 40
5.0
 40
5.0
 40
5.0
 40
6.0
 40
6.0
 40
6.0
 40
7.0
 40
7.0
 40
7.0
 40
8.0
 40
8.0
 40
8.0
 40
9.0
 40
9.0
 40
9.0
 40
10.0
 40
10.0
 40
10.0
 40
11.0
 40
11.0
 40
11.0
 40
12.0
 40
12.0
 40
12.0
 40
12.0
 10
217.9175814891432
 20
-274.1165107619215
 30
0.0
 10
216.867050273359
 20
-277.1410025014478
 30
0.0
 10
218.4672614506225
 20
-280.4444613104064
 30
0.0
 10
221.4917531901485
 20
-281.4949925261909
 30
0.0
 10
224.5162449296752
 20
-282.5455237419748
 30
0.0
 10
227.8197037386335
 20
-280.9453125647116
 30
0.0
 10
228.8702349544176
 20
-277.920820825186
 30
0.0
 10
229.2981603221887
 20
-276.6888186528452
 30
0.0
 10
229.2981603221887
 20
-275.3485129342623
 30
0.0
 10
228.8702349544176
 20
-274.1165107619215
 30
0.0
 10
231.8947266939449
 20
-275.1670419777053
 30
0.0
 10
235.1981855029039
 20
-273.5668308004416
 30
0.0
 10
236.2487167186877
 20
-270.5423390609146
 30
0.0
 10
237.2992479344716
 20
-267.5178473213876
 30
0.0
 10
235.6990367572075
 20
-264.2143885124283
 30
0.0
 10
232.6745450176805
 20
-263.1638572966445
 30
0.0
 10
231.442542845341
 20
-262.7359319288744
 30
0.0
 10
230.1022371267585
 20
-262.7359319288744
 30
0.0
 10
228.8702349544189
 20
-263.1638572966445
 30
0.0
 10
229.920766170205
 20
-260.1393655571175
 30
0.0
 10
228.3205549929422
 20
-256.8359067481563
 30
0.0
 10
225.2960632534156
 20
-255.7853755323711
 30
0.0
 10
222.2715715138886
 20
-254.7348443165847
 30
0.0
 10
218.968112704928
 20
-256.3350554938472
 30
0.0
 10
217.9175814891422
 20
-259.3595472333742
 30
0.0
 10
217.4896561213699
 20
-260.5915494057163
 30
0.0
 10
217.4896561213699
 20
-261.9318551243017
 30
0.0
 10
217.9175814891422
 20
-263.1638572966438
 30
0.0
 10
214.8930896523571
 20
-262.1133260975852
 30
0.0
 10
211.5896308672434
 20
-263.713537324075
 30
0.0
 10
210.5390996965286
 20
-266.7380290792563
 30
0.0
 10
209.4885685258135
 20
-269.7625208344375
 30
0.0
 10
211.088779752304
 20
-273.0659796195519
 30
0.0
 10
214.1132715074852
 20
-274.116510790266
 30
0.0
 10
215.3452736862016
 20
-274.5444361396783
 30
0.0
 10
216.6855794047838
 20
-274.5444361197067
 30
0.0
 10
217.9175814891432
 20
-274.1165107619215
 30
0.0
  0
ENDBLK
  5
7B
330
78
100
AcDbEntity
  8
0
100
AcDbBlockEnd
  0
BLOCK
  5
7F
330
7D
100
AcDbEntity
  8
0
100
AcDbBlockBegin
  2
block 14
 70
     0
 10
0.0
 20
0.0
 30
0.0
  3
block 14
  1

  0
SPLINE
  5
81
330
7D
100
AcDbEntity
  8
Layer 1
 62
     7
420
 16777215
370
    25
100
AcDbSpline
210
0.0
220
0.0
230
1.0
 70
    11
 71
     3
 72
    29
 73
    25
 74
     0
 42
0.0000000001
 43
0.0000000001
 12
1.0
 22
0.0
 32
0.0
 13
1.0
 23
0.0
 33
0.0
 40
0.0
 40
0.0
 40
0.0
 40
0.0
 40
1.0
 40
1.0
 40
1.0
 40
2.0
 40
2.0
 40
2.0
 40
3.0
 40
3.0
 40
3.0
 40
4.0
 40
4.0
 40
4.0
 40
5.0
 40
5.0
 40
5.0
 40
6.0
 40
6.0
 40
6.0
 40
7.0
 40
7.0
 40
7.0
 40
8.0
 40
8.0
 40
8.0
 40
8.0
 10
232.1698729988973
 20
-289.3049892275296
 30
0.0
 10
231.7851800851371
 20
-286.8891806415655
 30
0.0
 10
230.4216475961817
 20
-284.7387891847609
 30
0.0
 10
228.4006011021621
 20
-283.3605690169627
 30
0.0
 10
230.4216475961817
 20
-281.9823488491645
 30
0.0
 10
231.7851800851371
 20
-279.8319573923592
 30
0.0
 10
232.169872998897
 20
-277.4161488063957
 30
0.0
 10
234.5856815848589
 20
-277.0314558926345
 30
0.0
 10
236.7360730416613
 20
-275.6679234036803
 30
0.0
 10
238.1142932094589
 20
-273.6468769096641
 30
0.0
 10
239.4925133772558
 20
-275.667923403681
 30
0.0
 10
241.6429048340575
 20
-277.0314558926357
 30
0.0
 10
244.0587134200188
 20
-277.416148806397
 30
0.0
 10
244.4434063337794
 20
-279.8319573923611
 30
0.0
 10
245.8069388227357
 20
-281.9823488491651
 30
0.0
 10
247.8279853167552
 20
-283.3605690169627
 30
0.0
 10
245.8069388227357
 20
-284.7387891847609
 30
0.0
 10
244.44340633378
 20
-286.8891806415655
 30
0.0
 10
244.05871342002
 20
-289.3049892275296
 30
0.0
 10
241.6429048340585
 20
-289.6896821412909
 30
0.0
 10
239.4925133772564
 20
-291.0532146302463
 30
0.0
 10
238.1142932094592
 20
-293.0742611242626
 30
0.0
 10
236.7360729369398
 20
-291.0532145413793
 30
0.0
 10
234.5856814598191
 20
-289.6896820844684
 30
0.0
 10
232.1698729988973
 20
-289.3049892275296
 30
0.0
  0
ENDBLK
  5
80
330
7D
100
AcDbEntity
  8
0
100
AcDbBlockEnd
  0
BLOCK
  5
84
330
82
100
AcDbEntity
  8
0
100
AcDbBlockBegin
  2
block 15
 70
     0
 10
0.0
 20
0.0
 30
0.0
  3
block 15
  1

  0
SPLINE
  5
86
330
82
100
AcDbEntity
  8
Layer 1
 62
     7
420
 16777215
370
    25
100
AcDbSpline
210
0.0
220
0.0
230
1.0
 70
    11
 71
     3
 72
    41
 73
    37
 74
     0
 42
0.0000000001
 43
0.0000000001
 12
1.0
 22
0.0
 32
0.0
 13
1.0
 23
0.0
 33
0.0
 40
0.0
 40
0.0
 40
0.0
 40
0.0
 40
1.0
 40
1.0
 40
1.0
 40
2.0
 40
2.0
 40
2.0
 40
3.0
 40
3.0
 40
3.0
 40
4.0
 40
4.0
 40
4.0
 40
5.0
 40
5.0
 40
5.0
 40
6.0
 40
6.0
 40
6.0
 40
7.0
 40
7.0
 40
7.0
 40
8.0
 40
8.0
 40
8.0
 40
9.0
 40
9.0
 40
9.0
 40
10.0
 40
10.0
 40
10.0
 40
11.0
 40
11.0
 40
11.0
 40
12.0
 40
12.0
 40
12.0
 40
12.0
 10
247.3583514361553
 20
-391.8795907449755
 30
0.0
 10
246.3078202654392
 20
-394.9040825001555
 30
0.0
 10
247.908031491928
 20
-398.2075412852699
 30
0.0
 10
250.9325232471086
 20
-399.2580724559846
 30
0.0
 10
253.9570150022889
 20
-400.3086036267007
 30
0.0
 10
257.2604737874026
 20
-398.7083924002122
 30
0.0
 10
258.311004958118
 20
-395.6839006450316
 30
0.0
 10
258.738930307531
 20
-394.4518984663148
 30
0.0
 10
258.7389302875588
 20
-393.111592747732
 30
0.0
 10
258.3110049014294
 20
-391.8795905817684
 30
0.0
 10
261.3354966693008
 20
-392.9301218791558
 30
0.0
 10
264.6389554782604
 20
-391.3299107018921
 30
0.0
 10
265.6894866940443
 20
-388.3054189623644
 30
0.0
 10
266.7400179098281
 20
-385.2809272228375
 30
0.0
 10
265.139806732564
 20
-381.9774684138782
 30
0.0
 10
262.1153149930371
 20
-380.9269371980937
 30
0.0
 10
260.8833128206975
 20
-380.4990118303236
 30
0.0
 10
259.543007102115
 20
-380.4990118303236
 30
0.0
 10
258.3110049297752
 20
-380.9269371980937
 30
0.0
 10
259.3615361455612
 20
-377.9024454585667
 30
0.0
 10
257.7613249682988
 20
-374.5989866496062
 30
0.0
 10
254.7368332287718
 20
-373.5484554338204
 30
0.0
 10
251.7123414892451
 20
-372.4979242180346
 30
0.0
 10
248.4088826802845
 20
-374.0981353952964
 30
0.0
 10
247.3583514644984
 20
-377.122627134824
 30
0.0
 10
246.9304260967261
 20
-378.3546293071661
 30
0.0
 10
246.9304260967261
 20
-379.6949350257522
 30
0.0
 10
247.3583514644984
 20
-380.9269371980937
 30
0.0
 10
244.3338597249711
 20
-379.8764059823098
 30
0.0
 10
241.0304009160122
 20
-381.4766171595749
 30
0.0
 10
239.979869700229
 20
-384.5011088991018
 30
0.0
 10
238.9293384844455
 20
-387.5256006386295
 30
0.0
 10
240.5295496617102
 20
-390.8290594475887
 30
0.0
 10
243.5540414012375
 20
-391.879590663372
 30
0.0
 10
244.7860435735774
 20
-392.307516031142
 30
0.0
 10
246.1263492921599
 20
-392.307516031142
 30
0.0
 10
247.3583514361553
 20
-391.8795907449755
 30
0.0
  0
ENDBLK
  5
85
330
82
100
AcDbEntity
  8
0
100
AcDbBlockEnd
  0
BLOCK
  5
89
330
87
100
AcDbEntity
  8
0
100
AcDbBlockBegin
  2
block 16
 70
     0
 10
0.0
 20
0.0
 30
0.0
  3
block 16
  1

  0
SPLINE
  5
8B
330
87
100
AcDbEntity
  8
Layer 1
 62
     7
420
 16777215
370
    25
100
AcDbSpline
210
0.0
220
0.0
230
1.0
 70
    11
 71
     3
 72
    41
 73
    37
 74
     0
 42
0.0000000001
 43
0.0000000001
 12
1.0
 22
0.0
 32
0.0
 13
1.0
 23
0.0
 33
0.0
 40
0.0
 40
0.0
 40
0.0
 40
0.0
 40
1.0
 40
1.0
 40
1.0
 40
2.0
 40
2.0
 40
2.0
 40
3.0
 40
3.0
 40
3.0
 40
4.0
 40
4.0
 40
4.0
 40
5.0
 40
5.0
 40
5.0
 40
6.0
 40
6.0
 40
6.0
 40
7.0
 40
7.0
 40
7.0
 40
8.0
 40
8.0
 40
8.0
 40
9.0
 40
9.0
 40
9.0
 40
10.0
 40
10.0
 40
10.0
 40
11.0
 40
11.0
 40
11.0
 40
12.0
 40
12.0
 40
12.0
 40
12.0
 10
247.3583514644994
 20
-362.4388206880093
 30
0.0
 10
246.3078202487152
 20
-365.4633124275357
 30
0.0
 10
247.9080314259787
 20
-368.7667712364949
 30
0.0
 10
250.9325231655047
 20
-369.8173024522788
 30
0.0
 10
253.957014905031
 20
-370.8678336680626
 30
0.0
 10
257.26047371399
 20
-369.2676224907995
 30
0.0
 10
258.3110049297738
 20
-366.2431307512732
 30
0.0
 10
258.7389302975449
 20
-365.011128578933
 30
0.0
 10
258.7389302975449
 20
-363.6708228603501
 30
0.0
 10
258.3110049297738
 20
-362.4388206880093
 30
0.0
 10
261.3354966693008
 20
-363.4893519037932
 30
0.0
 10
264.6389554782604
 20
-361.8891407265294
 30
0.0
 10
265.6894866940443
 20
-358.8646489870025
 30
0.0
 10
266.7400179098281
 20
-355.8401572474755
 30
0.0
 10
265.139806732564
 20
-352.5366984385162
 30
0.0
 10
262.1153149930371
 20
-351.4861672227317
 30
0.0
 10
260.8833128206975
 20
-351.058241854961
 30
0.0
 10
259.543007102115
 20
-351.058241854961
 30
0.0
 10
258.3110049297752
 20
-351.4861672227317
 30
0.0
 10
259.3615361455612
 20
-348.4616754832041
 30
0.0
 10
257.761324968299
 20
-345.1582166742435
 30
0.0
 10
254.7368332287718
 20
-344.1076854584571
 30
0.0
 10
251.7123414892451
 20
-343.057154242672
 30
0.0
 10
248.4088826802845
 20
-344.6573654199338
 30
0.0
 10
247.3583514644984
 20
-347.6818571594615
 30
0.0
 10
246.9304260967261
 20
-348.9138593318036
 30
0.0
 10
246.9304260967261
 20
-350.2541650503896
 30
0.0
 10
247.3583514644984
 20
-351.4861672227317
 30
0.0
 10
244.3338597249711
 20
-350.4356360069485
 30
0.0
 10
241.0304009160122
 20
-352.0358471842129
 30
0.0
 10
239.979869700229
 20
-355.0603389237399
 30
0.0
 10
238.9293384844455
 20
-358.0848306632681
 30
0.0
 10
240.5295496617102
 20
-361.3882894722268
 30
0.0
 10
243.5540414012378
 20
-362.4388206880107
 30
0.0
 10
244.7860435735777
 20
-362.8667460557807
 30
0.0
 10
246.1263492921599
 20
-362.8667460557794
 30
0.0
 10
247.3583514644994
 20
-362.4388206880093
 30
0.0
  0
ENDBLK
  5
8A
330
87
100
AcDbEntity
  8
0
100
AcDbBlockEnd
  0
BLOCK
  5
8E
330
8C
100
AcDbEntity
  8
0
100
AcDbBlockBegin
  2
block 17
 70
     0
 10
0.0
 20
0.0
 30
0.0
  3
block 17
  1

  0
SPLINE
  5
90
330
8C
100
AcDbEntity
  8
Layer 1
 62
     7
420
 16777215
370
    25
100
AcDbSpline
210
0.0
220
0.0
230
1.0
 70
    11
 71
     3
 72
    29
 73
    25
 74
     0
 42
0.0000000001
 43
0.0000000001
 12
1.0
 22
0.0
 32
0.0
 13
1.0
 23
0.0
 33
0.0
 40
0.0
 40
0.0
 40
0.0
 40
0.0
 40
1.0
 40
1.0
 40
1.0
 40
2.0
 40
2.0
 40
2.0
 40
3.0
 40
3.0
 40
3.0
 40
4.0
 40
4.0
 40
4.0
 40
5.0
 40
5.0
 40
5.0
 40
6.0
 40
6.0
 40
6.0
 40
7.0
 40
7.0
 40
7.0
 40
8.0
 40
8.0
 40
8.0
 40
8.0
 10
261.6106429534291
 20
-377.6272990228456
 30
0.0
 10
261.2259500036708
 20
-375.2114904426144
 30
0.0
 10
259.8624174826718
 20
-373.0610990061273
 30
0.0
 10
257.8413709681154
 20
-371.6828788684454
 30
0.0
 10
259.8624175715378
 20
-370.3046587752523
 30
0.0
 10
261.2259500604936
 20
-368.1542673184484
 30
0.0
 10
261.6106429742536
 20
-365.738458732483
 30
0.0
 10
264.0264515602152
 20
-365.3537658187217
 30
0.0
 10
266.1768430170178
 20
-363.9902333297682
 30
0.0
 10
267.5550631848154
 20
-361.9691868357506
 30
0.0
 10
268.9332833526123
 20
-363.9902333297682
 30
0.0
 10
271.083674809414
 20
-365.353765818723
 30
0.0
 10
273.4994833953753
 20
-365.7384587324842
 30
0.0
 10
273.8841763091359
 20
-368.1542673184484
 30
0.0
 10
275.2477087980916
 20
-370.304658775253
 30
0.0
 10
277.2687552921118
 20
-371.6828789430512
 30
0.0
 10
275.2477087980923
 20
-373.0610991108494
 30
0.0
 10
273.8841763091365
 20
-375.2114905676534
 30
0.0
 10
273.4994833953762
 20
-377.6272991536175
 30
0.0
 10
271.0836748094147
 20
-378.0119920673781
 30
0.0
 10
268.9332833526126
 20
-379.3755245563335
 30
0.0
 10
267.5550631848154
 20
-381.3965710503505
 30
0.0
 10
266.1768430170175
 20
-379.3755245563335
 30
0.0
 10
264.0264515602152
 20
-378.0119920673781
 30
0.0
 10
261.6106429534291
 20
-377.6272990228456
 30
0.0
  0
ENDBLK
  5
8F
330
8C
100
AcDbEntity
  8
0
100
AcDbBlockEnd
  0
BLOCK
  5
93
330
91
100
AcDbEntity
  8
0
100
AcDbBlockBegin
  2
block 18
 70
     0
 10
0.0
 20
0.0
 30
0.0
  3
block 18
  1

  0
SPLINE
  5
95
330
91
100
AcDbEntity
  8
Layer 1
 62
     7
420
 16777215
370
    25
100
AcDbSpline
210
0.0
220
0.0
230
1.0
 70
    11
 71
     3
 72
    41
 73
    37
 74
     0
 42
0.0000000001
 43
0.0000000001
 12
1.0
 22
0.0
 32
0.0
 13
1.0
 23
0.0
 33
0.0
 40
0.0
 40
0.0
 40
0.0
 40
0.0
 40
1.0
 40
1.0
 40
1.0
 40
2.0
 40
2.0
 40
2.0
 40
3.0
 40
3.0
 40
3.0
 40
4.0
 40
4.0
 40
4.0
 40
5.0
 40
5.0
 40
5.0
 40
6.0
 40
6.0
 40
6.0
 40
7.0
 40
7.0
 40
7.0
 40
8.0
 40
8.0
 40
8.0
 40
9.0
 40
9.0
 40
9.0
 40
10.0
 40
10.0
 40
10.0
 40
11.0
 40
11.0
 40
11.0
 40
12.0
 40
12.0
 40
12.0
 40
12.0
 10
247.3583514644994
 20
-332.9980507126473
 30
0.0
 10
246.3078202487152
 20
-336.0225424521731
 30
0.0
 10
247.9080314259787
 20
-339.3260012611317
 30
0.0
 10
250.9325231655047
 20
-340.3765324769169
 30
0.0
 10
253.957014905031
 20
-341.4270636927
 30
0.0
 10
257.26047371399
 20
-339.8268525154369
 30
0.0
 10
258.3110049297738
 20
-336.8023607759112
 30
0.0
 10
258.7389302975449
 20
-335.5703586035704
 30
0.0
 10
258.7389302975449
 20
-334.2300528849876
 30
0.0
 10
258.3110049297738
 20
-332.9980507126473
 30
0.0
 10
261.3354967665587
 20
-334.0485819117072
 30
0.0
 10
264.6389555516727
 20
-332.4483706852175
 30
0.0
 10
265.6894867223884
 20
-329.4238789300356
 30
0.0
 10
266.7400178931042
 20
-326.3993871748544
 30
0.0
 10
265.1398066666144
 20
-323.09592838974
 30
0.0
 10
262.1153149114331
 20
-322.0453972190252
 30
0.0
 10
260.8833127327171
 20
-321.6174718696129
 30
0.0
 10
259.5430070141348
 20
-321.6174718895851
 30
0.0
 10
258.3110048481719
 20
-322.0453972757129
 30
0.0
 10
259.3615361455612
 20
-319.0209055078421
 30
0.0
 10
257.7613249682988
 20
-315.7174466988815
 30
0.0
 10
254.7368332287718
 20
-314.6669154830957
 30
0.0
 10
251.7123414892451
 20
-313.6163842673093
 30
0.0
 10
248.4088826802845
 20
-315.2165954445719
 30
0.0
 10
247.3583514644984
 20
-318.2410871840988
 30
0.0
 10
246.9304260967261
 20
-319.4730893564409
 30
0.0
 10
246.9304260967261
 20
-320.813395075027
 30
0.0
 10
247.3583514644984
 20
-322.0453972473691
 30
0.0
 10
244.3338597249711
 20
-320.9948660315858
 30
0.0
 10
241.0304009160125
 20
-322.5950772088503
 30
0.0
 10
239.979869700229
 20
-325.6195689483779
 30
0.0
 10
238.9293384844458
 20
-328.6440606879049
 30
0.0
 10
240.5295496617105
 20
-331.9475194968635
 30
0.0
 10
243.5540414012378
 20
-332.9980507126473
 30
0.0
 10
244.7860435735777
 20
-333.4259760804175
 30
0.0
 10
246.1263492921599
 20
-333.4259760804175
 30
0.0
 10
247.3583514644994
 20
-332.9980507126473
 30
0.0
  0
ENDBLK
  5
94
330
91
100
AcDbEntity
  8
0
100
AcDbBlockEnd
  0
BLOCK
  5
98
330
96
100
AcDbEntity
  8
0
100
AcDbBlockBegin
  2
block 19
 70
     0
 10
0.0
 20
0.0
 30
0.0
  3
block 19
  1

  0
SPLINE
  5
9A
330
96
100
AcDbEntity
  8
Layer 1
 62
     7
420
 16777215
370
    25
100
AcDbSpline
210
0.0
220
0.0
230
1.0
 70
    11
 71
     3
 72
    29
 73
    25
 74
     0
 42
0.0000000001
 43
0.0000000001
 12
1.0
 22
0.0
 32
0.0
 13
1.0
 23
0.0
 33
0.0
 40
0.0
 40
0.0
 40
0.0
 40
0.0
 40
1.0
 40
1.0
 40
1.0
 40
2.0
 40
2.0
 40
2.0
 40
3.0
 40
3.0
 40
3.0
 40
4.0
 40
4.0
 40
4.0
 40
5.0
 40
5.0
 40
5.0
 40
6.0
 40
6.0
 40
6.0
 40
7.0
 40
7.0
 40
7.0
 40
8.0
 40
8.0
 40
8.0
 40
8.0
 10
261.6106429742536
 20
-348.1865291782549
 30
0.0
 10
261.2259500604936
 20
-345.7707205922907
 30
0.0
 10
259.8624175715378
 20
-343.6203291354861
 30
0.0
 10
257.8413710775183
 20
-342.2421089676886
 30
0.0
 10
259.8624175715378
 20
-340.8638887998897
 30
0.0
 10
261.2259500604936
 20
-338.7134973430851
 30
0.0
 10
261.6106429742536
 20
-336.297688757121
 30
0.0
 10
264.0264515602152
 20
-335.9129958433597
 30
0.0
 10
266.1768430170178
 20
-334.5494633544056
 30
0.0
 10
267.5550631848154
 20
-332.528416860388
 30
0.0
 10
268.933283352612
 20
-334.5494633544056
 30
0.0
 10
271.083674809414
 20
-335.9129958433604
 30
0.0
 10
273.4994833953746
 20
-336.2976887571223
 30
0.0
 10
273.8841763659584
 20
-338.7134974681259
 30
0.0
 10
275.2477088869573
 20
-340.8638889046118
 30
0.0
 10
277.2687554015147
 20
-342.2421090422931
 30
0.0
 10
275.2477087980923
 20
-343.6203291354861
 30
0.0
 10
273.8841763091365
 20
-345.7707205922907
 30
0.0
 10
273.4994833953762
 20
-348.1865291782549
 30
0.0
 10
271.0836748094147
 20
-348.5712220920155
 30
0.0
 10
268.9332833526126
 20
-349.9347545809703
 30
0.0
 10
267.5550631848154
 20
-351.9558010749878
 30
0.0
 10
266.1768430170178
 20
-349.9347545809703
 30
0.0
 10
264.0264515602152
 20
-348.5712220920155
 30
0.0
 10
261.6106429742536
 20
-348.1865291782549
 30
0.0
  0
ENDBLK
  5
99
330
96
100
AcDbEntity
  8
0
100
AcDbBlockEnd
  0
BLOCK
  5
9D
330
9B
100
AcDbEntity
  8
0
100
AcDbBlockBegin
  2
block 20
 70
     0
 10
0.0
 20
0.0
 30
0.0
  3
block 20
  1

  0
SPLINE
  5
9F
330
9B
100
AcDbEntity
  8
Layer 1
 62
     7
420
 16777215
370
    25
100
AcDbSpline
210
0.0
220
0.0
230
1.0
 70
    11
 71
     3
 72
    41
 73
    37
 74
     0
 42
0.0000000001
 43
0.0000000001
 12
1.0
 22
0.0
 32
0.0
 13
1.0
 23
0.0
 33
0.0
 40
0.0
 40
0.0
 40
0.0
 40
0.0
 40
1.0
 40
1.0
 40
1.0
 40
2.0
 40
2.0
 40
2.0
 40
3.0
 40
3.0
 40
3.0
 40
4.0
 40
4.0
 40
4.0
 40
5.0
 40
5.0
 40
5.0
 40
6.0
 40
6.0
 40
6.0
 40
7.0
 40
7.0
 40
7.0
 40
8.0
 40
8.0
 40
8.0
 40
9.0
 40
9.0
 40
9.0
 40
10.0
 40
10.0
 40
10.0
 40
11.0
 40
11.0
 40
11.0
 40
12.0
 40
12.0
 40
12.0
 40
12.0
 10
247.3583514644994
 20
-303.5572807372841
 30
0.0
 10
246.3078202487152
 20
-306.5817724768104
 30
0.0
 10
247.9080314259787
 20
-309.8852312857684
 30
0.0
 10
250.9325231655047
 20
-310.9357625015535
 30
0.0
 10
253.957014905031
 20
-311.9862937173374
 30
0.0
 10
257.26047371399
 20
-310.3860825400743
 30
0.0
 10
258.3110049297738
 20
-307.361590800548
 30
0.0
 10
258.7389302975449
 20
-306.1295886282071
 30
0.0
 10
258.7389302975449
 20
-304.7892829096243
 30
0.0
 10
258.3110049297738
 20
-303.5572807372841
 30
0.0
 10
261.3354966693008
 20
-304.6078119530679
 30
0.0
 10
264.6389554782601
 20
-303.0076007758042
 30
0.0
 10
265.689486694044
 20
-299.9831090362772
 30
0.0
 10
266.7400179098281
 20
-296.9586172967502
 30
0.0
 10
265.1398067325637
 20
-293.6551584877909
 30
0.0
 10
262.1153149930371
 20
-292.6046272720071
 30
0.0
 10
260.8833128206975
 20
-292.1767019042364
 30
0.0
 10
259.5430071021147
 20
-292.1767019042364
 30
0.0
 10
258.3110049297752
 20
-292.6046272720064
 30
0.0
 10
259.3615361455612
 20
-289.5801355324795
 30
0.0
 10
257.761324968299
 20
-286.2766767235189
 30
0.0
 10
254.7368332287718
 20
-285.2261455077331
 30
0.0
 10
251.7123414892451
 20
-284.1756142919467
 30
0.0
 10
248.4088826802845
 20
-285.7758254692098
 30
0.0
 10
247.3583514644984
 20
-288.8003172087362
 30
0.0
 10
246.9304260967261
 20
-290.0323193810789
 30
0.0
 10
246.9304260967261
 20
-291.3726250996637
 30
0.0
 10
247.3583514644984
 20
-292.6046272720064
 30
0.0
 10
244.3338597249711
 20
-291.5540960562232
 30
0.0
 10
241.0304009160125
 20
-293.1543072334877
 30
0.0
 10
239.9798697002293
 20
-296.1787989730159
 30
0.0
 10
238.9293384844458
 20
-299.2032907125429
 30
0.0
 10
240.5295496617105
 20
-302.5067495215015
 30
0.0
 10
243.5540414012378
 20
-303.5572807372847
 30
0.0
 10
244.7860435735777
 20
-303.9852061050555
 30
0.0
 10
246.1263492921599
 20
-303.9852061050555
 30
0.0
 10
247.3583514644994
 20
-303.5572807372841
 30
0.0
  0
ENDBLK
  5
9E
330
9B
100
AcDbEntity
  8
0
100
AcDbBlockEnd
  0
BLOCK
  5
A2
330
A0
100
AcDbEntity
  8
0
100
AcDbBlockBegin
  2
block 21
 70
     0
 10
0.0
 20
0.0
 30
0.0
  3
block 21
  1

  0
SPLINE
  5
A4
330
A0
100
AcDbEntity
  8
Layer 1
 62
     7
420
 16777215
370
    25
100
AcDbSpline
210
0.0
220
0.0
230
1.0
 70
    11
 71
     3
 72
    29
 73
    25
 74
     0
 42
0.0000000001
 43
0.0000000001
 12
1.0
 22
0.0
 32
0.0
 13
1.0
 23
0.0
 33
0.0
 40
0.0
 40
0.0
 40
0.0
 40
0.0
 40
1.0
 40
1.0
 40
1.0
 40
2.0
 40
2.0
 40
2.0
 40
3.0
 40
3.0
 40
3.0
 40
4.0
 40
4.0
 40
4.0
 40
5.0
 40
5.0
 40
5.0
 40
6.0
 40
6.0
 40
6.0
 40
7.0
 40
7.0
 40
7.0
 40
8.0
 40
8.0
 40
8.0
 40
8.0
 10
261.6106429742536
 20
-318.7457592028923
 30
0.0
 10
261.2259500604933
 20
-316.3299506169288
 30
0.0
 10
259.8624175715378
 20
-314.1795591601235
 30
0.0
 10
257.8413710775183
 20
-312.8013389923253
 30
0.0
 10
259.8624175715378
 20
-311.4231188245277
 30
0.0
 10
261.2259500604936
 20
-309.2727273677225
 30
0.0
 10
261.6106429742536
 20
-306.8569187817583
 30
0.0
 10
264.0264515602152
 20
-306.4722258679977
 30
0.0
 10
266.1768430170178
 20
-305.108693379043
 30
0.0
 10
267.5550631848154
 20
-303.0876468850254
 30
0.0
 10
268.933283352612
 20
-305.1086933790436
 30
0.0
 10
271.083674809414
 20
-306.4722258679984
 30
0.0
 10
273.4994833953746
 20
-306.856918781759
 30
0.0
 10
273.8841763091356
 20
-309.2727273677237
 30
0.0
 10
275.2477087980916
 20
-311.4231188245283
 30
0.0
 10
277.2687552921111
 20
-312.8013389923253
 30
0.0
 10
275.2477087980923
 20
-314.1795591601235
 30
0.0
 10
273.8841763091365
 20
-316.3299506169288
 30
0.0
 10
273.4994833953762
 20
-318.7457592028929
 30
0.0
 10
271.0836746843755
 20
-319.1304521734759
 30
0.0
 10
268.9332832478912
 20
-320.493984694474
 30
0.0
 10
267.5550631102095
 20
-322.5150312090285
 30
0.0
 10
266.1768430170178
 20
-320.4939846056076
 30
0.0
 10
264.0264515602152
 20
-319.1304521166529
 30
0.0
 10
261.6106429742536
 20
-318.7457592028923
 30
0.0
  0
ENDBLK
  5
A3
330
A0
100
AcDbEntity
  8
0
100
AcDbBlockEnd
  0
BLOCK
  5
A7
330
A5
100
AcDbEntity
  8
0
100
AcDbBlockBegin
  2
block 22
 70
     0
 10
0.0
 20
0.0
 30
0.0
  3
block 22
  1

  0
SPLINE
  5
A9
330
A5
100
AcDbEntity
  8
Layer 1
 62
     7
420
 16777215
370
    25
100
AcDbSpline
210
0.0
220
0.0
230
1.0
 70
    11
 71
     3
 72
    41
 73
    37
 74
     0
 42
0.0000000001
 43
0.0000000001
 12
1.0
 22
0.0
 32
0.0
 13
1.0
 23
0.0
 33
0.0
 40
0.0
 40
0.0
 40
0.0
 40
0.0
 40
1.0
 40
1.0
 40
1.0
 40
2.0
 40
2.0
 40
2.0
 40
3.0
 40
3.0
 40
3.0
 40
4.0
 40
4.0
 40
4.0
 40
5.0
 40
5.0
 40
5.0
 40
6.0
 40
6.0
 40
6.0
 40
7.0
 40
7.0
 40
7.0
 40
8.0
 40
8.0
 40
8.0
 40
9.0
 40
9.0
 40
9.0
 40
10.0
 40
10.0
 40
10.0
 40
11.0
 40
11.0
 40
11.0
 40
12.0
 40
12.0
 40
12.0
 40
12.0
 10
247.3583514644994
 20
-274.1165107619215
 30
0.0
 10
246.3078202487152
 20
-277.1410025014478
 30
0.0
 10
247.9080314259787
 20
-280.4444613104064
 30
0.0
 10
250.9325231655047
 20
-281.4949925261909
 30
0.0
 10
253.957014905031
 20
-282.5455237419748
 30
0.0
 10
257.26047371399
 20
-280.9453125647116
 30
0.0
 10
258.3110049297738
 20
-277.920820825186
 30
0.0
 10
258.7389302975449
 20
-276.6888186528452
 30
0.0
 10
258.7389302975449
 20
-275.3485129342623
 30
0.0
 10
258.3110049297738
 20
-274.1165107619215
 30
0.0
 10
261.3354966693008
 20
-275.1670419777053
 30
0.0
 10
264.6389554782601
 20
-273.5668308004422
 30
0.0
 10
265.689486694044
 20
-270.5423390609146
 30
0.0
 10
266.7400179098281
 20
-267.5178473213876
 30
0.0
 10
265.1398067325637
 20
-264.2143885124283
 30
0.0
 10
262.1153149930371
 20
-263.1638572966445
 30
0.0
 10
260.8833128206975
 20
-262.7359319288744
 30
0.0
 10
259.5430071021147
 20
-262.7359319288744
 30
0.0
 10
258.3110049297752
 20
-263.1638572966445
 30
0.0
 10
259.3615361455616
 20
-260.1393655571175
 30
0.0
 10
257.761324968299
 20
-256.8359067481563
 30
0.0
 10
254.7368332287718
 20
-255.7853755323705
 30
0.0
 10
251.7123414892451
 20
-254.7348443165847
 30
0.0
 10
248.4088826802845
 20
-256.3350554938472
 30
0.0
 10
247.3583514644984
 20
-259.3595472333742
 30
0.0
 10
246.9304260967261
 20
-260.5915494057163
 30
0.0
 10
246.9304260967261
 20
-261.9318551243017
 30
0.0
 10
247.3583514644984
 20
-263.1638572966438
 30
0.0
 10
244.3338597249711
 20
-262.1133260808606
 30
0.0
 10
241.0304009160125
 20
-263.7135372581257
 30
0.0
 10
239.9798697002293
 20
-266.7380289976526
 30
0.0
 10
238.9293384844458
 20
-269.7625207371802
 30
0.0
 10
240.5295496617108
 20
-273.0659795461383
 30
0.0
 10
243.5540414012381
 20
-274.1165107619215
 30
0.0
 10
244.7860435735777
 20
-274.5444361296922
 30
0.0
 10
246.1263492921599
 20
-274.5444361296922
 30
0.0
 10
247.3583514644994
 20
-274.1165107619215
 30
0.0
  0
ENDBLK
  5
A8
330
A5
100
AcDbEntity
  8
0
100
AcDbBlockEnd
  0
BLOCK
  5
AC
330
AA
100
AcDbEntity
  8
0
100
AcDbBlockBegin
  2
block 23
 70
     0
 10
0.0
 20
0.0
 30
0.0
  3
block 23
  1

  0
SPLINE
  5
AE
330
AA
100
AcDbEntity
  8
Layer 1
 62
     7
420
 16777215
370
    25
100
AcDbSpline
210
0.0
220
0.0
230
1.0
 70
    11
 71
     3
 72
    29
 73
    25
 74
     0
 42
0.0000000001
 43
0.0000000001
 12
1.0
 22
0.0
 32
0.0
 13
1.0
 23
0.0
 33
0.0
 40
0.0
 40
0.0
 40
0.0
 40
0.0
 40
1.0
 40
1.0
 40
1.0
 40
2.0
 40
2.0
 40
2.0
 40
3.0
 40
3.0
 40
3.0
 40
4.0
 40
4.0
 40
4.0
 40
5.0
 40
5.0
 40
5.0
 40
6.0
 40
6.0
 40
6.0
 40
7.0
 40
7.0
 40
7.0
 40
8.0
 40
8.0
 40
8.0
 40
8.0
 10
261.6106429534291
 20
-289.3049890967578
 30
0.0
 10
261.2259500036708
 20
-286.8891805165259
 30
0.0
 10
259.8624174826718
 20
-284.7387890800395
 30
0.0
 10
257.8413709681154
 20
-283.3605689423568
 30
0.0
 10
259.8624175715378
 20
-281.9823488491645
 30
0.0
 10
261.2259500604936
 20
-279.8319573923592
 30
0.0
 10
261.6106429742536
 20
-277.4161488063957
 30
0.0
 10
264.0264515602152
 20
-277.0314558926345
 30
0.0
 10
266.1768430170175
 20
-275.6679234036803
 30
0.0
 10
267.5550631848154
 20
-273.6468769096641
 30
0.0
 10
268.933283352612
 20
-275.667923403681
 30
0.0
 10
271.083674809414
 20
-277.0314558926357
 30
0.0
 10
273.4994833953746
 20
-277.416148806397
 30
0.0
 10
273.8841763091359
 20
-279.8319573923611
 30
0.0
 10
275.2477087980919
 20
-281.9823488491651
 30
0.0
 10
277.2687552921118
 20
-283.3605690169627
 30
0.0
 10
275.2477087980923
 20
-284.7387891847609
 30
0.0
 10
273.8841763091365
 20
-286.8891806415655
 30
0.0
 10
273.4994833953762
 20
-289.3049892275296
 30
0.0
 10
271.0836748094147
 20
-289.6896821412909
 30
0.0
 10
268.9332833526126
 20
-291.0532146302463
 30
0.0
 10
267.5550631848154
 20
-293.0742611242632
 30
0.0
 10
266.1768430170178
 20
-291.053214630245
 30
0.0
 10
264.0264515602152
 20
-289.6896821412909
 30
0.0
 10
261.6106429534291
 20
-289.3049890967578
 30
0.0
  0
ENDBLK
  5
AD
330
AA
100
AcDbEntity
  8
0
100
AcDbBlockEnd
  0
BLOCK
  5
B1
330
AF
100
AcDbEntity
  8
0
100
AcDbBlockBegin
  2
block 24
 70
     0
 10
0.0
 20
0.0
 30
0.0
  3
block 24
  1

  0
SPLINE
  5
B3
330
AF
100
AcDbEntity
  8
Layer 1
 62
     7
420
 16777215
370
    25
100
AcDbSpline
210
0.0
220
0.0
230
1.0
 70
    11
 71
     3
 72
    41
 73
    37
 74
     0
 42
0.0000000001
 43
0.0000000001
 12
1.0
 22
0.0
 32
0.0
 13
1.0
 23
0.0
 33
0.0
 40
0.0
 40
0.0
 40
0.0
 40
0.0
 40
1.0
 40
1.0
 40
1.0
 40
2.0
 40
2.0
 40
2.0
 40
3.0
 40
3.0
 40
3.0
 40
4.0
 40
4.0
 40
4.0
 40
5.0
 40
5.0
 40
5.0
 40
6.0
 40
6.0
 40
6.0
 40
7.0
 40
7.0
 40
7.0
 40
8.0
 40
8.0
 40
8.0
 40
9.0
 40
9.0
 40
9.0
 40
10.0
 40
10.0
 40
10.0
 40
11.0
 40
11.0
 40
11.0
 40
12.0
 40
12.0
 40
12.0
 40
12.0
 10
276.7991214398556
 20
-391.8795906633713
 30
0.0
 10
275.7485902240714
 20
-394.9040824028983
 30
0.0
 10
277.3488014013355
 20
-398.2075412118569
 30
0.0
 10
280.3732931408612
 20
-399.2580724276408
 30
0.0
 10
283.3977848803876
 20
-400.3086036434253
 30
0.0
 10
286.7012436893462
 20
-398.7083924661609
 30
0.0
 10
287.7517749051304
 20
-395.6839007266358
 30
0.0
 10
288.1797002729011
 20
-394.451898554295
 30
0.0
 10
288.1797002729011
 20
-393.1115928357121
 30
0.0
 10
287.7517749051304
 20
-391.8795906633713
 30
0.0
 10
290.7762666446577
 20
-392.9301218791558
 30
0.0
 10
294.0797254536166
 20
-391.3299107018914
 30
0.0
 10
295.1302566694005
 20
-388.3054189623638
 30
0.0
 10
296.1807878851847
 20
-385.2809272228368
 30
0.0
 10
294.5805767079202
 20
-381.9774684138775
 30
0.0
 10
291.5560849683936
 20
-380.9269371980937
 30
0.0
 10
290.3240827960537
 20
-380.4990118303236
 30
0.0
 10
288.9837770774709
 20
-380.4990118303236
 30
0.0
 10
287.7517749051314
 20
-380.9269371980937
 30
0.0
 10
288.8023061209174
 20
-377.9024454585667
 30
0.0
 10
287.202094943655
 20
-374.5989866496062
 30
0.0
 10
284.177603204128
 20
-373.5484554338204
 30
0.0
 10
281.1531114646013
 20
-372.4979242180346
 30
0.0
 10
277.8496526556405
 20
-374.0981353952964
 30
0.0
 10
276.799121439855
 20
-377.122627134824
 30
0.0
 10
276.371196072082
 20
-378.3546293071661
 30
0.0
 10
276.371196072082
 20
-379.6949350257522
 30
0.0
 10
276.799121439855
 20
-380.9269371980937
 30
0.0
 10
273.7746296030692
 20
-379.8764059990344
 30
0.0
 10
270.4711708179558
 20
-381.4766172255249
 30
0.0
 10
269.4206396472407
 20
-384.5011089807061
 30
0.0
 10
268.370108476526
 20
-387.525600735888
 30
0.0
 10
269.9703197030164
 20
-390.8290595210017
 30
0.0
 10
272.9948114581976
 20
-391.8795906917158
 30
0.0
 10
274.2268136369137
 20
-392.3075160411288
 30
0.0
 10
275.5671193554969
 20
-392.3075160211566
 30
0.0
 10
276.7991214398556
 20
-391.8795906633713
 30
0.0
  0
ENDBLK
  5
B2
330
AF
100
AcDbEntity
  8
0
100
AcDbBlockEnd
  0
BLOCK
  5
B6
330
B4
100
AcDbEntity
  8
0
100
AcDbBlockBegin
  2
block 25
 70
     0
 10
0.0
 20
0.0
 30
0.0
  3
block 25
  1

  0
SPLINE
  5
B8
330
B4
100
AcDbEntity
  8
Layer 1
 62
     7
420
 16777215
370
    25
100
AcDbSpline
210
0.0
220
0.0
230
1.0
 70
    11
 71
     3
 72
    41
 73
    37
 74
     0
 42
0.0000000001
 43
0.0000000001
 12
1.0
 22
0.0
 32
0.0
 13
1.0
 23
0.0
 33
0.0
 40
0.0
 40
0.0
 40
0.0
 40
0.0
 40
1.0
 40
1.0
 40
1.0
 40
2.0
 40
2.0
 40
2.0
 40
3.0
 40
3.0
 40
3.0
 40
4.0
 40
4.0
 40
4.0
 40
5.0
 40
5.0
 40
5.0
 40
6.0
 40
6.0
 40
6.0
 40
7.0
 40
7.0
 40
7.0
 40
8.0
 40
8.0
 40
8.0
 40
9.0
 40
9.0
 40
9.0
 40
10.0
 40
10.0
 40
10.0
 40
11.0
 40
11.0
 40
11.0
 40
12.0
 40
12.0
 40
12.0
 40
12.0
 10
276.7991214398559
 20
-362.4388206880093
 30
0.0
 10
275.7485902240714
 20
-365.4633124275357
 30
0.0
 10
277.3488014013355
 20
-368.7667712364943
 30
0.0
 10
280.3732931408619
 20
-369.8173024522775
 30
0.0
 10
283.3977848803876
 20
-370.867833668062
 30
0.0
 10
286.7012436893462
 20
-369.2676224907989
 30
0.0
 10
287.7517749051304
 20
-366.2431307512725
 30
0.0
 10
288.1797002729011
 20
-365.011128578933
 30
0.0
 10
288.1797002729011
 20
-363.6708228603489
 30
0.0
 10
287.7517749051304
 20
-362.4388206880093
 30
0.0
 10
290.7762667419152
 20
-363.4893518870692
 30
0.0
 10
294.0797255270293
 20
-361.8891406605794
 30
0.0
 10
295.130256697745
 20
-358.8646489053982
 30
0.0
 10
296.1807878684607
 20
-355.840157150217
 30
0.0
 10
294.5805766419709
 20
-352.5366983651032
 30
0.0
 10
291.5560848867893
 20
-351.4861671943872
 30
0.0
 10
290.3240827080736
 20
-351.0582418449755
 30
0.0
 10
288.9837769894908
 20
-351.0582418649471
 30
0.0
 10
287.7517748235277
 20
-351.4861672510762
 30
0.0
 10
288.8023061209174
 20
-348.4616754832041
 30
0.0
 10
287.202094943655
 20
-345.1582166742435
 30
0.0
 10
284.177603204128
 20
-344.1076854584571
 30
0.0
 10
281.1531114646013
 20
-343.057154242672
 30
0.0
 10
277.8496526556405
 20
-344.6573654199338
 30
0.0
 10
276.799121439855
 20
-347.6818571594615
 30
0.0
 10
276.371196072082
 20
-348.9138593318036
 30
0.0
 10
276.371196072082
 20
-350.2541650503896
 30
0.0
 10
276.799121439855
 20
-351.4861672227317
 30
0.0
 10
273.7746297003271
 20
-350.4356360069485
 30
0.0
 10
270.4711708913684
 20
-352.0358471842135
 30
0.0
 10
269.4206396755849
 20
-355.0603389237411
 30
0.0
 10
268.370108459802
 20
-358.0848306632681
 30
0.0
 10
269.9703196370667
 20
-361.3882894722268
 30
0.0
 10
272.994811376594
 20
-362.4388206880107
 30
0.0
 10
274.2268135489339
 20
-362.8667460557807
 30
0.0
 10
275.5671192675167
 20
-362.8667460557801
 30
0.0
 10
276.7991214398559
 20
-362.4388206880093
 30
0.0
  0
ENDBLK
  5
B7
330
B4
100
AcDbEntity
  8
0
100
AcDbBlockEnd
  0
BLOCK
  5
BB
330
B9
100
AcDbEntity
  8
0
100
AcDbBlockBegin
  2
block 26
 70
     0
 10
0.0
 20
0.0
 30
0.0
  3
block 26
  1

  0
SPLINE
  5
BD
330
B9
100
AcDbEntity
  8
Layer 1
 62
     7
420
 16777215
370
    25
100
AcDbSpline
210
0.0
220
0.0
230
1.0
 70
    11
 71
     3
 72
    29
 73
    25
 74
     0
 42
0.0000000001
 43
0.0000000001
 12
1.0
 22
0.0
 32
0.0
 13
1.0
 23
0.0
 33
0.0
 40
0.0
 40
0.0
 40
0.0
 40
0.0
 40
1.0
 40
1.0
 40
1.0
 40
2.0
 40
2.0
 40
2.0
 40
3.0
 40
3.0
 40
3.0
 40
4.0
 40
4.0
 40
4.0
 40
5.0
 40
5.0
 40
5.0
 40
6.0
 40
6.0
 40
6.0
 40
7.0
 40
7.0
 40
7.0
 40
8.0
 40
8.0
 40
8.0
 40
8.0
 10
291.0514129287853
 20
-377.6272990228456
 30
0.0
 10
290.6667199790273
 20
-375.2114904426144
 30
0.0
 10
289.3031874580284
 20
-373.0610990061273
 30
0.0
 10
287.2821409434719
 20
-371.6828788684454
 30
0.0
 10
289.3031875468944
 20
-370.3046587752523
 30
0.0
 10
290.6667200358498
 20
-368.1542673184484
 30
0.0
 10
291.0514129496094
 20
-365.738458732483
 30
0.0
 10
293.4672215355714
 20
-365.3537658187217
 30
0.0
 10
295.6176129923737
 20
-363.9902333297682
 30
0.0
 10
296.9958331601713
 20
-361.9691868357506
 30
0.0
 10
298.3740534326903
 20
-363.9902334186339
 30
0.0
 10
300.5244449098095
 20
-365.3537658755454
 30
0.0
 10
302.9402535015039
 20
-365.7384587533086
 30
0.0
 10
303.3249462844921
 20
-368.1542673184484
 30
0.0
 10
304.6884787734481
 20
-370.304658775253
 30
0.0
 10
306.7095252674677
 20
-371.6828789430512
 30
0.0
 10
304.6884787734481
 20
-373.0610991108494
 30
0.0
 10
303.3249462844927
 20
-375.2114905676534
 30
0.0
 10
302.9402533707328
 20
-377.6272991536175
 30
0.0
 10
300.5244447847712
 20
-378.0119920673781
 30
0.0
 10
298.3740533279689
 20
-379.3755245563335
 30
0.0
 10
296.9958331601713
 20
-381.3965710503505
 30
0.0
 10
295.6176128876526
 20
-379.3755244674672
 30
0.0
 10
293.4672214105321
 20
-378.0119920105563
 30
0.0
 10
291.0514129287853
 20
-377.6272990228456
 30
0.0
  0
ENDBLK
  5
BC
330
B9
100
AcDbEntity
  8
0
100
AcDbBlockEnd
  0
BLOCK
  5
C0
330
BE
100
AcDbEntity
  8
0
100
AcDbBlockBegin
  2
block 27
 70
     0
 10
0.0
 20
0.0
 30
0.0
  3
block 27
  1

  0
SPLINE
  5
C2
330
BE
100
AcDbEntity
  8
Layer 1
 62
     7
420
 16777215
370
    25
100
AcDbSpline
210
0.0
220
0.0
230
1.0
 70
    11
 71
     3
 72
    41
 73
    37
 74
     0
 42
0.0000000001
 43
0.0000000001
 12
1.0
 22
0.0
 32
0.0
 13
1.0
 23
0.0
 33
0.0
 40
0.0
 40
0.0
 40
0.0
 40
0.0
 40
1.0
 40
1.0
 40
1.0
 40
2.0
 40
2.0
 40
2.0
 40
3.0
 40
3.0
 40
3.0
 40
4.0
 40
4.0
 40
4.0
 40
5.0
 40
5.0
 40
5.0
 40
6.0
 40
6.0
 40
6.0
 40
7.0
 40
7.0
 40
7.0
 40
8.0
 40
8.0
 40
8.0
 40
9.0
 40
9.0
 40
9.0
 40
10.0
 40
10.0
 40
10.0
 40
11.0
 40
11.0
 40
11.0
 40
12.0
 40
12.0
 40
12.0
 40
12.0
 10
276.7991214398559
 20
-332.9980507126473
 30
0.0
 10
275.7485902240714
 20
-336.0225424521731
 30
0.0
 10
277.3488014013355
 20
-339.3260012611317
 30
0.0
 10
280.3732931408619
 20
-340.3765324769155
 30
0.0
 10
283.3977848803876
 20
-341.4270636926994
 30
0.0
 10
286.7012436893462
 20
-339.8268525154369
 30
0.0
 10
287.7517749051304
 20
-336.8023607759099
 30
0.0
 10
288.1797002729011
 20
-335.5703586035697
 30
0.0
 10
288.1797002729011
 20
-334.2300528849869
 30
0.0
 10
287.7517749051304
 20
-332.9980507126473
 30
0.0
 10
290.7762666446577
 20
-334.0485819284306
 30
0.0
 10
294.0797254536166
 20
-332.4483707511661
 30
0.0
 10
295.1302566694005
 20
-329.4238790116392
 30
0.0
 10
296.1807878851847
 20
-326.3993872721122
 30
0.0
 10
294.5805767079199
 20
-323.0959284631529
 30
0.0
 10
291.5560849683933
 20
-322.0453972473691
 30
0.0
 10
290.3240827960534
 20
-321.6174718795983
 30
0.0
 10
288.9837770774709
 20
-321.6174718795983
 30
0.0
 10
287.7517749051314
 20
-322.0453972473691
 30
0.0
 10
288.8023061209174
 20
-319.0209055078421
 30
0.0
 10
287.202094943655
 20
-315.7174466988815
 30
0.0
 10
284.177603204128
 20
-314.6669154830957
 30
0.0
 10
281.1531114646013
 20
-313.6163842673093
 30
0.0
 10
277.8496526556405
 20
-315.2165954445719
 30
0.0
 10
276.799121439855
 20
-318.2410871840988
 30
0.0
 10
276.371196072082
 20
-319.4730893564409
 30
0.0
 10
276.371196072082
 20
-320.813395075027
 30
0.0
 10
276.799121439855
 20
-322.0453972473691
 30
0.0
 10
273.7746297003277
 20
-320.9948660315858
 30
0.0
 10
270.4711708913684
 20
-322.5950772088503
 30
0.0
 10
269.4206396755855
 20
-325.6195689483779
 30
0.0
 10
268.370108459802
 20
-328.6440606879049
 30
0.0
 10
269.9703196370667
 20
-331.9475194968635
 30
0.0
 10
272.9948113765947
 20
-332.9980507126473
 30
0.0
 10
274.2268135489339
 20
-333.4259760804175
 30
0.0
 10
275.5671192675167
 20
-333.4259760804175
 30
0.0
 10
276.7991214398559
 20
-332.9980507126473
 30
0.0
  0
ENDBLK
  5
C1
330
BE
100
AcDbEntity
  8
0
100
AcDbBlockEnd
  0
BLOCK
  5
C5
330
C3
100
AcDbEntity
  8
0
100
AcDbBlockBegin
  2
block 28
 70
     0
 10
0.0
 20
0.0
 30
0.0
  3
block 28
  1

  0
SPLINE
  5
C7
330
C3
100
AcDbEntity
  8
Layer 1
 62
     7
420
 16777215
370
    25
100
AcDbSpline
210
0.0
220
0.0
230
1.0
 70
    11
 71
     3
 72
    29
 73
    25
 74
     0
 42
0.0000000001
 43
0.0000000001
 12
1.0
 22
0.0
 32
0.0
 13
1.0
 23
0.0
 33
0.0
 40
0.0
 40
0.0
 40
0.0
 40
0.0
 40
1.0
 40
1.0
 40
1.0
 40
2.0
 40
2.0
 40
2.0
 40
3.0
 40
3.0
 40
3.0
 40
4.0
 40
4.0
 40
4.0
 40
5.0
 40
5.0
 40
5.0
 40
6.0
 40
6.0
 40
6.0
 40
7.0
 40
7.0
 40
7.0
 40
8.0
 40
8.0
 40
8.0
 40
8.0
 10
291.0514129496094
 20
-348.1865291782549
 30
0.0
 10
290.6667200358498
 20
-345.7707205922907
 30
0.0
 10
289.303187546894
 20
-343.6203291354861
 30
0.0
 10
287.2821410528746
 20
-342.2421089676886
 30
0.0
 10
289.303187546894
 20
-340.8638887998897
 30
0.0
 10
290.6667200358498
 20
-338.7134973430851
 30
0.0
 10
291.0514129496094
 20
-336.297688757121
 30
0.0
 10
293.4672215355714
 20
-335.9129958433597
 30
0.0
 10
295.6176129923737
 20
-334.5494633544056
 30
0.0
 10
296.9958331601713
 20
-332.528416860388
 30
0.0
 10
298.3740533279685
 20
-334.5494633544056
 30
0.0
 10
300.5244447847699
 20
-335.9129958433604
 30
0.0
 10
302.9402533707315
 20
-336.2976887571216
 30
0.0
 10
303.3249462844921
 20
-338.7134973430851
 30
0.0
 10
304.6884787734481
 20
-340.8638887998903
 30
0.0
 10
306.7095252674677
 20
-342.2421089676886
 30
0.0
 10
304.6884787734481
 20
-343.6203291354861
 30
0.0
 10
303.3249462844927
 20
-345.7707205922907
 30
0.0
 10
302.9402533707328
 20
-348.1865291782549
 30
0.0
 10
300.5244447847712
 20
-348.5712220920155
 30
0.0
 10
298.3740533279689
 20
-349.9347545809703
 30
0.0
 10
296.9958331601713
 20
-351.9558010749878
 30
0.0
 10
295.6176129923737
 20
-349.9347545809703
 30
0.0
 10
293.4672215355714
 20
-348.5712220920155
 30
0.0
 10
291.0514129496094
 20
-348.1865291782549
 30
0.0
  0
ENDBLK
  5
C6
330
C3
100
AcDbEntity
  8
0
100
AcDbBlockEnd
  0
BLOCK
  5
CA
330
C8
100
AcDbEntity
  8
0
100
AcDbBlockBegin
  2
block 29
 70
     0
 10
0.0
 20
0.0
 30
0.0
  3
block 29
  1

  0
SPLINE
  5
CC
330
C8
100
AcDbEntity
  8
Layer 1
 62
     7
420
 16777215
370
    25
100
AcDbSpline
210
0.0
220
0.0
230
1.0
 70
    11
 71
     3
 72
    41
 73
    37
 74
     0
 42
0.0000000001
 43
0.0000000001
 12
1.0
 22
0.0
 32
0.0
 13
1.0
 23
0.0
 33
0.0
 40
0.0
 40
0.0
 40
0.0
 40
0.0
 40
1.0
 40
1.0
 40
1.0
 40
2.0
 40
2.0
 40
2.0
 40
3.0
 40
3.0
 40
3.0
 40
4.0
 40
4.0
 40
4.0
 40
5.0
 40
5.0
 40
5.0
 40
6.0
 40
6.0
 40
6.0
 40
7.0
 40
7.0
 40
7.0
 40
8.0
 40
8.0
 40
8.0
 40
9.0
 40
9.0
 40
9.0
 40
10.0
 40
10.0
 40
10.0
 40
11.0
 40
11.0
 40
11.0
 40
12.0
 40
12.0
 40
12.0
 40
12.0
 10
276.7991214398559
 20
-303.5572807372841
 30
0.0
 10
275.7485902240714
 20
-306.5817724768104
 30
0.0
 10
277.3488014013355
 20
-309.8852312857684
 30
0.0
 10
280.3732931408612
 20
-310.9357625015535
 30
0.0
 10
283.3977848803876
 20
-311.9862937173374
 30
0.0
 10
286.7012436893462
 20
-310.3860825400736
 30
0.0
 10
287.7517749051304
 20
-307.3615908005467
 30
0.0
 10
288.1797002729011
 20
-306.1295886282071
 30
0.0
 10
288.1797002729011
 20
-304.7892829096243
 30
0.0
 10
287.7517749051304
 20
-303.5572807372841
 30
0.0
 10
290.7762666446574
 20
-304.6078119530679
 30
0.0
 10
294.0797254536166
 20
-303.0076007758042
 30
0.0
 10
295.1302566694005
 20
-299.9831090362772
 30
0.0
 10
296.1807878851843
 20
-296.9586172967496
 30
0.0
 10
294.5805767079199
 20
-293.6551584877909
 30
0.0
 10
291.5560849683933
 20
-292.6046272720064
 30
0.0
 10
290.3240827960534
 20
-292.1767019042364
 30
0.0
 10
288.9837770774709
 20
-292.1767019042364
 30
0.0
 10
287.7517749051314
 20
-292.6046272720064
 30
0.0
 10
288.8023061209174
 20
-289.5801355324795
 30
0.0
 10
287.202094943655
 20
-286.2766767235189
 30
0.0
 10
284.177603204128
 20
-285.2261455077331
 30
0.0
 10
281.1531114646013
 20
-284.1756142919467
 30
0.0
 10
277.8496526556405
 20
-285.7758254692098
 30
0.0
 10
276.799121439855
 20
-288.8003172087362
 30
0.0
 10
276.371196072082
 20
-290.0323193810789
 30
0.0
 10
276.371196072082
 20
-291.3726250996637
 30
0.0
 10
276.799121439855
 20
-292.6046272720064
 30
0.0
 10
273.7746296030692
 20
-291.5540960729479
 30
0.0
 10
270.4711708179558
 20
-293.1543072994376
 30
0.0
 10
269.4206396472407
 20
-296.1787990546195
 30
0.0
 10
268.3701084765262
 20
-299.2032908098007
 30
0.0
 10
269.9703197030167
 20
-302.5067495949139
 30
0.0
 10
272.9948114581979
 20
-303.5572807656292
 30
0.0
 10
274.2268136369137
 20
-303.985206115041
 30
0.0
 10
275.5671193554962
 20
-303.9852060950694
 30
0.0
 10
276.7991214398559
 20
-303.5572807372841
 30
0.0
  0
ENDBLK
  5
CB
330
C8
100
AcDbEntity
  8
0
100
AcDbBlockEnd
  0
BLOCK
  5
CF
330
CD
100
AcDbEntity
  8
0
100
AcDbBlockBegin
  2
block 30
 70
     0
 10
0.0
 20
0.0
 30
0.0
  3
block 30
  1

  0
SPLINE
  5
D1
330
CD
100
AcDbEntity
  8
Layer 1
 62
     7
420
 16777215
370
    25
100
AcDbSpline
210
0.0
220
0.0
230
1.0
 70
    11
 71
     3
 72
    29
 73
    25
 74
     0
 42
0.0000000001
 43
0.0000000001
 12
1.0
 22
0.0
 32
0.0
 13
1.0
 23
0.0
 33
0.0
 40
0.0
 40
0.0
 40
0.0
 40
0.0
 40
1.0
 40
1.0
 40
1.0
 40
2.0
 40
2.0
 40
2.0
 40
3.0
 40
3.0
 40
3.0
 40
4.0
 40
4.0
 40
4.0
 40
5.0
 40
5.0
 40
5.0
 40
6.0
 40
6.0
 40
6.0
 40
7.0
 40
7.0
 40
7.0
 40
8.0
 40
8.0
 40
8.0
 40
8.0
 10
291.0514129496094
 20
-318.7457592028923
 30
0.0
 10
290.6667200358498
 20
-316.3299506169288
 30
0.0
 10
289.3031875468944
 20
-314.1795591601235
 30
0.0
 10
287.2821410528746
 20
-312.8013389923253
 30
0.0
 10
289.303187546894
 20
-311.4231188245277
 30
0.0
 10
290.6667200358498
 20
-309.2727273677225
 30
0.0
 10
291.0514129496094
 20
-306.8569187817583
 30
0.0
 10
293.4672215355714
 20
-306.4722258679977
 30
0.0
 10
295.6176129923737
 20
-305.108693379043
 30
0.0
 10
296.9958331601713
 20
-303.087646885026
 30
0.0
 10
298.3740533279685
 20
-305.1086933790436
 30
0.0
 10
300.5244447847699
 20
-306.4722258679984
 30
0.0
 10
302.9402533707315
 20
-306.856918781759
 30
0.0
 10
303.3249462844921
 20
-309.2727273677231
 30
0.0
 10
304.6884787734481
 20
-311.4231188245277
 30
0.0
 10
306.7095252674677
 20
-312.8013389923253
 30
0.0
 10
304.6884787734481
 20
-314.1795591601235
 30
0.0
 10
303.3249462844927
 20
-316.3299506169288
 30
0.0
 10
302.9402533707328
 20
-318.7457592028929
 30
0.0
 10
300.5244447847712
 20
-319.1304521166529
 30
0.0
 10
298.3740533279689
 20
-320.493984605607
 30
0.0
 10
296.9958331601713
 20
-322.5150310996252
 30
0.0
 10
295.6176129923737
 20
-320.4939846056083
 30
0.0
 10
293.4672215355714
 20
-319.1304521166529
 30
0.0
 10
291.0514129496094
 20
-318.7457592028923
 30
0.0
  0
ENDBLK
  5
D0
330
CD
100
AcDbEntity
  8
0
100
AcDbBlockEnd
  0
BLOCK
  5
D4
330
D2
100
AcDbEntity
  8
0
100
AcDbBlockBegin
  2
block 31
 70
     0
 10
0.0
 20
0.0
 30
0.0
  3
block 31
  1

  0
SPLINE
  5
D6
330
D2
100
AcDbEntity
  8
Layer 1
 62
     7
420
 16777215
370
    25
100
AcDbSpline
210
0.0
220
0.0
230
1.0
 70
    11
 71
     3
 72
    41
 73
    37
 74
     0
 42
0.0000000001
 43
0.0000000001
 12
1.0
 22
0.0
 32
0.0
 13
1.0
 23
0.0
 33
0.0
 40
0.0
 40
0.0
 40
0.0
 40
0.0
 40
1.0
 40
1.0
 40
1.0
 40
2.0
 40
2.0
 40
2.0
 40
3.0
 40
3.0
 40
3.0
 40
4.0
 40
4.0
 40
4.0
 40
5.0
 40
5.0
 40
5.0
 40
6.0
 40
6.0
 40
6.0
 40
7.0
 40
7.0
 40
7.0
 40
8.0
 40
8.0
 40
8.0
 40
9.0
 40
9.0
 40
9.0
 40
10.0
 40
10.0
 40
10.0
 40
11.0
 40
11.0
 40
11.0
 40
12.0
 40
12.0
 40
12.0
 40
12.0
 10
276.7991214398559
 20
-274.1165107619215
 30
0.0
 10
275.7485902240714
 20
-277.1410025014478
 30
0.0
 10
277.3488014013355
 20
-280.4444613104058
 30
0.0
 10
280.3732931408612
 20
-281.4949925261903
 30
0.0
 10
283.3977848803876
 20
-282.5455237419741
 30
0.0
 10
286.7012436893462
 20
-280.9453125647116
 30
0.0
 10
287.7517749051304
 20
-277.9208208251847
 30
0.0
 10
288.1797002729011
 20
-276.6888186528452
 30
0.0
 10
288.1797002729011
 20
-275.3485129342616
 30
0.0
 10
287.7517749051304
 20
-274.1165107619215
 30
0.0
 10
290.7762666446577
 20
-275.1670419777053
 30
0.0
 10
294.0797254536166
 20
-273.5668308004409
 30
0.0
 10
295.1302566694005
 20
-270.5423390609146
 30
0.0
 10
296.1807878851843
 20
-267.5178473213876
 30
0.0
 10
294.5805767079199
 20
-264.2143885124283
 30
0.0
 10
291.5560849683926
 20
-263.1638572966445
 30
0.0
 10
290.3240827960534
 20
-262.7359319288744
 30
0.0
 10
288.9837770774709
 20
-262.7359319288744
 30
0.0
 10
287.7517749051314
 20
-263.1638572966438
 30
0.0
 10
288.8023061209174
 20
-260.1393655571175
 30
0.0
 10
287.202094943655
 20
-256.8359067481563
 30
0.0
 10
284.177603204128
 20
-255.7853755323705
 30
0.0
 10
281.1531114646013
 20
-254.7348443165847
 30
0.0
 10
277.8496526556405
 20
-256.3350554938472
 30
0.0
 10
276.799121439855
 20
-259.3595472333742
 30
0.0
 10
276.371196072082
 20
-260.5915494057163
 30
0.0
 10
276.371196072082
 20
-261.9318551243017
 30
0.0
 10
276.799121439855
 20
-263.1638572966438
 30
0.0
 10
273.7746297003277
 20
-262.1133260808613
 30
0.0
 10
270.4711708913684
 20
-263.7135372581257
 30
0.0
 10
269.4206396755855
 20
-266.7380289976526
 30
0.0
 10
268.370108459802
 20
-269.7625207371802
 30
0.0
 10
269.9703196370671
 20
-273.0659795461395
 30
0.0
 10
272.9948113765947
 20
-274.1165107619221
 30
0.0
 10
274.2268135489342
 20
-274.5444361296928
 30
0.0
 10
275.5671192675167
 20
-274.5444361296922
 30
0.0
 10
276.7991214398559
 20
-274.1165107619215
 30
0.0
  0
ENDBLK
  5
D5
330
D2
100
AcDbEntity
  8
0
100
AcDbBlockEnd
  0
BLOCK
  5
D9
330
D7
100
AcDbEntity
  8
0
100
AcDbBlockBegin
  2
block 32
 70
     0
 10
0.0
 20
0.0
 30
0.0
  3
block 32
  1

  0
SPLINE
  5
DB
330
D7
100
AcDbEntity
  8
Layer 1
 62
     7
420
 16777215
370
    25
100
AcDbSpline
210
0.0
220
0.0
230
1.0
 70
    11
 71
     3
 72
    29
 73
    25
 74
     0
 42
0.0000000001
 43
0.0000000001
 12
1.0
 22
0.0
 32
0.0
 13
1.0
 23
0.0
 33
0.0
 40
0.0
 40
0.0
 40
0.0
 40
0.0
 40
1.0
 40
1.0
 40
1.0
 40
2.0
 40
2.0
 40
2.0
 40
3.0
 40
3.0
 40
3.0
 40
4.0
 40
4.0
 40
4.0
 40
5.0
 40
5.0
 40
5.0
 40
6.0
 40
6.0
 40
6.0
 40
7.0
 40
7.0
 40
7.0
 40
8.0
 40
8.0
 40
8.0
 40
8.0
 10
291.0514129287853
 20
-289.3049890967578
 30
0.0
 10
290.6667199790277
 20
-286.8891805165259
 30
0.0
 10
289.3031874580284
 20
-284.7387890800401
 30
0.0
 10
287.2821409434719
 20
-283.3605689423568
 30
0.0
 10
289.303187546894
 20
-281.9823488491645
 30
0.0
 10
290.6667200358498
 20
-279.8319573923592
 30
0.0
 10
291.0514129496094
 20
-277.4161488063957
 30
0.0
 10
293.4672215355714
 20
-277.0314558926345
 30
0.0
 10
295.6176129923737
 20
-275.6679234036803
 30
0.0
 10
296.9958331601713
 20
-273.6468769096634
 30
0.0
 10
298.3740533279685
 20
-275.667923403681
 30
0.0
 10
300.5244447847699
 20
-277.0314558926357
 30
0.0
 10
302.9402533707315
 20
-277.416148806397
 30
0.0
 10
303.3249463413146
 20
-279.8319575174007
 30
0.0
 10
304.6884788623138
 20
-281.9823489538865
 30
0.0
 10
306.7095253768709
 20
-283.3605690915679
 30
0.0
 10
304.6884787734481
 20
-284.7387891847609
 30
0.0
 10
303.3249462844927
 20
-286.8891806415655
 30
0.0
 10
302.9402533707328
 20
-289.3049892275296
 30
0.0
 10
300.5244447847712
 20
-289.6896821412909
 30
0.0
 10
298.3740533279689
 20
-291.0532146302456
 30
0.0
 10
296.9958331601713
 20
-293.0742611242626
 30
0.0
 10
295.617612992374
 20
-291.053214630245
 30
0.0
 10
293.4672215355714
 20
-289.6896821412909
 30
0.0
 10
291.0514129287853
 20
-289.3049890967578
 30
0.0
  0
ENDBLK
  5
DA
330
D7
100
AcDbEntity
  8
0
100
AcDbBlockEnd
  0
BLOCK
  5
DE
330
DC
100
AcDbEntity
  8
0
100
AcDbBlockBegin
  2
block 33
 70
     0
 10
0.0
 20
0.0
 30
0.0
  3
block 33
  1

  0
SPLINE
  5
E0
330
DC
100
AcDbEntity
  8
Layer 1
 62
     7
420
 16777215
370
    25
100
AcDbSpline
210
0.0
220
0.0
230
1.0
 70
    11
 71
     3
 72
    41
 73
    37
 74
     0
 42
0.0000000001
 43
0.0000000001
 12
1.0
 22
0.0
 32
0.0
 13
1.0
 23
0.0
 33
0.0
 40
0.0
 40
0.0
 40
0.0
 40
0.0
 40
1.0
 40
1.0
 40
1.0
 40
2.0
 40
2.0
 40
2.0
 40
3.0
 40
3.0
 40
3.0
 40
4.0
 40
4.0
 40
4.0
 40
5.0
 40
5.0
 40
5.0
 40
6.0
 40
6.0
 40
6.0
 40
7.0
 40
7.0
 40
7.0
 40
8.0
 40
8.0
 40
8.0
 40
9.0
 40
9.0
 40
9.0
 40
10.0
 40
10.0
 40
10.0
 40
11.0
 40
11.0
 40
11.0
 40
12.0
 40
12.0
 40
12.0
 40
12.0
 10
306.2398914152121
 20
-391.8795906633713
 30
0.0
 10
305.1893601994277
 20
-394.9040824028983
 30
0.0
 10
306.7895713766914
 20
-398.2075412118569
 30
0.0
 10
309.8140631162178
 20
-399.2580724276408
 30
0.0
 10
312.8385548557441
 20
-400.3086036434253
 30
0.0
 10
316.1420136647027
 20
-398.7083924661609
 30
0.0
 10
317.1925448804866
 20
-395.6839007266358
 30
0.0
 10
317.620470248258
 20
-394.451898554295
 30
0.0
 10
317.620470248258
 20
-393.1115928357121
 30
0.0
 10
317.1925448804866
 20
-391.8795906633713
 30
0.0
 10
320.2170367172714
 20
-392.9301218624312
 30
0.0
 10
323.5204955023858
 20
-391.329910635942
 30
0.0
 10
324.5710266731018
 20
-388.3054188807608
 30
0.0
 10
325.6215578438166
 20
-385.2809271255796
 30
0.0
 10
324.0213466173268
 20
-381.9774683404652
 30
0.0
 10
320.9968548621462
 20
-380.9269371697505
 30
0.0
 10
319.7648526834301
 20
-380.4990118203375
 30
0.0
 10
318.4245469648473
 20
-380.4990118403097
 30
0.0
 10
317.1925447988843
 20
-380.9269372264382
 30
0.0
 10
318.2430760962736
 20
-377.9024454585667
 30
0.0
 10
316.6428649190118
 20
-374.5989866496062
 30
0.0
 10
313.6183731794842
 20
-373.5484554338204
 30
0.0
 10
310.5938814399578
 20
-372.4979242180346
 30
0.0
 10
307.2904226309967
 20
-374.0981353952964
 30
0.0
 10
306.2398914152109
 20
-377.122627134824
 30
0.0
 10
305.8119660474382
 20
-378.3546293071661
 30
0.0
 10
305.8119660474382
 20
-379.6949350257522
 30
0.0
 10
306.2398914152109
 20
-380.9269371980937
 30
0.0
 10
303.2153996756839
 20
-379.8764059823105
 30
0.0
 10
299.9119408667249
 20
-381.4766171595749
 30
0.0
 10
298.8614096509414
 20
-384.5011088991031
 30
0.0
 10
297.8108784351585
 20
-387.5256006386301
 30
0.0
 10
299.4110896124226
 20
-390.8290594475887
 30
0.0
 10
302.4355813519502
 20
-391.8795906633726
 30
0.0
 10
303.6675835242897
 20
-392.3075160311427
 30
0.0
 10
305.0078892428726
 20
-392.307516031142
 30
0.0
 10
306.2398914152121
 20
-391.8795906633713
 30
0.0
  0
ENDBLK
  5
DF
330
DC
100
AcDbEntity
  8
0
100
AcDbBlockEnd
  0
BLOCK
  5
E3
330
E1
100
AcDbEntity
  8
0
100
AcDbBlockBegin
  2
block 34
 70
     0
 10
0.0
 20
0.0
 30
0.0
  3
block 34
  1

  0
SPLINE
  5
E5
330
E1
100
AcDbEntity
  8
Layer 1
 62
     7
420
 16777215
370
    25
100
AcDbSpline
210
0.0
220
0.0
230
1.0
 70
    11
 71
     3
 72
    41
 73
    37
 74
     0
 42
0.0000000001
 43
0.0000000001
 12
1.0
 22
0.0
 32
0.0
 13
1.0
 23
0.0
 33
0.0
 40
0.0
 40
0.0
 40
0.0
 40
0.0
 40
1.0
 40
1.0
 40
1.0
 40
2.0
 40
2.0
 40
2.0
 40
3.0
 40
3.0
 40
3.0
 40
4.0
 40
4.0
 40
4.0
 40
5.0
 40
5.0
 40
5.0
 40
6.0
 40
6.0
 40
6.0
 40
7.0
 40
7.0
 40
7.0
 40
8.0
 40
8.0
 40
8.0
 40
9.0
 40
9.0
 40
9.0
 40
10.0
 40
10.0
 40
10.0
 40
11.0
 40
11.0
 40
11.0
 40
12.0
 40
12.0
 40
12.0
 40
12.0
 10
306.2398914152121
 20
-362.4388206880093
 30
0.0
 10
305.1893601994283
 20
-365.4633124275357
 30
0.0
 10
306.7895713766914
 20
-368.7667712364943
 30
0.0
 10
309.8140631162178
 20
-369.8173024522775
 30
0.0
 10
312.8385548557441
 20
-370.867833668062
 30
0.0
 10
316.1420136647027
 20
-369.2676224907989
 30
0.0
 10
317.1925448804866
 20
-366.2431307512725
 30
0.0
 10
317.6204702482573
 20
-365.011128578933
 30
0.0
 10
317.6204702482573
 20
-363.6708228603489
 30
0.0
 10
317.1925448804866
 20
-362.4388206880093
 30
0.0
 10
320.2170366200142
 20
-363.4893519037932
 30
0.0
 10
323.5204954289728
 20
-361.8891407265294
 30
0.0
 10
324.5710266447567
 20
-358.8646489870025
 30
0.0
 10
325.6215578605405
 20
-355.8401572474755
 30
0.0
 10
324.0213466832768
 20
-352.5366984385162
 30
0.0
 10
320.9968549437498
 20
-351.4861672227317
 30
0.0
 10
319.7648527714102
 20
-351.058241854961
 30
0.0
 10
318.4245470528281
 20
-351.058241854961
 30
0.0
 10
317.1925448804878
 20
-351.4861672227317
 30
0.0
 10
318.2430760962736
 20
-348.4616754832041
 30
0.0
 10
316.6428649190118
 20
-345.1582166742435
 30
0.0
 10
313.6183731794842
 20
-344.1076854584578
 30
0.0
 10
310.5938814399578
 20
-343.057154242672
 30
0.0
 10
307.2904226309973
 20
-344.6573654199338
 30
0.0
 10
306.2398914152109
 20
-347.6818571594615
 30
0.0
 10
305.8119660474382
 20
-348.9138593318036
 30
0.0
 10
305.8119660474382
 20
-350.2541650503896
 30
0.0
 10
306.2398914152109
 20
-351.4861672227317
 30
0.0
 10
303.2153996756839
 20
-350.4356360069485
 30
0.0
 10
299.9119408667249
 20
-352.0358471842129
 30
0.0
 10
298.8614096509414
 20
-355.0603389237405
 30
0.0
 10
297.8108784351585
 20
-358.0848306632681
 30
0.0
 10
299.4110896124226
 20
-361.3882894722268
 30
0.0
 10
302.4355813519502
 20
-362.4388206880107
 30
0.0
 10
303.6675835242897
 20
-362.8667460557801
 30
0.0
 10
305.0078892428726
 20
-362.8667460557794
 30
0.0
 10
306.2398914152121
 20
-362.4388206880093
 30
0.0
  0
ENDBLK
  5
E4
330
E1
100
AcDbEntity
  8
0
100
AcDbBlockEnd
  0
BLOCK
  5
E8
330
E6
100
AcDbEntity
  8
0
100
AcDbBlockBegin
  2
block 35
 70
     0
 10
0.0
 20
0.0
 30
0.0
  3
block 35
  1

  0
SPLINE
  5
EA
330
E6
100
AcDbEntity
  8
Layer 1
 62
     7
420
 16777215
370
    25
100
AcDbSpline
210
0.0
220
0.0
230
1.0
 70
    11
 71
     3
 72
    29
 73
    25
 74
     0
 42
0.0000000001
 43
0.0000000001
 12
1.0
 22
0.0
 32
0.0
 13
1.0
 23
0.0
 33
0.0
 40
0.0
 40
0.0
 40
0.0
 40
0.0
 40
1.0
 40
1.0
 40
1.0
 40
2.0
 40
2.0
 40
2.0
 40
3.0
 40
3.0
 40
3.0
 40
4.0
 40
4.0
 40
4.0
 40
5.0
 40
5.0
 40
5.0
 40
6.0
 40
6.0
 40
6.0
 40
7.0
 40
7.0
 40
7.0
 40
8.0
 40
8.0
 40
8.0
 40
8.0
 10
320.4921829041422
 20
-377.6272990228456
 30
0.0
 10
320.1074899543835
 20
-375.2114904426144
 30
0.0
 10
318.7439574333843
 20
-373.0610990061273
 30
0.0
 10
316.7229109188285
 20
-371.6828788684454
 30
0.0
 10
318.7439575222506
 20
-370.3046587752523
 30
0.0
 10
320.1074900112067
 20
-368.1542673184484
 30
0.0
 10
320.492182924966
 20
-365.738458732483
 30
0.0
 10
322.9079915109276
 20
-365.3537658187217
 30
0.0
 10
325.0583829677302
 20
-363.9902333297669
 30
0.0
 10
326.4366031355278
 20
-361.9691868357506
 30
0.0
 10
327.8148233033247
 20
-363.9902333297682
 30
0.0
 10
329.9652147601267
 20
-365.353765818723
 30
0.0
 10
332.3810233460877
 20
-365.7384587324842
 30
0.0
 10
332.7657162598483
 20
-368.1542673184484
 30
0.0
 10
334.1292487488043
 20
-370.304658775253
 30
0.0
 10
336.1502952428245
 20
-371.6828789430512
 30
0.0
 10
334.129248748805
 20
-373.0610991108494
 30
0.0
 10
332.7657162598489
 20
-375.2114905676534
 30
0.0
 10
332.3810233460883
 20
-377.6272991536175
 30
0.0
 10
329.9652147601274
 20
-378.0119920673781
 30
0.0
 10
327.8148233033247
 20
-379.3755245563335
 30
0.0
 10
326.4366031355278
 20
-381.3965710503505
 30
0.0
 10
325.0583829677302
 20
-379.3755245563335
 30
0.0
 10
322.9079915109276
 20
-378.0119920673781
 30
0.0
 10
320.4921829041422
 20
-377.6272990228456
 30
0.0
  0
ENDBLK
  5
E9
330
E6
100
AcDbEntity
  8
0
100
AcDbBlockEnd
  0
BLOCK
  5
ED
330
EB
100
AcDbEntity
  8
0
100
AcDbBlockBegin
  2
block 36
 70
     0
 10
0.0
 20
0.0
 30
0.0
  3
block 36
  1

  0
SPLINE
  5
EF
330
EB
100
AcDbEntity
  8
Layer 1
 62
     7
420
 16777215
370
    25
100
AcDbSpline
210
0.0
220
0.0
230
1.0
 70
    11
 71
     3
 72
    41
 73
    37
 74
     0
 42
0.0000000001
 43
0.0000000001
 12
1.0
 22
0.0
 32
0.0
 13
1.0
 23
0.0
 33
0.0
 40
0.0
 40
0.0
 40
0.0
 40
0.0
 40
1.0
 40
1.0
 40
1.0
 40
2.0
 40
2.0
 40
2.0
 40
3.0
 40
3.0
 40
3.0
 40
4.0
 40
4.0
 40
4.0
 40
5.0
 40
5.0
 40
5.0
 40
6.0
 40
6.0
 40
6.0
 40
7.0
 40
7.0
 40
7.0
 40
8.0
 40
8.0
 40
8.0
 40
9.0
 40
9.0
 40
9.0
 40
10.0
 40
10.0
 40
10.0
 40
11.0
 40
11.0
 40
11.0
 40
12.0
 40
12.0
 40
12.0
 40
12.0
 10
306.2398914152121
 20
-332.9980507126473
 30
0.0
 10
305.1893601994283
 20
-336.0225424521731
 30
0.0
 10
306.7895713766914
 20
-339.3260012611317
 30
0.0
 10
309.8140631162178
 20
-340.3765324769155
 30
0.0
 10
312.8385548557441
 20
-341.4270636926994
 30
0.0
 10
316.1420136647027
 20
-339.8268525154363
 30
0.0
 10
317.1925448804866
 20
-336.8023607759099
 30
0.0
 10
317.6204702482573
 20
-335.5703586035697
 30
0.0
 10
317.6204702482573
 20
-334.2300528849869
 30
0.0
 10
317.1925448804866
 20
-332.9980507126473
 30
0.0
 10
320.2170366200142
 20
-334.0485819284306
 30
0.0
 10
323.5204954289728
 20
-332.4483707511661
 30
0.0
 10
324.5710266447567
 20
-329.4238790116405
 30
0.0
 10
325.6215578605405
 20
-326.3993872721128
 30
0.0
 10
324.0213466832761
 20
-323.0959284631542
 30
0.0
 10
320.9968549437498
 20
-322.0453972473697
 30
0.0
 10
319.7648527714102
 20
-321.6174718795983
 30
0.0
 10
318.4245470528281
 20
-321.6174718795983
 30
0.0
 10
317.1925448804878
 20
-322.0453972473691
 30
0.0
 10
318.2430760962736
 20
-319.0209055078421
 30
0.0
 10
316.6428649190118
 20
-315.7174466988815
 30
0.0
 10
313.6183731794842
 20
-314.6669154830957
 30
0.0
 10
310.5938814399578
 20
-313.6163842673093
 30
0.0
 10
307.2904226309967
 20
-315.2165954445719
 30
0.0
 10
306.2398914152109
 20
-318.2410871840988
 30
0.0
 10
305.8119660474382
 20
-319.4730893564409
 30
0.0
 10
305.8119660474382
 20
-320.813395075027
 30
0.0
 10
306.2398914152109
 20
-322.0453972473691
 30
0.0
 10
303.2153996756839
 20
-320.9948660315858
 30
0.0
 10
299.9119408667249
 20
-322.5950772088503
 30
0.0
 10
298.8614096509414
 20
-325.6195689483779
 30
0.0
 10
297.8108784351585
 20
-328.6440606879055
 30
0.0
 10
299.4110896124233
 20
-331.9475194968635
 30
0.0
 10
302.4355813519502
 20
-332.9980507126473
 30
0.0
 10
303.6675835242904
 20
-333.4259760804175
 30
0.0
 10
305.0078892428726
 20
-333.4259760804175
 30
0.0
 10
306.2398914152121
 20
-332.9980507126473
 30
0.0
  0
ENDBLK
  5
EE
330
EB
100
AcDbEntity
  8
0
100
AcDbBlockEnd
  0
BLOCK
  5
F2
330
F0
100
AcDbEntity
  8
0
100
AcDbBlockBegin
  2
block 37
 70
     0
 10
0.0
 20
0.0
 30
0.0
  3
block 37
  1

  0
SPLINE
  5
F4
330
F0
100
AcDbEntity
  8
Layer 1
 62
     7
420
 16777215
370
    25
100
AcDbSpline
210
0.0
220
0.0
230
1.0
 70
    11
 71
     3
 72
    29
 73
    25
 74
     0
 42
0.0000000001
 43
0.0000000001
 12
1.0
 22
0.0
 32
0.0
 13
1.0
 23
0.0
 33
0.0
 40
0.0
 40
0.0
 40
0.0
 40
0.0
 40
1.0
 40
1.0
 40
1.0
 40
2.0
 40
2.0
 40
2.0
 40
3.0
 40
3.0
 40
3.0
 40
4.0
 40
4.0
 40
4.0
 40
5.0
 40
5.0
 40
5.0
 40
6.0
 40
6.0
 40
6.0
 40
7.0
 40
7.0
 40
7.0
 40
8.0
 40
8.0
 40
8.0
 40
8.0
 10
320.492182924966
 20
-348.1865291782549
 30
0.0
 10
320.107490011206
 20
-345.7707205922907
 30
0.0
 10
318.74395752225
 20
-343.6203291354861
 30
0.0
 10
316.7229110282311
 20
-342.2421089676886
 30
0.0
 10
318.74395752225
 20
-340.8638887998891
 30
0.0
 10
320.107490011206
 20
-338.7134973430851
 30
0.0
 10
320.492182924966
 20
-336.2976887571203
 30
0.0
 10
322.9079915109276
 20
-335.9129958433597
 30
0.0
 10
325.0583829677302
 20
-334.549463354405
 30
0.0
 10
326.4366031355278
 20
-332.528416860388
 30
0.0
 10
327.8148234080462
 20
-334.5494634432713
 30
0.0
 10
329.9652148851663
 20
-335.9129959001828
 30
0.0
 10
332.3810234768602
 20
-336.2976887779467
 30
0.0
 10
332.7657162598483
 20
-338.7134973430864
 30
0.0
 10
334.1292487488043
 20
-340.8638887998903
 30
0.0
 10
336.1502952428245
 20
-342.2421089676886
 30
0.0
 10
334.129248748805
 20
-343.6203291354861
 30
0.0
 10
332.7657162598489
 20
-345.7707205922907
 30
0.0
 10
332.3810233460883
 20
-348.1865291782549
 30
0.0
 10
329.9652147601274
 20
-348.5712220920155
 30
0.0
 10
327.8148233033247
 20
-349.9347545809703
 30
0.0
 10
326.4366031355278
 20
-351.9558010749878
 30
0.0
 10
325.0583828630081
 20
-349.9347544921046
 30
0.0
 10
322.907991385888
 20
-348.571222035193
 30
0.0
 10
320.492182924966
 20
-348.1865291782549
 30
0.0
  0
ENDBLK
  5
F3
330
F0
100
AcDbEntity
  8
0
100
AcDbBlockEnd
  0
BLOCK
  5
F7
330
F5
100
AcDbEntity
  8
0
100
AcDbBlockBegin
  2
block 38
 70
     0
 10
0.0
 20
0.0
 30
0.0
  3
block 38
  1

  0
SPLINE
  5
F9
330
F5
100
AcDbEntity
  8
Layer 1
 62
     7
420
 16777215
370
    25
100
AcDbSpline
210
0.0
220
0.0
230
1.0
 70
    11
 71
     3
 72
    41
 73
    37
 74
     0
 42
0.0000000001
 43
0.0000000001
 12
1.0
 22
0.0
 32
0.0
 13
1.0
 23
0.0
 33
0.0
 40
0.0
 40
0.0
 40
0.0
 40
0.0
 40
1.0
 40
1.0
 40
1.0
 40
2.0
 40
2.0
 40
2.0
 40
3.0
 40
3.0
 40
3.0
 40
4.0
 40
4.0
 40
4.0
 40
5.0
 40
5.0
 40
5.0
 40
6.0
 40
6.0
 40
6.0
 40
7.0
 40
7.0
 40
7.0
 40
8.0
 40
8.0
 40
8.0
 40
9.0
 40
9.0
 40
9.0
 40
10.0
 40
10.0
 40
10.0
 40
11.0
 40
11.0
 40
11.0
 40
12.0
 40
12.0
 40
12.0
 40
12.0
 10
306.2398914152121
 20
-303.5572807372841
 30
0.0
 10
305.1893601994283
 20
-306.5817724768104
 30
0.0
 10
306.7895713766914
 20
-309.8852312857684
 30
0.0
 10
309.8140631162178
 20
-310.9357625015535
 30
0.0
 10
312.8385548557441
 20
-311.9862937173374
 30
0.0
 10
316.1420136647027
 20
-310.3860825400736
 30
0.0
 10
317.1925448804866
 20
-307.3615908005467
 30
0.0
 10
317.6204702482573
 20
-306.1295886282071
 30
0.0
 10
317.6204702482573
 20
-304.7892829096243
 30
0.0
 10
317.1925448804866
 20
-303.5572807372841
 30
0.0
 10
320.2170367172714
 20
-304.6078119363446
 30
0.0
 10
323.5204955023858
 20
-303.0076007098548
 30
0.0
 10
324.5710266731012
 20
-299.9831089546736
 30
0.0
 10
325.6215578438166
 20
-296.9586171994924
 30
0.0
 10
324.0213466173268
 20
-293.655158414378
 30
0.0
 10
320.9968548621456
 20
-292.6046272436632
 30
0.0
 10
319.7648526834301
 20
-292.1767018942509
 30
0.0
 10
318.4245469648473
 20
-292.1767019142225
 30
0.0
 10
317.1925447988843
 20
-292.604627300351
 30
0.0
 10
318.2430760962736
 20
-289.5801355324795
 30
0.0
 10
316.6428649190118
 20
-286.2766767235189
 30
0.0
 10
313.6183731794842
 20
-285.2261455077331
 30
0.0
 10
310.5938814399578
 20
-284.1756142919473
 30
0.0
 10
307.2904226309967
 20
-285.7758254692098
 30
0.0
 10
306.2398914152109
 20
-288.8003172087362
 30
0.0
 10
305.8119660474382
 20
-290.0323193810789
 30
0.0
 10
305.8119660474382
 20
-291.3726250996643
 30
0.0
 10
306.2398914152109
 20
-292.6046272720064
 30
0.0
 10
303.2153996756839
 20
-291.5540960562232
 30
0.0
 10
299.9119408667249
 20
-293.1543072334877
 30
0.0
 10
298.8614096509414
 20
-296.1787989730159
 30
0.0
 10
297.8108784351585
 20
-299.2032907125429
 30
0.0
 10
299.4110896124233
 20
-302.5067495215015
 30
0.0
 10
302.4355813519502
 20
-303.5572807372847
 30
0.0
 10
303.6675835242904
 20
-303.9852061050555
 30
0.0
 10
305.0078892428726
 20
-303.9852061050542
 30
0.0
 10
306.2398914152121
 20
-303.5572807372841
 30
0.0
  0
ENDBLK
  5
F8
330
F5
100
AcDbEntity
  8
0
100
AcDbBlockEnd
  0
BLOCK
  5
FC
330
FA
100
AcDbEntity
  8
0
100
AcDbBlockBegin
  2
block 39
 70
     0
 10
0.0
 20
0.0
 30
0.0
  3
block 39
  1

  0
SPLINE
  5
FE
330
FA
100
AcDbEntity
  8
Layer 1
 62
     7
420
 16777215
370
    25
100
AcDbSpline
210
0.0
220
0.0
230
1.0
 70
    11
 71
     3
 72
    29
 73
    25
 74
     0
 42
0.0000000001
 43
0.0000000001
 12
1.0
 22
0.0
 32
0.0
 13
1.0
 23
0.0
 33
0.0
 40
0.0
 40
0.0
 40
0.0
 40
0.0
 40
1.0
 40
1.0
 40
1.0
 40
2.0
 40
2.0
 40
2.0
 40
3.0
 40
3.0
 40
3.0
 40
4.0
 40
4.0
 40
4.0
 40
5.0
 40
5.0
 40
5.0
 40
6.0
 40
6.0
 40
6.0
 40
7.0
 40
7.0
 40
7.0
 40
8.0
 40
8.0
 40
8.0
 40
8.0
 10
320.492182924966
 20
-318.7457592028923
 30
0.0
 10
320.107490011206
 20
-316.3299506169288
 30
0.0
 10
318.74395752225
 20
-314.1795591601235
 30
0.0
 10
316.7229110282311
 20
-312.8013389923253
 30
0.0
 10
318.74395752225
 20
-311.4231188245277
 30
0.0
 10
320.107490011206
 20
-309.2727273677225
 30
0.0
 10
320.492182924966
 20
-306.8569187817583
 30
0.0
 10
322.9079915109276
 20
-306.4722258679977
 30
0.0
 10
325.0583829677302
 20
-305.108693379043
 30
0.0
 10
326.4366031355278
 20
-303.0876468850254
 30
0.0
 10
327.8148233033247
 20
-305.108693379043
 30
0.0
 10
329.9652147601267
 20
-306.4722258679984
 30
0.0
 10
332.3810233460877
 20
-306.856918781759
 30
0.0
 10
332.7657162598483
 20
-309.2727273677231
 30
0.0
 10
334.1292487488043
 20
-311.4231188245277
 30
0.0
 10
336.1502952428245
 20
-312.8013389923253
 30
0.0
 10
334.129248748805
 20
-314.1795591601235
 30
0.0
 10
332.7657162598489
 20
-316.3299506169288
 30
0.0
 10
332.3810233460883
 20
-318.7457592028929
 30
0.0
 10
329.9652146350872
 20
-319.1304521734759
 30
0.0
 10
327.8148231986046
 20
-320.493984694474
 30
0.0
 10
326.4366030609226
 20
-322.5150312090285
 30
0.0
 10
325.0583829677302
 20
-320.493984605607
 30
0.0
 10
322.9079915109276
 20
-319.1304521166529
 30
0.0
 10
320.492182924966
 20
-318.7457592028923
 30
0.0
  0
ENDBLK
  5
FD
330
FA
100
AcDbEntity
  8
0
100
AcDbBlockEnd
  0
BLOCK
  5
101
330
FF
100
AcDbEntity
  8
0
100
AcDbBlockBegin
  2
block 40
 70
     0
 10
0.0
 20
0.0
 30
0.0
  3
block 40
  1

  0
SPLINE
  5
103
330
FF
100
AcDbEntity
  8
Layer 1
 62
     7
420
 16777215
370
    25
100
AcDbSpline
210
0.0
220
0.0
230
1.0
 70
    11
 71
     3
 72
    41
 73
    37
 74
     0
 42
0.0000000001
 43
0.0000000001
 12
1.0
 22
0.0
 32
0.0
 13
1.0
 23
0.0
 33
0.0
 40
0.0
 40
0.0
 40
0.0
 40
0.0
 40
1.0
 40
1.0
 40
1.0
 40
2.0
 40
2.0
 40
2.0
 40
3.0
 40
3.0
 40
3.0
 40
4.0
 40
4.0
 40
4.0
 40
5.0
 40
5.0
 40
5.0
 40
6.0
 40
6.0
 40
6.0
 40
7.0
 40
7.0
 40
7.0
 40
8.0
 40
8.0
 40
8.0
 40
9.0
 40
9.0
 40
9.0
 40
10.0
 40
10.0
 40
10.0
 40
11.0
 40
11.0
 40
11.0
 40
12.0
 40
12.0
 40
12.0
 40
12.0
 10
306.2398914152121
 20
-274.1165107619215
 30
0.0
 10
305.1893601994283
 20
-277.1410025014478
 30
0.0
 10
306.7895713766914
 20
-280.4444613104058
 30
0.0
 10
309.8140631162178
 20
-281.4949925261903
 30
0.0
 10
312.8385548557441
 20
-282.5455237419741
 30
0.0
 10
316.1420136647027
 20
-280.9453125647116
 30
0.0
 10
317.1925448804866
 20
-277.9208208251847
 30
0.0
 10
317.6204702482573
 20
-276.6888186528452
 30
0.0
 10
317.6204702482573
 20
-275.3485129342616
 30
0.0
 10
317.1925448804866
 20
-274.1165107619215
 30
0.0
 10
320.2170366200142
 20
-275.1670419777053
 30
0.0
 10
323.5204954289728
 20
-273.5668308004422
 30
0.0
 10
324.5710266447567
 20
-270.5423390609146
 30
0.0
 10
325.6215578605405
 20
-267.5178473213876
 30
0.0
 10
324.0213466832761
 20
-264.2143885124283
 30
0.0
 10
320.9968549437492
 20
-263.1638572966445
 30
0.0
 10
319.7648527714102
 20
-262.7359319288744
 30
0.0
 10
318.4245470528281
 20
-262.7359319288744
 30
0.0
 10
317.1925448804878
 20
-263.1638572966445
 30
0.0
 10
318.2430760962724
 20
-260.1393655571175
 30
0.0
 10
316.6428649190086
 20
-256.8359067481582
 30
0.0
 10
313.618373179481
 20
-255.7853755323737
 30
0.0
 10
310.5938814399547
 20
-254.7348443165892
 30
0.0
 10
307.2904226309947
 20
-256.335055493853
 30
0.0
 10
306.2398914152109
 20
-259.35954723338
 30
0.0
 10
305.8119660474395
 20
-260.5915494057202
 30
0.0
 10
305.8119660474395
 20
-261.9318551243036
 30
0.0
 10
306.2398914152109
 20
-263.1638572966445
 30
0.0
 10
303.2153996756839
 20
-262.1133260808613
 30
0.0
 10
299.9119408667249
 20
-263.7135372581257
 30
0.0
 10
298.8614096509414
 20
-266.7380289976526
 30
0.0
 10
297.8108784351585
 20
-269.7625207371802
 30
0.0
 10
299.4110896124239
 20
-273.0659795461395
 30
0.0
 10
302.4355813519509
 20
-274.1165107619221
 30
0.0
 10
303.6675835242904
 20
-274.5444361296928
 30
0.0
 10
305.0078892428726
 20
-274.5444361296922
 30
0.0
 10
306.2398914152121
 20
-274.1165107619215
 30
0.0
  0
ENDBLK
  5
102
330
FF
100
AcDbEntity
  8
0
100
AcDbBlockEnd
  0
BLOCK
  5
106
330
104
100
AcDbEntity
  8
0
100
AcDbBlockBegin
  2
block 41
 70
     0
 10
0.0
 20
0.0
 30
0.0
  3
block 41
  1

  0
SPLINE
  5
108
330
104
100
AcDbEntity
  8
Layer 1
 62
     7
420
 16777215
370
    25
100
AcDbSpline
210
0.0
220
0.0
230
1.0
 70
    11
 71
     3
 72
    29
 73
    25
 74
     0
 42
0.0000000001
 43
0.0000000001
 12
1.0
 22
0.0
 32
0.0
 13
1.0
 23
0.0
 33
0.0
 40
0.0
 40
0.0
 40
0.0
 40
0.0
 40
1.0
 40
1.0
 40
1.0
 40
2.0
 40
2.0
 40
2.0
 40
3.0
 40
3.0
 40
3.0
 40
4.0
 40
4.0
 40
4.0
 40
5.0
 40
5.0
 40
5.0
 40
6.0
 40
6.0
 40
6.0
 40
7.0
 40
7.0
 40
7.0
 40
8.0
 40
8.0
 40
8.0
 40
8.0
 10
320.4921829041422
 20
-289.3049890967578
 30
0.0
 10
320.1074899543835
 20
-286.8891805165259
 30
0.0
 10
318.7439574333849
 20
-284.7387890800401
 30
0.0
 10
316.7229109188285
 20
-283.3605689423568
 30
0.0
 10
318.7439575222506
 20
-281.9823488491645
 30
0.0
 10
320.107490011206
 20
-279.8319573923592
 30
0.0
 10
320.492182924966
 20
-277.4161488063957
 30
0.0
 10
322.9079915109276
 20
-277.0314558926351
 30
0.0
 10
325.0583829677302
 20
-275.667923403681
 30
0.0
 10
326.4366031355278
 20
-273.6468769096641
 30
0.0
 10
327.8148234080462
 20
-275.6679234925467
 30
0.0
 10
329.9652148851663
 20
-277.0314559494589
 30
0.0
 10
332.3810234768595
 20
-277.4161488272214
 30
0.0
 10
332.7657162598483
 20
-279.8319573923611
 30
0.0
 10
334.129248748805
 20
-281.9823488491645
 30
0.0
 10
336.1502952428245
 20
-283.3605690169627
 30
0.0
 10
334.129248748805
 20
-284.7387891847609
 30
0.0
 10
332.7657162598489
 20
-286.8891806415655
 30
0.0
 10
332.3810233460883
 20
-289.3049892275296
 30
0.0
 10
329.9652147601274
 20
-289.6896821412909
 30
0.0
 10
327.8148233033247
 20
-291.0532146302456
 30
0.0
 10
326.4366031355278
 20
-293.0742611242626
 30
0.0
 10
325.0583829677302
 20
-291.053214630245
 30
0.0
 10
322.9079915109276
 20
-289.6896821412902
 30
0.0
 10
320.4921829041422
 20
-289.3049890967578
 30
0.0
  0
ENDBLK
  5
107
330
104
100
AcDbEntity
  8
0
100
AcDbBlockEnd
  0
BLOCK
  5
10B
330
109
100
AcDbEntity
  8
0
100
AcDbBlockBegin
  2
block 42
 70
     0
 10
0.0
 20
0.0
 30
0.0
  3
block 42
  1

  0
SPLINE
  5
10D
330
109
100
AcDbEntity
  8
Layer 1
 62
     7
420
 16777215
370
    25
100
AcDbSpline
210
0.0
220
0.0
230
1.0
 70
    11
 71
     3
 72
   407
 73
   403
 74
     0
 42
0.0000000001
 43
0.0000000001
 12
1.0
 22
0.0
 32
0.0
 13
1.0
 23
0.0
 33
0.0
 40
0.0
 40
0.0
 40
0.0
 40
0.0
 40
1.0
 40
1.0
 40
1.0
 40
2.0
 40
2.0
 40
2.0
 40
3.0
 40
3.0
 40
3.0
 40
4.0
 40
4.0
 40
4.0
 40
5.0
 40
5.0
 40
5.0
 40
6.0
 40
6.0
 40
6.0
 40
7.0
 40
7.0
 40
7.0
 40
8.0
 40
8.0
 40
8.0
 40
9.0
 40
9.0
 40
9.0
 40
10.0
 40
10.0
 40
10.0
 40
11.0
 40
11.0
 40
11.0
 40
12.0
 40
12.0
 40
12.0
 40
13.0
 40
13.0
 40
13.0
 40
14.0
 40
14.0
 40
14.0
 40
15.0
 40
15.0
 40
15.0
 40
16.0
 40
16.0
 40
16.0
 40
17.0
 40
17.0
 40
17.0
 40
18.0
 40
18.0
 40
18.0
 40
19.0
 40
19.0
 40
19.0
 40
20.0
 40
20.0
 40
20.0
 40
21.0
 40
21.0
 40
21.0
 40
22.0
 40
22.0
 40
22.0
 40
23.0
 40
23.0
 40
23.0
 40
24.0
 40
24.0
 40
24.0
 40
25.0
 40
25.0
 40
25.0
 40
26.0
 40
26.0
 40
26.0
 40
27.0
 40
27.0
 40
27.0
 40
28.0
 40
28.0
 40
28.0
 40
29.0
 40
29.0
 40
29.0
 40
30.0
 40
30.0
 40
30.0
 40
31.0
 40
31.0
 40
31.0
 40
32.0
 40
32.0
 40
32.0
 40
33.0
 40
33.0
 40
33.0
 40
34.0
 40
34.0
 40
34.0
 40
35.0
 40
35.0
 40
35.0
 40
36.0
 40
36.0
 40
36.0
 40
37.0
 40
37.0
 40
37.0
 40
38.0
 40
38.0
 40
38.0
 40
39.0
 40
39.0
 40
39.0
 40
40.0
 40
40.0
 40
40.0
 40
41.0
 40
41.0
 40
41.0
 40
42.0
 40
42.0
 40
42.0
 40
43.0
 40
43.0
 40
43.0
 40
44.0
 40
44.0
 40
44.0
 40
45.0
 40
45.0
 40
45.0
 40
46.0
 40
46.0
 40
46.0
 40
47.0
 40
47.0
 40
47.0
 40
48.0
 40
48.0
 40
48.0
 40
49.0
 40
49.0
 40
49.0
 40
50.0
 40
50.0
 40
50.0
 40
51.0
 40
51.0
 40
51.0
 40
52.0
 40
52.0
 40
52.0
 40
53.0
 40
53.0
 40
53.0
 40
54.0
 40
54.0
 40
54.0
 40
55.0
 40
55.0
 40
55.0
 40
56.0
 40
56.0
 40
56.0
 40
57.0
 40
57.0
 40
57.0
 40
58.0
 40
58.0
 40
58.0
 40
59.0
 40
59.0
 40
59.0
 40
60.0
 40
60.0
 40
60.0
 40
61.0
 40
61.0
 40
61.0
 40
62.0
 40
62.0
 40
62.0
 40
63.0
 40
63.0
 40
63.0
 40
64.0
 40
64.0
 40
64.0
 40
65.0
 40
65.0
 40
65.0
 40
66.0
 40
66.0
 40
66.0
 40
67.0
 40
67.0
 40
67.0
 40
68.0
 40
68.0
 40
68.0
 40
69.0
 40
69.0
 40
69.0
 40
70.0
 40
70.0
 40
70.0
 40
71.0
 40
71.0
 40
71.0
 40
72.0
 40
72.0
 40
72.0
 40
73.0
 40
73.0
 40
73.0
 40
74.0
 40
74.0
 40
74.0
 40
75.0
 40
75.0
 40
75.0
 40
76.0
 40
76.0
 40
76.0
 40
77.0
 40
77.0
 40
77.0
 40
78.0
 40
78.0
 40
78.0
 40
79.0
 40
79.0
 40
79.0
 40
80.0
 40
80.0
 40
80.0
 40
81.0
 40
81.0
 40
81.0
 40
82.0
 40
82.0
 40
82.0
 40
83.0
 40
83.0
 40
83.0
 40
84.0
 40
84.0
 40
84.0
 40
85.0
 40
85.0
 40
85.0
 40
86.0
 40
86.0
 40
86.0
 40
87.0
 40
87.0
 40
87.0
 40
88.0
 40
88.0
 40
88.0
 40
89.0
 40
89.0
 40
89.0
 40
90.0
 40
90.0
 40
90.0
 40
91.0
 40
91.0
 40
91.0
 40
92.0
 40
92.0
 40
92.0
 40
93.0
 40
93.0
 40
93.0
 40
94.0
 40
94.0
 40
94.0
 40
95.0
 40
95.0
 40
95.0
 40
96.0
 40
96.0
 40
96.0
 40
97.0
 40
97.0
 40
97.0
 40
98.0
 40
98.0
 40
98.0
 40
99.0
 40
99.0
 40
99.0
 40
100.0
 40
100.0
 40
100.0
 40
101.0
 40
101.0
 40
101.0
 40
102.0
 40
102.0
 40
102.0
 40
103.0
 40
103.0
 40
103.0
 40
104.0
 40
104.0
 40
104.0
 40
105.0
 40
105.0
 40
105.0
 40
106.0
 40
106.0
 40
106.0
 40
107.0
 40
107.0
 40
107.0
 40
108.0
 40
108.0
 40
108.0
 40
109.0
 40
109.0
 40
109.0
 40
110.0
 40
110.0
 40
110.0
 40
111.0
 40
111.0
 40
111.0
 40
112.0
 40
112.0
 40
112.0
 40
113.0
 40
113.0
 40
113.0
 40
114.0
 40
114.0
 40
114.0
 40
115.0
 40
115.0
 40
115.0
 40
116.0
 40
116.0
 40
116.0
 40
117.0
 40
117.0
 40
117.0
 40
118.0
 40
118.0
 40
118.0
 40
119.0
 40
119.0
 40
119.0
 40
120.0
 40
120.0
 40
120.0
 40
121.0
 40
121.0
 40
121.0
 40
122.0
 40
122.0
 40
122.0
 40
123.0
 40
123.0
 40
123.0
 40
124.0
 40
124.0
 40
124.0
 40
125.0
 40
125.0
 40
125.0
 40
126.0
 40
126.0
 40
126.0
 40
127.0
 40
127.0
 40
127.0
 40
128.0
 40
128.0
 40
128.0
 40
129.0
 40
129.0
 40
129.0
 40
130.0
 40
130.0
 40
130.0
 40
131.0
 40
131.0
 40
131.0
 40
132.0
 40
132.0
 40
132.0
 40
133.0
 40
133.0
 40
133.0
 40
134.0
 40
134.0
 40
134.0
 40
134.0
 10
238.1142932094582
 20
-263.6334911489
 30
0.0
 10
236.7360730416616
 20
-261.612444654883
 30
0.0
 10
234.5856815848599
 20
-260.2489121659276
 30
0.0
 10
232.1698729988986
 20
-259.8642192521664
 30
0.0
 10
231.785180085138
 20
-257.4484106662016
 30
0.0
 10
230.4216475961817
 20
-255.2980192093976
 30
0.0
 10
228.4006011021615
 20
-253.9197990415994
 30
0.0
 10
228.4006011021615
 20
-253.9197990415994
 30
0.0
 10
218.387215341399
 20
-253.9197990415994
 30
0.0
 10
218.387215341399
 20
-253.9197990415994
 30
0.0
 10
216.3661687585135
 20
-255.2980193141197
 30
0.0
 10
215.0026363016013
 20
-257.4484107912425
 30
0.0
 10
214.6179434238397
 20
-259.8642193829389
 30
0.0
 10
212.2021348587023
 20
-260.2489121659283
 30
0.0
 10
210.0517434018996
 20
-261.612444654883
 30
0.0
 10
208.673523234102
 20
-263.6334911489
 30
0.0
 10
207.2953030663051
 20
-261.6124446548824
 30
0.0
 10
205.1449116095037
 20
-260.2489121659276
 30
0.0
 10
202.7291030235424
 20
-259.8642192521658
 30
0.0
 10
202.3444101097818
 20
-257.4484106662016
 30
0.0
 10
200.9808776208258
 20
-255.2980192093976
 30
0.0
 10
198.9598311268063
 20
-253.9197990415994
 30
0.0
 10
198.9598311268063
 20
-253.9197990415994
 30
0.0
 10
193.9531382464252
 20
-253.9197990415994
 30
0.0
 10
193.9531382464252
 20
-253.9197990415994
 30
0.0
 10
193.9531382464252
 20
-253.9197990415994
 30
0.0
 10
193.9531382464252
 20
-255.4644315065442
 30
0.0
 10
193.9531382464252
 20
-255.4644315065442
 30
0.0
 10
194.6006643085862
 20
-255.4644315065442
 30
0.0
 10
195.2436150535933
 20
-255.5729143573528
 30
0.0
 10
195.8552932780597
 20
-255.7853755323731
 30
0.0
 10
198.879785017586
 20
-256.8359067481588
 30
0.0
 10
200.4799961948478
 20
-260.1393655571175
 30
0.0
 10
199.4294649790627
 20
-263.1638572966438
 30
0.0
 10
200.6614671514023
 20
-262.7359319288744
 30
0.0
 10
202.0017728699848
 20
-262.7359319288744
 30
0.0
 10
203.2337750423243
 20
-263.1638572966445
 30
0.0
 10
206.2582667818513
 20
-264.2143885124283
 30
0.0
 10
207.8584779591154
 20
-267.5178473213876
 30
0.0
 10
206.8079467433315
 20
-270.5423390609146
 30
0.0
 10
205.7574155275477
 20
-273.5668308004422
 30
0.0
 10
202.4539567185884
 20
-275.1670419777053
 30
0.0
 10
199.4294649790611
 20
-274.1165107619215
 30
0.0
 10
199.6419261540811
 20
-274.7281889863879
 30
0.0
 10
199.7504090048896
 20
-275.3711397313934
 30
0.0
 10
199.7504090048896
 20
-276.0186657935537
 30
0.0
 10
199.7504090048896
 20
-279.220410024094
 30
0.0
 10
197.1548824769648
 20
-281.8159365520185
 30
0.0
 10
193.9531382464242
 20
-281.8159365520185
 30
0.0
 10
193.9531382464242
 20
-281.8159365520185
 30
0.0
 10
193.9531382464252
 20
-284.9052014819062
 30
0.0
 10
193.9531382464252
 20
-284.9052014819062
 30
0.0
 10
194.6006643085862
 20
-284.9052014819062
 30
0.0
 10
195.2436150535933
 20
-285.013684332716
 30
0.0
 10
195.85529327806
 20
-285.2261455077364
 30
0.0
 10
198.879785017586
 20
-286.2766767235215
 30
0.0
 10
200.4799961948482
 20
-289.5801355324801
 30
0.0
 10
199.4294649790627
 20
-292.6046272720064
 30
0.0
 10
200.6614671514023
 20
-292.1767019042364
 30
0.0
 10
202.0017728699848
 20
-292.1767019042364
 30
0.0
 10
203.2337750423243
 20
-292.6046272720071
 30
0.0
 10
206.2582667818513
 20
-293.6551584877909
 30
0.0
 10
207.8584779591154
 20
-296.9586172967502
 30
0.0
 10
206.8079467433315
 20
-299.9831090362772
 30
0.0
 10
205.7574155275477
 20
-303.0076007758042
 30
0.0
 10
202.4539567185884
 20
-304.6078119530679
 30
0.0
 10
199.4294649790611
 20
-303.5572807372847
 30
0.0
 10
199.6419261540808
 20
-304.1689589617499
 30
0.0
 10
199.7504090048896
 20
-304.811909706756
 30
0.0
 10
199.75040900489
 20
-305.4594357689164
 30
0.0
 10
199.75040900489
 20
-308.6611799994572
 30
0.0
 10
197.1548824769651
 20
-311.2567065273818
 30
0.0
 10
193.9531382464245
 20
-311.2567065273818
 30
0.0
 10
193.9531382464245
 20
-311.2567065273818
 30
0.0
 10
193.9531382464252
 20
-314.3459714572695
 30
0.0
 10
193.9531382464252
 20
-314.3459714572695
 30
0.0
 10
194.6006643085862
 20
-314.3459714572695
 30
0.0
 10
195.2436150535933
 20
-314.454454308078
 30
0.0
 10
195.85529327806
 20
-314.6669154830983
 30
0.0
 10
198.879785017586
 20
-315.7174466988835
 30
0.0
 10
200.4799961948482
 20
-319.0209055078434
 30
0.0
 10
199.4294649790627
 20
-322.0453972473691
 30
0.0
 10
200.6614671514023
 20
-321.6174718795983
 30
0.0
 10
202.0017728699848
 20
-321.6174718795983
 30
0.0
 10
203.2337750423243
 20
-322.0453972473691
 30
0.0
 10
206.2582667818513
 20
-323.0959284631535
 30
0.0
 10
207.8584779591154
 20
-326.3993872721128
 30
0.0
 10
206.8079467433315
 20
-329.4238790116398
 30
0.0
 10
205.7574155275477
 20
-332.4483707511661
 30
0.0
 10
202.4539567185884
 20
-334.0485819284306
 30
0.0
 10
199.4294649790611
 20
-332.9980507126473
 30
0.0
 10
199.6419261540808
 20
-333.6097289371131
 30
0.0
 10
199.7504090048896
 20
-334.2526796821186
 30
0.0
 10
199.75040900489
 20
-334.900205744279
 30
0.0
 10
199.75040900489
 20
-338.1019499748192
 30
0.0
 10
197.1548824769651
 20
-340.6974765027444
 30
0.0
 10
193.9531382464245
 20
-340.6974765027444
 30
0.0
 10
193.9531382464245
 20
-340.6974765027444
 30
0.0
 10
193.9531382464252
 20
-343.7867414326315
 30
0.0
 10
193.9531382464252
 20
-343.7867414326315
 30
0.0
 10
194.6006643085862
 20
-343.7867414326315
 30
0.0
 10
195.2436150535933
 20
-343.8952242834407
 30
0.0
 10
195.8552932780597
 20
-344.1076854584603
 30
0.0
 10
198.879785017586
 20
-345.1582166742454
 30
0.0
 10
200.4799961948478
 20
-348.4616754832047
 30
0.0
 10
199.4294649790627
 20
-351.4861672227317
 30
0.0
 10
200.6614671514023
 20
-351.058241854961
 30
0.0
 10
202.0017728699848
 20
-351.058241854961
 30
0.0
 10
203.2337750423243
 20
-351.4861672227317
 30
0.0
 10
206.2582667818513
 20
-352.5366984385162
 30
0.0
 10
207.8584779591157
 20
-355.8401572474755
 30
0.0
 10
206.8079467433315
 20
-358.8646489870025
 30
0.0
 10
205.7574155275477
 20
-361.8891407265294
 30
0.0
 10
202.4539567185884
 20
-363.4893519037932
 30
0.0
 10
199.4294649790611
 20
-362.4388206880093
 30
0.0
 10
199.6419261540808
 20
-363.0504989124751
 30
0.0
 10
199.7504090048896
 20
-363.6934496574812
 30
0.0
 10
199.75040900489
 20
-364.3409757196409
 30
0.0
 10
199.75040900489
 20
-367.5427199501812
 30
0.0
 10
197.1548824769651
 20
-370.1382464781064
 30
0.0
 10
193.9531382464249
 20
-370.1382464781064
 30
0.0
 10
193.9531382464249
 20
-370.1382464781064
 30
0.0
 10
193.9531382464252
 20
-373.2275114079947
 30
0.0
 10
193.9531382464252
 20
-373.2275114079947
 30
0.0
 10
194.6006643085862
 20
-373.2275114079947
 30
0.0
 10
195.2436150535933
 20
-373.3359942588033
 30
0.0
 10
195.8552932780597
 20
-373.5484554338229
 30
0.0
 10
198.8797850175857
 20
-374.598986649608
 30
0.0
 10
200.4799961948478
 20
-377.902445458568
 30
0.0
 10
199.4294649790627
 20
-380.9269371980937
 30
0.0
 10
200.6614671514023
 20
-380.4990118303236
 30
0.0
 10
202.0017728699848
 20
-380.4990118303236
 30
0.0
 10
203.2337750423243
 20
-380.9269371980943
 30
0.0
 10
206.2582667818516
 20
-381.9774684138782
 30
0.0
 10
207.8584779591157
 20
-385.2809272228375
 30
0.0
 10
206.8079467433315
 20
-388.3054189623644
 30
0.0
 10
205.7574155275477
 20
-391.3299107018921
 30
0.0
 10
202.4539567185887
 20
-392.9301218791558
 30
0.0
 10
199.4294649790611
 20
-391.8795906633713
 30
0.0
 10
199.6419261540811
 20
-392.4912688878371
 30
0.0
 10
199.75040900489
 20
-393.1342196328438
 30
0.0
 10
199.75040900489
 20
-393.7817456950042
 30
0.0
 10
199.75040900489
 20
-396.9834899255438
 30
0.0
 10
197.1548824769658
 20
-399.5790164534696
 30
0.0
 10
193.9531382464252
 20
-399.5790164534696
 30
0.0
 10
193.9531382464252
 20
-399.5790164534696
 30
0.0
 10
193.9531382464252
 20
-401.1236489184145
 30
0.0
 10
193.9531382464252
 20
-401.1236489184145
 30
0.0
 10
193.9531382464252
 20
-401.1236489184145
 30
0.0
 10
198.959831126805
 20
-401.1236489184145
 30
0.0
 10
198.959831126805
 20
-401.1236489184145
 30
0.0
 10
200.9808629606571
 20
-399.7454145720385
 30
0.0
 10
202.3443910331304
 20
-397.5950300803527
 30
0.0
 10
202.7291030235408
 20
-395.1792287078456
 30
0.0
 10
205.1449116095024
 20
-394.794535794085
 30
0.0
 10
207.2953030663044
 20
-393.4310033051302
 30
0.0
 10
208.673523234102
 20
-391.4099568111139
 30
0.0
 10
210.0517434018996
 20
-393.4310033051302
 30
0.0
 10
212.2021348587023
 20
-394.794535794085
 30
0.0
 10
214.6179434446635
 20
-395.1792287078462
 30
0.0
 10
215.0026363584241
 20
-397.595037293811
 30
0.0
 10
216.3661688473798
 20
-399.7454287506156
 30
0.0
 10
218.3872153413997
 20
-401.1236489184145
 30
0.0
 10
218.3872153413997
 20
-401.1236489184145
 30
0.0
 10
228.4006011021612
 20
-401.1236489184145
 30
0.0
 10
228.4006011021612
 20
-401.1236489184145
 30
0.0
 10
230.421647685047
 20
-399.7454286458942
 30
0.0
 10
231.7851801419592
 20
-397.5950371687708
 30
0.0
 10
232.1698730197211
 20
-395.1792285770744
 30
0.0
 10
234.5856815848589
 20
-394.794535794085
 30
0.0
 10
236.7360730416609
 20
-393.4310033051302
 30
0.0
 10
238.1142932094585
 20
-391.4099568111139
 30
0.0
 10
239.4925133772561
 20
-393.4310033051302
 30
0.0
 10
241.6429048340585
 20
-394.794535794085
 30
0.0
 10
244.05871342002
 20
-395.1792287078456
 30
0.0
 10
244.4434063337803
 20
-397.5950372938104
 30
0.0
 10
245.8069388227357
 20
-399.7454287506156
 30
0.0
 10
247.8279853167559
 20
-401.1236489184145
 30
0.0
 10
247.8279853167559
 20
-401.1236489184145
 30
0.0
 10
257.8413710775177
 20
-401.1236489184145
 30
0.0
 10
257.8413710775177
 20
-401.1236489184145
 30
0.0
 10
259.8624175715375
 20
-399.7454287506156
 30
0.0
 10
261.2259500604933
 20
-397.595037293811
 30
0.0
 10
261.6106429742536
 20
-395.1792287078462
 30
0.0
 10
264.0264515602152
 20
-394.794535794085
 30
0.0
 10
266.1768430170172
 20
-393.4310033051302
 30
0.0
 10
267.5550631848147
 20
-391.4099568111139
 30
0.0
 10
268.9332833526123
 20
-393.4310033051302
 30
0.0
 10
271.0836748094147
 20
-394.794535794085
 30
0.0
 10
273.4994833953762
 20
-395.1792287078462
 30
0.0
 10
273.8841763091362
 20
-397.5950372938104
 30
0.0
 10
275.2477087980919
 20
-399.745428750615
 30
0.0
 10
277.2687552921111
 20
-401.1236489184138
 30
0.0
 10
277.2687552921111
 20
-401.1236489184138
 30
0.0
 10
287.2821410528739
 20
-401.1236489184145
 30
0.0
 10
287.2821410528739
 20
-401.1236489184145
 30
0.0
 10
289.3031875468938
 20
-399.7454287506156
 30
0.0
 10
290.6667200358495
 20
-397.5950372938104
 30
0.0
 10
291.0514129496094
 20
-395.1792287078462
 30
0.0
 10
293.4672215355714
 20
-394.794535794085
 30
0.0
 10
295.617612992373
 20
-393.4310033051302
 30
0.0
 10
296.9958331601713
 20
-391.4099568111139
 30
0.0
 10
298.3740533279689
 20
-393.4310033051302
 30
0.0
 10
300.5244447847712
 20
-394.794535794085
 30
0.0
 10
302.9402533707328
 20
-395.1792287078462
 30
0.0
 10
303.3249463413152
 20
-397.5950374188499
 30
0.0
 10
304.6884788623138
 20
-399.7454288553364
 30
0.0
 10
306.7095253768709
 20
-401.1236489930184
 30
0.0
 10
306.7095252674677
 20
-401.1236489184138
 30
0.0
 10
316.7229110282304
 20
-401.1236489184145
 30
0.0
 10
316.7229110282304
 20
-401.1236489184145
 30
0.0
 10
318.74395752225
 20
-399.7454287506156
 30
0.0
 10
320.107490011206
 20
-397.595037293811
 30
0.0
 10
320.492182924966
 20
-395.1792287078462
 30
0.0
 10
322.9079915109276
 20
-394.794535794085
 30
0.0
 10
325.0583829677296
 20
-393.4310033051302
 30
0.0
 10
326.4366031355272
 20
-391.4099568111139
 30
0.0
 10
327.8148233033247
 20
-393.4310033051308
 30
0.0
 10
329.9652147601267
 20
-394.794535794085
 30
0.0
 10
332.3810233460883
 20
-395.1792287078462
 30
0.0
 10
332.7657163166714
 20
-397.5950374188499
 30
0.0
 10
334.12924883767
 20
-399.7454288553364
 30
0.0
 10
336.1502953522265
 20
-401.123648993019
 30
0.0
 10
336.1502952428239
 20
-401.1236489184138
 30
0.0
 10
341.156988123237
 20
-401.1236489184145
 30
0.0
 10
341.156988123237
 20
-401.1236489184145
 30
0.0
 10
341.156988123237
 20
-401.1236489184145
 30
0.0
 10
341.156988123237
 20
-399.5790164534696
 30
0.0
 10
341.156988123237
 20
-399.5790164534696
 30
0.0
 10
340.5094620610657
 20
-399.5790164534735
 30
0.0
 10
339.8665113160494
 20
-399.4705336026643
 30
0.0
 10
339.2548330915733
 20
-399.2580724276408
 30
0.0
 10
336.230341352047
 20
-398.2075412118576
 30
0.0
 10
334.6301301747845
 20
-394.9040824028983
 30
0.0
 10
335.6806613905677
 20
-391.8795906633713
 30
0.0
 10
334.448659130248
 20
-392.3075160411288
 30
0.0
 10
333.1083534116658
 20
-392.3075160211566
 30
0.0
 10
331.8763512457028
 20
-391.8795906350281
 30
0.0
 10
328.8518595218295
 20
-390.8290593741758
 30
0.0
 10
327.2516483937904
 20
-387.5256005413717
 30
0.0
 10
328.3021796546421
 20
-384.5011088174989
 30
0.0
 10
329.3527109154937
 20
-381.4766170936256
 30
0.0
 10
332.6561697482979
 20
-379.8764059655859
 30
0.0
 10
335.6806614721706
 20
-380.9269372264375
 30
0.0
 10
335.4682002155436
 20
-380.315258973617
 30
0.0
 10
335.359717364735
 20
-379.6723082285987
 30
0.0
 10
335.3597173647382
 20
-379.0247821664268
 30
0.0
 10
335.3597173647568
 20
-375.8230379358865
 30
0.0
 10
337.9552438926968
 20
-373.2275114079761
 30
0.0
 10
341.156988123237
 20
-373.2275114079947
 30
0.0
 10
341.156988123237
 20
-373.2275114079947
 30
0.0
 10
341.156988123237
 20
-370.1382464781064
 30
0.0
 10
341.156988123237
 20
-370.1382464781064
 30
0.0
 10
340.5094620610664
 20
-370.1382464781102
 30
0.0
 10
339.8665113160494
 20
-370.029763627301
 30
0.0
 10
339.2548330915733
 20
-369.8173024522782
 30
0.0
 10
336.230341352047
 20
-368.7667712364943
 30
0.0
 10
334.6301301747845
 20
-365.4633124275357
 30
0.0
 10
335.6806613905683
 20
-362.4388206880093
 30
0.0
 10
334.4486592182288
 20
-362.8667460557801
 30
0.0
 10
333.1083534996459
 20
-362.8667460557807
 30
0.0
 10
331.8763513273065
 20
-362.4388206880107
 30
0.0
 10
328.8518595877795
 20
-361.3882894722268
 30
0.0
 10
327.2516484105144
 20
-358.0848306632681
 30
0.0
 10
328.3021796262983
 20
-355.0603389237405
 30
0.0
 10
329.3527108420808
 20
-352.0358471842129
 30
0.0
 10
332.6561696510401
 20
-350.4356360069485
 30
0.0
 10
335.6806613905671
 20
-351.4861672227317
 30
0.0
 10
335.4682001963138
 20
-350.8744889134853
 30
0.0
 10
335.3597173550864
 20
-350.2315381668506
 30
0.0
 10
335.3597173647382
 20
-349.5840121046786
 30
0.0
 10
335.3597174124659
 20
-346.3822678741384
 30
0.0
 10
337.9552439790823
 20
-343.7867413849032
 30
0.0
 10
341.1569882096232
 20
-343.7867414326315
 30
0.0
 10
341.156988123237
 20
-343.7867414326315
 30
0.0
 10
341.156988123237
 20
-340.6974765027431
 30
0.0
 10
341.156988123237
 20
-340.6974765027431
 30
0.0
 10
340.5094620610664
 20
-340.697476502747
 30
0.0
 10
339.8665113160494
 20
-340.5889936519384
 30
0.0
 10
339.2548330915733
 20
-340.3765324769149
 30
0.0
 10
336.2303413520476
 20
-339.3260012611311
 30
0.0
 10
334.6301301747845
 20
-336.0225424521731
 30
0.0
 10
335.6806613905677
 20
-332.9980507126473
 30
0.0
 10
334.4486592182288
 20
-333.4259760804175
 30
0.0
 10
333.1083534996459
 20
-333.4259760804175
 30
0.0
 10
331.8763513273065
 20
-332.9980507126473
 30
0.0
 10
328.8518595877795
 20
-331.9475194968635
 30
0.0
 10
327.251648410515
 20
-328.6440606879049
 30
0.0
 10
328.3021796262983
 20
-325.6195689483779
 30
0.0
 10
329.3527108420808
 20
-322.5950772088503
 30
0.0
 10
332.6561696510401
 20
-320.9948660315858
 30
0.0
 10
335.6806613905671
 20
-322.0453972473691
 30
0.0
 10
335.4682002155436
 20
-321.4337190228924
 30
0.0
 10
335.3597173647344
 20
-320.7907682778747
 30
0.0
 10
335.3597173647382
 20
-320.1432422157028
 30
0.0
 10
335.3597173647562
 20
-316.941497985162
 30
0.0
 10
337.9552438926955
 20
-314.3459714572515
 30
0.0
 10
341.156988123237
 20
-314.3459714572695
 30
0.0
 10
341.156988123237
 20
-314.3459714572695
 30
0.0
 10
341.156988123237
 20
-311.2567065273818
 30
0.0
 10
341.156988123237
 20
-311.2567065273818
 30
0.0
 10
340.5094620610664
 20
-311.2567065273856
 30
0.0
 10
339.8665113160494
 20
-311.1482236765764
 30
0.0
 10
339.2548330915733
 20
-310.9357625015535
 30
0.0
 10
336.230341352047
 20
-309.8852312857691
 30
0.0
 10
334.6301301747845
 20
-306.5817724768104
 30
0.0
 10
335.6806613905677
 20
-303.5572807372841
 30
0.0
 10
334.448659130248
 20
-303.985206115041
 30
0.0
 10
333.1083534116658
 20
-303.9852060950694
 30
0.0
 10
331.8763512457028
 20
-303.5572807089403
 30
0.0
 10
328.8518595218301
 20
-302.5067494480886
 30
0.0
 10
327.2516483937904
 20
-299.2032906152851
 30
0.0
 10
328.3021796546427
 20
-296.1787988914123
 30
0.0
 10
329.3527109154944
 20
-293.1543071675389
 30
0.0
 10
332.6561697482979
 20
-291.5540960394993
 30
0.0
 10
335.6806614721706
 20
-292.604627300351
 30
0.0
 10
335.4682002155436
 20
-291.9929490475291
 30
0.0
 10
335.3597173647344
 20
-291.3499983025114
 30
0.0
 10
335.3597173647382
 20
-290.7024722403402
 30
0.0
 10
335.3597173647562
 20
-287.5007280097993
 30
0.0
 10
337.9552438926955
 20
-284.9052014818882
 30
0.0
 10
341.1569881232364
 20
-284.9052014819062
 30
0.0
 10
341.1569881232364
 20
-284.9052014819062
 30
0.0
 10
341.156988123237
 20
-281.8159365520185
 30
0.0
 10
341.156988123237
 20
-281.8159365520185
 30
0.0
 10
340.5094620610664
 20
-281.8159365520224
 30
0.0
 10
339.8665113160494
 20
-281.7074537012131
 30
0.0
 10
339.2548330915733
 20
-281.4949925261903
 30
0.0
 10
336.230341352047
 20
-280.4444613104058
 30
0.0
 10
334.6301301747845
 20
-277.1410025014478
 30
0.0
 10
335.6806613905677
 20
-274.1165107619215
 30
0.0
 10
334.4486592182288
 20
-274.5444361296922
 30
0.0
 10
333.1083534996459
 20
-274.5444361296928
 30
0.0
 10
331.8763513273065
 20
-274.1165107619221
 30
0.0
 10
328.8518595877795
 20
-273.0659795461389
 30
0.0
 10
327.251648410515
 20
-269.7625207371802
 30
0.0
 10
328.3021796262983
 20
-266.7380289976526
 30
0.0
 10
329.3527108420808
 20
-263.7135372581257
 30
0.0
 10
332.6561696510401
 20
-262.1133260808606
 30
0.0
 10
335.6806613905671
 20
-263.1638572966445
 30
0.0
 10
335.4682001963144
 20
-262.5521789873981
 30
0.0
 10
335.3597173550864
 20
-261.9092282407646
 30
0.0
 10
335.3597173647382
 20
-261.261702178594
 30
0.0
 10
335.3597174124652
 20
-258.0599579480524
 30
0.0
 10
337.955243979081
 20
-255.4644314588166
 30
0.0
 10
341.1569882096226
 20
-255.4644315065436
 30
0.0
 10
341.1569881232364
 20
-255.4644315065436
 30
0.0
 10
341.156988123237
 20
-253.9197990415994
 30
0.0
 10
341.156988123237
 20
-253.9197990415994
 30
0.0
 10
341.156988123237
 20
-253.9197990415994
 30
0.0
 10
336.1502952428245
 20
-253.9197990415994
 30
0.0
 10
336.1502952428245
 20
-253.9197990415994
 30
0.0
 10
334.129248748805
 20
-255.2980192093983
 30
0.0
 10
332.7657162598489
 20
-257.4484106662029
 30
0.0
 10
332.3810233460883
 20
-259.864219252167
 30
0.0
 10
329.9652147601267
 20
-260.2489121659283
 30
0.0
 10
327.8148233033247
 20
-261.612444654883
 30
0.0
 10
326.4366031355265
 20
-263.6334911489
 30
0.0
 10
325.0583829677302
 20
-261.6124446548824
 30
0.0
 10
322.9079915109288
 20
-260.2489121659276
 30
0.0
 10
320.4921829249673
 20
-259.8642192521658
 30
0.0
 10
320.1074900112067
 20
-257.4484106662016
 30
0.0
 10
318.7439575222506
 20
-255.2980192093976
 30
0.0
 10
316.7229110282304
 20
-253.9197990415994
 30
0.0
 10
316.7229110282304
 20
-253.9197990415994
 30
0.0
 10
306.7095252674683
 20
-253.9197990415994
 30
0.0
 10
306.7095252674683
 20
-253.9197990415994
 30
0.0
 10
304.6884787734481
 20
-255.2980192093983
 30
0.0
 10
303.3249462844927
 20
-257.4484106662029
 30
0.0
 10
302.9402533707328
 20
-259.864219252167
 30
0.0
 10
300.5244446597317
 20
-260.2489122227507
 30
0.0
 10
298.3740532232471
 20
-261.6124447437487
 30
0.0
 10
296.9958330855657
 20
-263.6334912583026
 30
0.0
 10
295.617612992374
 20
-261.612444654883
 30
0.0
 10
293.4672215355726
 20
-260.2489121659276
 30
0.0
 10
291.0514129496111
 20
-259.8642192521664
 30
0.0
 10
290.6667200358507
 20
-257.4484106662016
 30
0.0
 10
289.3031875468944
 20
-255.2980192093976
 30
0.0
 10
287.2821410528742
 20
-253.9197990415994
 30
0.0
 10
287.2821410528739
 20
-253.9197990415994
 30
0.0
 10
277.2687552921111
 20
-253.9197990415994
 30
0.0
 10
277.2687552921111
 20
-253.9197990415994
 30
0.0
 10
275.2477087980919
 20
-255.2980192093983
 30
0.0
 10
273.8841763091365
 20
-257.4484106662029
 30
0.0
 10
273.4994833953762
 20
-259.864219252167
 30
0.0
 10
271.0836748094147
 20
-260.2489121659276
 30
0.0
 10
268.933283352612
 20
-261.6124446548824
 30
0.0
 10
267.5550631848144
 20
-263.6334911489
 30
0.0
 10
266.1768430170178
 20
-261.6124446548824
 30
0.0
 10
264.0264515602161
 20
-260.2489121659276
 30
0.0
 10
261.6106429742549
 20
-259.8642192521658
 30
0.0
 10
261.2259500604943
 20
-257.4484106662016
 30
0.0
 10
259.8624175715382
 20
-255.2980192093976
 30
0.0
 10
257.8413710775183
 20
-253.9197990415994
 30
0.0
 10
257.8413710775183
 20
-253.9197990415994
 30
0.0
 10
247.8279853167559
 20
-253.9197990415994
 30
0.0
 10
247.8279853167559
 20
-253.9197990415994
 30
0.0
 10
245.8069387338701
 20
-255.2980193141197
 30
0.0
 10
244.4434062769579
 20
-257.4484107912425
 30
0.0
 10
244.0587133991959
 20
-259.8642193829389
 30
0.0
 10
241.6422652459458
 20
-260.2472197798334
 30
0.0
 10
239.4912553729938
 20
-261.6111443976301
 30
0.0
 10
238.1142932094582
 20
-263.6334911489
 30
0.0
  0
ENDBLK
  5
10C
330
109
100
AcDbEntity
  8
0
100
AcDbBlockEnd
  0
ENDSEC
  0
SECTION
  2
ENTITIES
  0
INSERT
  5
42
330
1F
100
AcDbEntity
  8
Layer 1
100
AcDbBlockReference
  2
block 2
 10
0.0
 20
0.0
 30
0.0
  0
INSERT
  5
47
330
1F
100
AcDbEntity
  8
Layer 1
100
AcDbBlockReference
  2
block 3
 10
0.0
 20
0.0
 30
0.0
  0
INSERT
  5
4C
330
1F
100
AcDbEntity
  8
Layer 1
100
AcDbBlockReference
  2
block 4
 10
0.0
 20
0.0
 30
0.0
  0
INSERT
  5
51
330
1F
100
AcDbEntity
  8
Layer 1
100
AcDbBlockReference
  2
block 5
 10
0.0
 20
0.0
 30
0.0
  0
INSERT
  5
56
330
1F
100
AcDbEntity
  8
Layer 1
100
AcDbBlockReference
  2
block 6
 10
0.0
 20
0.0
 30
0.0
  0
INSERT
  5
5B
330
1F
100
AcDbEntity
  8
Layer 1
100
AcDbBlockReference
  2
block 7
 10
0.0
 20
0.0
 30
0.0
  0
INSERT
  5
60
330
1F
100
AcDbEntity
  8
Layer 1
100
AcDbBlockReference
  2
block 8
 10
0.0
 20
0.0
 30
0.0
  0
INSERT
  5
65
330
1F
100
AcDbEntity
  8
Layer 1
100
AcDbBlockReference
  2
block 9
 10
0.0
 20
0.0
 30
0.0
  0
INSERT
  5
6A
330
1F
100
AcDbEntity
  8
Layer 1
100
AcDbBlockReference
  2
block 10
 10
0.0
 20
0.0
 30
0.0
  0
INSERT
  5
6F
330
1F
100
AcDbEntity
  8
Layer 1
100
AcDbBlockReference
  2
block 11
 10
0.0
 20
0.0
 30
0.0
  0
INSERT
  5
74
330
1F
100
AcDbEntity
  8
Layer 1
100
AcDbBlockReference
  2
block 12
 10
0.0
 20
0.0
 30
0.0
  0
INSERT
  5
79
330
1F
100
AcDbEntity
  8
Layer 1
100
AcDbBlockReference
  2
block 13
 10
0.0
 20
0.0
 30
0.0
  0
INSERT
  5
7E
330
1F
100
AcDbEntity
  8
Layer 1
100
AcDbBlockReference
  2
block 14
 10
0.0
 20
0.0
 30
0.0
  0
INSERT
  5
83
330
1F
100
AcDbEntity
  8
Layer 1
100
AcDbBlockReference
  2
block 15
 10
0.0
 20
0.0
 30
0.0
  0
INSERT
  5
88
330
1F
100
AcDbEntity
  8
Layer 1
100
AcDbBlockReference
  2
block 16
 10
0.0
 20
0.0
 30
0.0
  0
INSERT
  5
8D
330
1F
100
AcDbEntity
  8
Layer 1
100
AcDbBlockReference
  2
block 17
 10
0.0
 20
0.0
 30
0.0
  0
INSERT
  5
92
330
1F
100
AcDbEntity
  8
Layer 1
100
AcDbBlockReference
  2
block 18
 10
0.0
 20
0.0
 30
0.0
  0
INSERT
  5
97
330
1F
100
AcDbEntity
  8
Layer 1
100
AcDbBlockReference
  2
block 19
 10
0.0
 20
0.0
 30
0.0
  0
INSERT
  5
9C
330
1F
100
AcDbEntity
  8
Layer 1
100
AcDbBlockReference
  2
block 20
 10
0.0
 20
0.0
 30
0.0
  0
INSERT
  5
A1
330
1F
100
AcDbEntity
  8
Layer 1
100
AcDbBlockReference
  2
block 21
 10
0.0
 20
0.0
 30
0.0
  0
INSERT
  5
A6
330
1F
100
AcDbEntity
  8
Layer 1
100
AcDbBlockReference
  2
block 22
 10
0.0
 20
0.0
 30
0.0
  0
INSERT
  5
AB
330
1F
100
AcDbEntity
  8
Layer 1
100
AcDbBlockReference
  2
block 23
 10
0.0
 20
0.0
 30
0.0
  0
INSERT
  5
B0
330
1F
100
AcDbEntity
  8
Layer 1
100
AcDbBlockReference
  2
block 24
 10
0.0
 20
0.0
 30
0.0
  0
INSERT
  5
B5
330
1F
100
AcDbEntity
  8
Layer 1
100
AcDbBlockReference
  2
block 25
 10
0.0
 20
0.0
 30
0.0
  0
INSERT
  5
BA
330
1F
100
AcDbEntity
  8
Layer 1
100
AcDbBlockReference
  2
block 26
 10
0.0
 20
0.0
 30
0.0
  0
INSERT
  5
BF
330
1F
100
AcDbEntity
  8
Layer 1
100
AcDbBlockReference
  2
block 27
 10
0.0
 20
0.0
 30
0.0
  0
INSERT
  5
C4
330
1F
100
AcDbEntity
  8
Layer 1
100
AcDbBlockReference
  2
block 28
 10
0.0
 20
0.0
 30
0.0
  0
INSERT
  5
C9
330
1F
100
AcDbEntity
  8
Layer 1
100
AcDbBlockReference
  2
block 29
 10
0.0
 20
0.0
 30
0.0
  0
INSERT
  5
CE
330
1F
100
AcDbEntity
  8
Layer 1
100
AcDbBlockReference
  2
block 30
 10
0.0
 20
0.0
 30
0.0
  0
INSERT
  5
D3
330
1F
100
AcDbEntity
  8
Layer 1
100
AcDbBlockReference
  2
block 31
 10
0.0
 20
0.0
 30
0.0
  0
INSERT
  5
D8
330
1F
100
AcDbEntity
  8
Layer 1
100
AcDbBlockReference
  2
block 32
 10
0.0
 20
0.0
 30
0.0
  0
INSERT
  5
DD
330
1F
100
AcDbEntity
  8
Layer 1
100
AcDbBlockReference
  2
block 33
 10
0.0
 20
0.0
 30
0.0
  0
INSERT
  5
E2
330
1F
100
AcDbEntity
  8
Layer 1
100
AcDbBlockReference
  2
block 34
 10
0.0
 20
0.0
 30
0.0
  0
INSERT
  5
E7
330
1F
100
AcDbEntity
  8
Layer 1
100
AcDbBlockReference
  2
block 35
 10
0.0
 20
0.0
 30
0.0
  0
INSERT
  5
EC
330
1F
100
AcDbEntity
  8
Layer 1
100
AcDbBlockReference
  2
block 36
 10
0.0
 20
0.0
 30
0.0
  0
INSERT
  5
F1
330
1F
100
AcDbEntity
  8
Layer 1
100
AcDbBlockReference
  2
block 37
 10
0.0
 20
0.0
 30
0.0
  0
INSERT
  5
F6
330
1F
100
AcDbEntity
  8
Layer 1
100
AcDbBlockReference
  2
block 38
 10
0.0
 20
0.0
 30
0.0
  0
INSERT
  5
FB
330
1F
100
AcDbEntity
  8
Layer 1
100
AcDbBlockReference
  2
block 39
 10
0.0
 20
0.0
 30
0.0
  0
INSERT
  5
100
330
1F
100
AcDbEntity
  8
Layer 1
100
AcDbBlockReference
  2
block 40
 10
0.0
 20
0.0
 30
0.0
  0
INSERT
  5
105
330
1F
100
AcDbEntity
  8
Layer 1
100
AcDbBlockReference
  2
block 41
 10
0.0
 20
0.0
 30
0.0
  0
INSERT
  5
10A
330
1F
100
AcDbEntity
  8
Layer 1
100
AcDbBlockReference
  2
block 42
 10
0.0
 20
0.0
 30
0.0
  0
ENDSEC
  0
SECTION
  2
OBJECTS
  0
DICTIONARY
  5
C
330
0
100
AcDbDictionary
281
     1
  3
ACAD_GROUP
350
D
  3
ACAD_LAYOUT
350
1A
  3
ACAD_MATERIAL
350
3B
  3
ACAD_MLEADERSTYLE
350
10F
  3
ACAD_MLINESTYLE
350
17
  3
ACAD_PLOTSETTINGS
350
19
  3
ACAD_PLOTSTYLENAME
350
E
  3
ACAD_TABLESTYLE
350
10E
  3
ACAD_VISUALSTYLE
350
2A
  0
SUN
  5
3F
330
29
100
AcDbSun
 90
        1
290
     0
 63
     7
421
 16777215
 40
1.0
291
     1
 91
  2455826
 92
 54000000
292
     0
 70
     2
 71
   256
280
     1
  0
DICTIONARY
  5
D
102
{ACAD_REACTORS
330
C
102
}
330
C
100
AcDbDictionary
281
     1
  0
DICTIONARY
  5
1A
102
{ACAD_REACTORS
330
C
102
}
330
C
100
AcDbDictionary
281
     1
  3
Layout1
350
1E
  3
Layout2
350
26
  3
Model
350
22
  0
DICTIONARY
  5
3B
102
{ACAD_REACTORS
330
C
102
}
330
C
100
AcDbDictionary
281
     1
  3
ByBlock
350
3D
  3
ByLayer
350
3C
  3
Global
350
3E
  0
DICTIONARY
  5
10F
102
{ACAD_REACTORS
330
C
102
}
330
C
100
AcDbDictionary
281
     1
  0
DICTIONARY
  5
17
102
{ACAD_REACTORS
330
C
102
}
330
C
100
AcDbDictionary
281
     1
  3
Standard
350
18
  0
DICTIONARY
  5
19
102
{ACAD_REACTORS
330
C
102
}
330
C
100
AcDbDictionary
281
     1
  0
ACDBDICTIONARYWDFLT
  5
E
102
{ACAD_REACTORS
330
C
102
}
330
C
100
AcDbDictionary
281
     1
  3
Normal
350
F
100
AcDbDictionaryWithDefault
340
F
  0
DICTIONARY
  5
10E
102
{ACAD_REACTORS
330
C
102
}
330
C
100
AcDbDictionary
281
     1
  0
DICTIONARY
  5
2A
102
{ACAD_REACTORS
330
C
102
}
330
C
100
AcDbDictionary
281
     1
  3
2dWireframe
350
2F
  3
3D Hidden
350
31
  3
3dWireframe
350
30
  3
Basic
350
32
  3
Brighten
350
36
  3
ColorChange
350
3A
  3
Conceptual
350
34
  3
Dim
350
35
  3
Facepattern
350
39
  3
Flat
350
2B
  3
FlatWithEdges
350
2C
  3
Gouraud
350
2D
  3
GouraudWithEdges
350
2E
  3
Linepattern
350
38
  3
Realistic
350
33
  3
Thicken
350
37
  0
LAYOUT
  5
1E
102
{ACAD_REACTORS
330
1A
102
}
330
1A
100
AcDbPlotSettings
  1

  2
none_device
  4

  6

 40
0.0
 41
0.0
 42
0.0
 43
0.0
 44
0.0
 45
0.0
 46
0.0
 47
0.0
 48
0.0
 49
0.0
140
0.0
141
0.0
142
1.0
143
1.0
 70
   688
 72
     0
 73
     0
 74
     5
  7

 75
    16
 76
     0
 77
     2
 78
   300
147
1.0
148
0.0
149
0.0
100
AcDbLayout
  1
Layout1
 70
     1
 71
     1
 10
0.0
 20
0.0
 11
12.0
 21
9.0
 12
0.0
 22
0.0
 32
0.0
 14
1.000000000000000E+20
 24
1.000000000000000E+20
 34
1.000000000000000E+20
 15
-1.000000000000000E+20
 25
-1.000000000000000E+20
 35
-1.000000000000000E+20
146
0.0
 13
0.0
 23
0.0
 33
0.0
 16
1.0
 26
0.0
 36
0.0
 17
0.0
 27
1.0
 37
0.0
 76
     0
330
1B
  0
LAYOUT
  5
26
102
{ACAD_REACTORS
330
1A
102
}
330
1A
100
AcDbPlotSettings
  1

  2
none_device
  4

  6

 40
0.0
 41
0.0
 42
0.0
 43
0.0
 44
0.0
 45
0.0
 46
0.0
 47
0.0
 48
0.0
 49
0.0
140
0.0
141
0.0
142
1.0
143
1.0
 70
   688
 72
     0
 73
     0
 74
     5
  7

 75
    16
 76
     0
 77
     2
 78
   300
147
1.0
148
0.0
149
0.0
100
AcDbLayout
  1
Layout2
 70
     1
 71
     2
 10
0.0
 20
0.0
 11
0.0
 21
0.0
 12
0.0
 22
0.0
 32
0.0
 14
0.0
 24
0.0
 34
0.0
 15
0.0
 25
0.0
 35
0.0
146
0.0
 13
0.0
 23
0.0
 33
0.0
 16
1.0
 26
0.0
 36
0.0
 17
0.0
 27
1.0
 37
0.0
 76
     0
330
23
  0
LAYOUT
  5
22
102
{ACAD_REACTORS
330
1A
102
}
330
1A
100
AcDbPlotSettings
  1

  2
none_device
  4

  6

 40
0.0
 41
0.0
 42
0.0
 43
0.0
 44
0.0
 45
0.0
 46
0.0
 47
0.0
 48
0.0
 49
0.0
140
0.0
141
0.0
142
1.0
143
1.0
 70
  1712
 72
     0
 73
     0
 74
     0
  7

 75
     0
 76
     0
 77
     2
 78
   300
147
1.0
148
0.0
149
0.0
100
AcDbLayout
  1
Model
 70
     1
 71
     0
 10
0.0
 20
0.0
 11
12.0
 21
9.0
 12
0.0
 22
0.0
 32
0.0
 14
1.000000000000000E+20
 24
1.000000000000000E+20
 34
1.000000000000000E+20
 15
-1.000000000000000E+20
 25
-1.000000000000000E+20
 35
-1.000000000000000E+20
146
0.0
 13
0.0
 23
0.0
 33
0.0
 16
1.0
 26
0.0
 36
0.0
 17
0.0
 27
1.0
 37
0.0
 76
     0
330
1F
331
29
  0
MATERIAL
  5
3D
102
{ACAD_REACTORS
330
3B
102
}
330
3B
100
AcDbMaterial
  1
ByBlock
 72
     1
 94
      127
  0
MATERIAL
  5
3C
102
{ACAD_REACTORS
330
3B
102
}
330
3B
100
AcDbMaterial
  1
ByLayer
 72
     1
 94
      127
  0
MATERIAL
  5
3E
102
{ACAD_REACTORS
330
3B
102
}
330
3B
100
AcDbMaterial
  1
Global
 72
     1
 94
      127
  0
MLINESTYLE
  5
18
102
{ACAD_REACTORS
330
17
102
}
330
17
100
AcDbMlineStyle
  2
Standard
 70
     0
  3

 62
   256
 51
90.0
 52
90.0
 71
     2
 49
0.5
 62
   256
  6
BYLAYER
 49
-0.5
 62
   256
  6
BYLAYER
  0
ACDBPLACEHOLDER
  5
F
102
{ACAD_REACTORS
330
E
102
}
330
E
  0
VISUALSTYLE
  5
2F
102
{ACAD_REACTORS
330
2A
102
}
330
2A
100
AcDbVisualStyle
  2
2dWireframe
 70
     4
177
     2
291
     0
 71
     0
176
     1
 72
     2
176
     1
 73
     0
176
     1
 90
        0
176
     1
 40
-0.6
176
     1
 41
-30.0
176
     1
 62
     5
 63
     7
421
 16777215
176
     1
 74
     1
176
     1
 91
        4
176
     1
 64
     7
176
     1
 65
   257
176
     1
 75
     1
176
     1
175
     1
176
     1
 42
1.0
176
     1
 92
        0
176
     1
 66
   257
176
     1
 43
1.0
176
     1
 76
     1
176
     1
 77
     6
176
     1
 78
     2
176
     1
 67
     7
176
     1
 79
     5
176
     1
170
     0
176
     1
171
     0
176
     1
290
     0
176
     1
 93
        1
176
     1
 44
0.0
176
     1
173
     0
176
     1
  0
VISUALSTYLE
  5
31
102
{ACAD_REACTORS
330
2A
102
}
330
2A
100
AcDbVisualStyle
  2
3D Hidden
 70
     6
177
     2
291
     0
 71
     1
176
     1
 72
     2
176
     1
 73
     2
176
     1
 90
        0
176
     1
 40
-0.6
176
     1
 41
-30.0
176
     1
 62
     5
 63
     7
421
 16777215
176
     1
 74
     2
176
     1
 91
        2
176
     1
 64
     7
176
     1
 65
   257
176
     1
 75
     2
176
     1
175
     1
176
     1
 42
40.0
176
     1
 92
        0
176
     1
 66
   257
176
     1
 43
1.0
176
     1
 76
     1
176
     1
 77
     6
176
     1
 78
     2
176
     1
 67
     7
176
     1
 79
     3
176
     1
170
     0
176
     1
171
     0
176
     1
290
     0
176
     1
 93
        1
176
     1
 44
0.0
176
     1
173
     0
176
     1
  0
VISUALSTYLE
  5
30
102
{ACAD_REACTORS
330
2A
102
}
330
2A
100
AcDbVisualStyle
  2
3dWireframe
 70
     5
177
     2
291
     0
 71
     0
176
     1
 72
     2
176
     1
 73
     0
176
     1
 90
        0
176
     1
 40
-0.6
176
     1
 41
-30.0
176
     1
 62
     5
 63
     7
421
 16777215
176
     1
 74
     1
176
     1
 91
        4
176
     1
 64
     7
176
     1
 65
   257
176
     1
 75
     1
176
     1
175
     1
176
     1
 42
1.0
176
     1
 92
        0
176
     1
 66
   257
176
     1
 43
1.0
176
     1
 76
     1
176
     1
 77
     6
176
     1
 78
     2
176
     1
 67
     7
176
     1
 79
     5
176
     1
170
     0
176
     1
171
     0
176
     1
290
     0
176
     1
 93
        1
176
     1
 44
0.0
176
     1
173
     0
176
     1
  0
VISUALSTYLE
  5
32
102
{ACAD_REACTORS
330
2A
102
}
330
2A
100
AcDbVisualStyle
  2
Basic
 70
     7
177
     2
291
     1
 71
     1
176
     1
 72
     0
176
     1
 73
     1
176
     1
 90
        0
176
     1
 40
-0.6
176
     1
 41
-30.0
176
     1
 62
     5
 63
     7
421
 16777215
176
     1
 74
     0
176
     1
 91
        4
176
     1
 64
     7
176
     1
 65
   257
176
     1
 75
     1
176
     1
175
     1
176
     1
 42
1.0
176
     1
 92
        8
176
     1
 66
     7
176
     1
 43
1.0
176
     1
 76
     1
176
     1
 77
     6
176
     1
 78
     2
176
     1
 67
     7
176
     1
 79
     5
176
     1
170
     0
176
     1
171
     0
176
     1
290
     0
176
     1
 93
        1
176
     1
 44
0.0
176
     1
173
     0
176
     1
  0
VISUALSTYLE
  5
36
102
{ACAD_REACTORS
330
2A
102
}
330
2A
100
AcDbVisualStyle
  2
Brighten
 70
    12
177
     2
291
     1
 71
     2
176
     1
 72
     2
176
     1
 73
     0
176
     1
 90
        0
176
     1
 40
-0.6
176
     1
 41
-30.0
176
     1
 62
     5
 63
     7
421
 16777215
176
     1
 74
     1
176
     1
 91
        4
176
     1
 64
     7
176
     1
 65
   257
176
     1
 75
     1
176
     1
175
     1
176
     1
 42
1.0
176
     1
 92
        8
176
     1
 66
     7
176
     1
 43
1.0
176
     1
 76
     1
176
     1
 77
     6
176
     1
 78
     2
176
     1
 67
     7
176
     1
 79
     5
176
     1
170
     0
176
     1
171
     0
176
     1
290
     0
176
     1
 93
        1
176
     1
 44
50.0
176
     1
173
     0
176
     1
  0
VISUALSTYLE
  5
3A
102
{ACAD_REACTORS
330
2A
102
}
330
2A
100
AcDbVisualStyle
  2
ColorChange
 70
    16
177
     2
291
     1
 71
     2
176
     1
 72
     2
176
     1
 73
     3
176
     1
 90
        0
176
     1
 40
-0.6
176
     1
 41
-30.0
176
     1
 62
     5
 63
     8
421
  8421504
176
     1
 74
     1
176
     1
 91
        4
176
     1
 64
     7
176
     1
 65
   257
176
     1
 75
     1
176
     1
175
     1
176
     1
 42
1.0
176
     1
 92
        8
176
     1
 66
     8
424
  8421504
176
     1
 43
1.0
176
     1
 76
     1
176
     1
 77
     6
176
     1
 78
     2
176
     1
 67
     7
176
     1
 79
     5
176
     1
170
     0
176
     1
171
     0
176
     1
290
     0
176
     1
 93
        1
176
     1
 44
0.0
176
     1
173
     0
176
     1
  0
VISUALSTYLE
  5
34
102
{ACAD_REACTORS
330
2A
102
}
330
2A
100
AcDbVisualStyle
  2
Conceptual
 70
     9
177
     2
291
     0
 71
     3
176
     1
 72
     2
176
     1
 73
     0
176
     1
 90
        0
176
     1
 40
-0.6
176
     1
 41
-30.0
176
     1
 62
     5
 63
     7
421
 16777215
176
     1
 74
     2
176
     1
 91
        2
176
     1
 64
     7
176
     1
 65
   257
176
     1
 75
     1
176
     1
175
     1
176
     1
 42
40.0
176
     1
 92
        8
176
     1
 66
     7
176
     1
 43
1.0
176
     1
 76
     1
176
     1
 77
     6
176
     1
 78
     2
176
     1
 67
     7
176
     1
 79
     3
176
     1
170
     0
176
     1
171
     0
176
     1
290
     0
176
     1
 93
        1
176
     1
 44
0.0
176
     1
173
     0
176
     1
  0
VISUALSTYLE
  5
35
102
{ACAD_REACTORS
330
2A
102
}
330
2A
100
AcDbVisualStyle
  2
Dim
 70
    11
177
     2
291
     1
 71
     2
176
     1
 72
     2
176
     1
 73
     0
176
     1
 90
        0
176
     1
 40
-0.6
176
     1
 41
-30.0
176
     1
 62
     5
 63
     7
421
 16777215
176
     1
 74
     1
176
     1
 91
        4
176
     1
 64
     7
176
     1
 65
   257
176
     1
 75
     1
176
     1
175
     1
176
     1
 42
1.0
176
     1
 92
        8
176
     1
 66
     7
176
     1
 43
1.0
176
     1
 76
     1
176
     1
 77
     6
176
     1
 78
     2
176
     1
 67
     7
176
     1
 79
     5
176
     1
170
     0
176
     1
171
     0
176
     1
290
     0
176
     1
 93
        1
176
     1
 44
-50.0
176
     1
173
     0
176
     1
  0
VISUALSTYLE
  5
39
102
{ACAD_REACTORS
330
2A
102
}
330
2A
100
AcDbVisualStyle
  2
Facepattern
 70
    15
177
     2
291
     1
 71
     2
176
     1
 72
     2
176
     1
 73
     0
176
     1
 90
        0
176
     1
 40
-0.6
176
     1
 41
-30.0
176
     1
 62
     5
 63
     7
421
 16777215
176
     1
 74
     1
176
     1
 91
        4
176
     1
 64
     7
176
     1
 65
   257
176
     1
 75
     1
176
     1
175
     1
176
     1
 42
1.0
176
     1
 92
        8
176
     1
 66
     7
176
     1
 43
1.0
176
     1
 76
     1
176
     1
 77
     6
176
     1
 78
     2
176
     1
 67
     7
176
     1
 79
     5
176
     1
170
     0
176
     1
171
     0
176
     1
290
     0
176
     1
 93
        1
176
     1
 44
0.0
176
     1
173
     0
176
     1
  0
VISUALSTYLE
  5
2B
102
{ACAD_REACTORS
330
2A
102
}
330
2A
100
AcDbVisualStyle
  2
Flat
 70
     0
177
     2
291
     1
 71
     2
176
     1
 72
     1
176
     1
 73
     1
176
     1
 90
        2
176
     1
 40
-0.6
176
     1
 41
30.0
176
     1
 62
     5
 63
     7
421
 16777215
176
     1
 74
     0
176
     1
 91
        4
176
     1
 64
     7
176
     1
 65
   257
176
     1
 75
     1
176
     1
175
     1
176
     1
 42
1.0
176
     1
 92
        8
176
     1
 66
     7
176
     1
 43
1.0
176
     1
 76
     1
176
     1
 77
     6
176
     1
 78
     2
176
     1
 67
     7
176
     1
 79
     5
176
     1
170
     0
176
     1
171
     0
176
     1
290
     0
176
     1
 93
       13
176
     1
 44
0.0
176
     1
173
     0
176
     1
  0
VISUALSTYLE
  5
2C
102
{ACAD_REACTORS
330
2A
102
}
330
2A
100
AcDbVisualStyle
  2
FlatWithEdges
 70
     1
177
     2
291
     1
 71
     2
176
     1
 72
     1
176
     1
 73
     1
176
     1
 90
        2
176
     1
 40
-0.6
176
     1
 41
30.0
176
     1
 62
     5
 63
     7
421
 16777215
176
     1
 74
     1
176
     1
 91
        4
176
     1
 64
     7
176
     1
 65
   257
176
     1
 75
     1
176
     1
175
     1
176
     1
 42
1.0
176
     1
 92
        0
176
     1
 66
   257
176
     1
 43
1.0
176
     1
 76
     1
176
     1
 77
     6
176
     1
 78
     2
176
     1
 67
     7
176
     1
 79
     5
176
     1
170
     0
176
     1
171
     0
176
     1
290
     0
176
     1
 93
       13
176
     1
 44
0.0
176
     1
173
     0
176
     1
  0
VISUALSTYLE
  5
2D
102
{ACAD_REACTORS
330
2A
102
}
330
2A
100
AcDbVisualStyle
  2
Gouraud
 70
     2
177
     2
291
     1
 71
     2
176
     1
 72
     2
176
     1
 73
     1
176
     1
 90
        2
176
     1
 40
-0.6
176
     1
 41
30.0
176
     1
 62
     5
 63
     7
421
 16777215
176
     1
 74
     0
176
     1
 91
        4
176
     1
 64
     7
176
     1
 65
   257
176
     1
 75
     1
176
     1
175
     1
176
     1
 42
1.0
176
     1
 92
        0
176
     1
 66
     7
176
     1
 43
1.0
176
     1
 76
     1
176
     1
 77
     6
176
     1
 78
     2
176
     1
 67
     7
176
     1
 79
     5
176
     1
170
     0
176
     1
171
     0
176
     1
290
     0
176
     1
 93
       13
176
     1
 44
0.0
176
     1
173
     0
176
     1
  0
VISUALSTYLE
  5
2E
102
{ACAD_REACTORS
330
2A
102
}
330
2A
100
AcDbVisualStyle
  2
GouraudWithEdges
 70
     3
177
     2
291
     1
 71
     2
176
     1
 72
     2
176
     1
 73
     1
176
     1
 90
        2
176
     1
 40
-0.6
176
     1
 41
30.0
176
     1
 62
     5
 63
     7
421
 16777215
176
     1
 74
     1
176
     1
 91
        4
176
     1
 64
     7
176
     1
 65
   257
176
     1
 75
     1
176
     1
175
     1
176
     1
 42
1.0
176
     1
 92
        0
176
     1
 66
   257
176
     1
 43
1.0
176
     1
 76
     1
176
     1
 77
     6
176
     1
 78
     2
176
     1
 67
     7
176
     1
 79
     5
176
     1
170
     0
176
     1
171
     0
176
     1
290
     0
176
     1
 93
       13
176
     1
 44
0.0
176
     1
173
     0
176
     1
  0
VISUALSTYLE
  5
38
102
{ACAD_REACTORS
330
2A
102
}
330
2A
100
AcDbVisualStyle
  2
Linepattern
 70
    14
177
     2
291
     1
 71
     2
176
     1
 72
     2
176
     1
 73
     0
176
     1
 90
        0
176
     1
 40
-0.6
176
     1
 41
-30.0
176
     1
 62
     5
 63
     7
421
 16777215
176
     1
 74
     1
176
     1
 91
        4
176
     1
 64
     7
176
     1
 65
   257
176
     1
 75
     7
176
     1
175
     7
176
     1
 42
1.0
176
     1
 92
        8
176
     1
 66
     7
176
     1
 43
1.0
176
     1
 76
     1
176
     1
 77
     6
176
     1
 78
     2
176
     1
 67
     7
176
     1
 79
     5
176
     1
170
     0
176
     1
171
     0
176
     1
290
     0
176
     1
 93
        1
176
     1
 44
0.0
176
     1
173
     0
176
     1
  0
VISUALSTYLE
  5
33
102
{ACAD_REACTORS
330
2A
102
}
330
2A
100
AcDbVisualStyle
  2
Realistic
 70
     8
177
     2
291
     0
 71
     2
176
     1
 72
     2
176
     1
 73
     0
176
     1
 90
        0
176
     1
 40
-0.6
176
     1
 41
-30.0
176
     1
 62
     5
 63
     7
421
 16777215
176
     1
 74
     1
176
     1
 91
        0
176
     1
 64
     7
176
     1
 65
   257
176
     1
 75
     1
176
     1
175
     1
176
     1
 42
1.0
176
     1
 92
        8
176
     1
 66
     8
424
  7895160
176
     1
 43
1.0
176
     1
 76
     1
176
     1
 77
     6
176
     1
 78
     2
176
     1
 67
     7
176
     1
 79
     5
176
     1
170
     0
176
     1
171
     0
176
     1
290
     0
176
     1
 93
       13
176
     1
 44
0.0
176
     1
173
     0
176
     1
  0
VISUALSTYLE
  5
37
102
{ACAD_REACTORS
330
2A
102
}
330
2A
100
AcDbVisualStyle
  2
Thicken
 70
    13
177
     2
291
     1
 71
     2
176
     1
 72
     2
176
     1
 73
     0
176
     1
 90
        0
176
     1
 40
-0.6
176
     1
 41
-30.0
176
     1
 62
     5
 63
     7
421
 16777215
176
     1
 74
     1
176
     1
 91
        4
176
     1
 64
     7
176
     1
 65
   257
176
     1
 75
     1
176
     1
175
     1
176
     1
 42
1.0
176
     1
 92
       12
176
     1
 66
     7
176
     1
 43
1.0
176
     1
 76
     1
176
     1
 77
     6
176
     1
 78
     2
176
     1
 67
     7
176
     1
 79
     5
176
     1
170
     0
176
     1
171
     0
176
     1
290
     0
176
     1
 93
        1
176
     1
 44
0.0
176
     1
173
     0
176
     1
  0
ENDSEC
  0
EOF
